<svg width="318" height="50" viewBox="0 0 318 50" fill="none" xmlns="http://www.w3.org/2000/svg">
<path d="M2.22918 27V12.1388H3.97006L10.6364 23.3696H9.70224L16.2836 12.1388H18.0245L18.0457 27H16.0076L15.9864 15.3446H16.4747L10.6151 25.1954H9.63855L3.73653 15.3446H4.26729V27H2.22918ZM22.803 27L29.533 12.1388H31.6348L38.386 27H36.1568L30.1487 13.3277H30.9979L24.9897 27H22.803ZM25.6691 23.2847L26.2423 21.5863H34.607L35.2227 23.2847H25.6691ZM49.652 27.1698C48.5056 27.1698 47.4511 26.9858 46.4887 26.6179C45.5262 26.2357 44.6912 25.705 43.9835 25.0256C43.2758 24.3321 42.7238 23.5253 42.3275 22.6053C41.9312 21.6854 41.7331 20.6734 41.7331 19.5694C41.7331 18.4654 41.9312 17.4534 42.3275 16.5335C42.7238 15.6135 43.2758 14.8138 43.9835 14.1344C44.7053 13.4409 45.5475 12.9102 46.5099 12.5422C47.4723 12.16 48.5339 11.969 49.6944 11.969C50.8692 11.969 51.9449 12.16 52.9215 12.5422C53.898 12.9243 54.726 13.4975 55.4054 14.2618L54.0891 15.5781C53.4805 14.9837 52.8153 14.552 52.0935 14.2831C51.3858 14 50.6144 13.8585 49.7794 13.8585C48.9302 13.8585 48.1376 14 47.4016 14.2831C46.6797 14.5661 46.0499 14.9624 45.5121 15.472C44.9884 15.9815 44.578 16.5901 44.2807 17.2978C43.9977 17.9913 43.8561 18.7485 43.8561 19.5694C43.8561 20.3762 43.9977 21.1334 44.2807 21.841C44.578 22.5346 44.9884 23.1432 45.5121 23.6668C46.0499 24.1764 46.6797 24.5727 47.4016 24.8557C48.1234 25.1388 48.9089 25.2803 49.7581 25.2803C50.5507 25.2803 51.308 25.16 52.0298 24.9194C52.7658 24.6647 53.4451 24.2471 54.0679 23.6668L55.278 25.2803C54.542 25.9031 53.6787 26.3772 52.6879 26.7028C51.7113 27.0142 50.6993 27.1698 49.652 27.1698ZM53.2399 25.0044V19.4845H55.278V25.2803L53.2399 25.0044ZM61.8904 27V12.1388H64.0134V27H61.8904ZM75.3413 27.1698C74.209 27.1698 73.1263 27 72.0931 26.6603C71.0599 26.3065 70.246 25.8536 69.6516 25.3016L70.4371 23.6456C71.0032 24.141 71.7251 24.5514 72.6026 24.877C73.4801 25.2025 74.393 25.3653 75.3413 25.3653C76.2047 25.3653 76.9053 25.2662 77.4431 25.068C77.9809 24.8699 78.3772 24.601 78.632 24.2613C78.8868 23.9075 79.0141 23.5112 79.0141 23.0724C79.0141 22.5629 78.8443 22.1524 78.5046 21.841C78.1791 21.5297 77.7474 21.282 77.2096 21.098C76.6859 20.8998 76.1056 20.73 75.4687 20.5885C74.8318 20.4469 74.1878 20.2842 73.5367 20.1002C72.8998 19.902 72.3124 19.6543 71.7746 19.3571C71.2509 19.0599 70.8263 18.6636 70.5008 18.1682C70.1753 17.6587 70.0125 17.0076 70.0125 16.215C70.0125 15.4507 70.2106 14.7501 70.6069 14.1132C71.0174 13.4622 71.6401 12.9456 72.4752 12.5634C73.3244 12.1671 74.4001 11.969 75.7022 11.969C76.5656 11.969 77.4219 12.0822 78.2711 12.3086C79.1203 12.5351 79.8563 12.8606 80.479 13.2852L79.7784 14.9837C79.1415 14.5591 78.4692 14.2548 77.7615 14.0708C77.0539 13.8726 76.3674 13.7735 75.7022 13.7735C74.8671 13.7735 74.1807 13.8797 73.6429 14.092C73.105 14.3043 72.7087 14.5874 72.454 14.9412C72.2134 15.295 72.0931 15.6913 72.0931 16.1301C72.0931 16.6538 72.2558 17.0713 72.5814 17.3827C72.921 17.6941 73.3527 17.9417 73.8764 18.1257C74.4142 18.3097 75.0016 18.4796 75.6385 18.6353C76.2754 18.7768 76.9123 18.9396 77.5492 19.1236C78.2003 19.3076 78.7877 19.5482 79.3114 19.8454C79.8492 20.1426 80.2809 20.5389 80.6064 21.0343C80.9319 21.5297 81.0947 22.1666 81.0947 22.945C81.0947 23.6952 80.8895 24.3958 80.479 25.0468C80.0686 25.6837 79.4317 26.2003 78.5683 26.5966C77.7191 26.9788 76.6434 27.1698 75.3413 27.1698ZM89.4876 27V13.9858H84.3924V12.1388H96.6847V13.9858H91.5894V27H89.4876ZM101.545 27V12.1388H107.34C108.643 12.1388 109.754 12.344 110.674 12.7545C111.594 13.1649 112.301 13.7594 112.797 14.5378C113.292 15.3163 113.54 16.2433 113.54 17.319C113.54 18.3947 113.292 19.3217 112.797 20.1002C112.301 20.8644 111.594 21.4518 110.674 21.8623C109.754 22.2727 108.643 22.4779 107.34 22.4779H102.712L103.668 21.5014V27H101.545ZM111.48 27L107.701 21.6075H109.973L113.794 27H111.48ZM103.668 21.7137L102.712 20.6734H107.277C108.636 20.6734 109.662 20.3832 110.355 19.8029C111.063 19.2085 111.417 18.3805 111.417 17.319C111.417 16.2575 111.063 15.4366 110.355 14.8563C109.662 14.276 108.636 13.9858 107.277 13.9858H102.712L103.668 12.9243V21.7137Z" fill="black"/>
<path d="M29.8024 42.0555C29.0898 42.0555 28.4281 41.9352 27.8174 41.6946C27.2066 41.4447 26.6745 41.0977 26.221 40.6535C25.7676 40.2093 25.4159 39.6911 25.166 39.0988C24.9162 38.4973 24.7912 37.8449 24.7912 37.1415C24.7912 36.4382 24.9162 35.7904 25.166 35.1981C25.4159 34.5966 25.7676 34.0738 26.221 33.6296C26.6745 33.1853 27.2066 32.8429 27.8174 32.6023C28.4281 32.3525 29.0898 32.2275 29.8024 32.2275C30.4594 32.2275 31.0795 32.334 31.6625 32.5468C32.2455 32.7597 32.7499 33.0836 33.1756 33.5185L32.8841 33.8239C32.4491 33.4075 31.9725 33.1113 31.4543 32.9355C30.9453 32.7504 30.3993 32.6579 29.8163 32.6579C29.1685 32.6579 28.567 32.7735 28.0117 33.0049C27.4565 33.227 26.9706 33.5416 26.5542 33.9488C26.147 34.356 25.8277 34.8326 25.5964 35.3786C25.3743 35.9153 25.2632 36.503 25.2632 37.1415C25.2632 37.7801 25.3743 38.3723 25.5964 38.9183C25.8277 39.4551 26.147 39.9271 26.5542 40.3342C26.9706 40.7414 27.4565 41.0607 28.0117 41.2921C28.567 41.5142 29.1685 41.6252 29.8163 41.6252C30.3993 41.6252 30.9453 41.5373 31.4543 41.3615C31.9725 41.1764 32.4491 40.871 32.8841 40.4453L33.1756 40.7507C32.7499 41.1856 32.2455 41.5142 31.6625 41.7363C31.0795 41.9491 30.4594 42.0555 29.8024 42.0555ZM37.7271 36.85H43.0853V37.2803H37.7271V36.85ZM37.8104 41.5697H43.9043V42H37.3384V32.2831H43.71V32.7134H37.8104V41.5697ZM48.2765 42V32.2831H48.6652L55.8002 41.4447H55.5642V32.2831H56.0362V42H55.6475L48.5125 32.8383H48.7485V42H48.2765ZM63.1077 42V32.7134H59.5402V32.2831H67.1333V32.7134H63.5658V42H63.1077ZM71.0158 36.85H76.374V37.2803H71.0158V36.85ZM71.0991 41.5697H77.193V42H70.6271V32.2831H76.9986V32.7134H71.0991V41.5697ZM81.5651 42V32.2831H84.9383C85.7434 32.2831 86.4329 32.4126 87.0066 32.6717C87.5896 32.9309 88.0339 33.301 88.3392 33.7822C88.6446 34.2542 88.7973 34.828 88.7973 35.5035C88.7973 36.1791 88.6446 36.7575 88.3392 37.2387C88.0339 37.7199 87.5896 38.0901 87.0066 38.3492C86.4329 38.6083 85.7434 38.7379 84.9383 38.7379H81.8289L82.0371 38.5158V42H81.5651ZM88.3948 42L85.8684 38.4741H86.4097L88.95 42H88.3948ZM82.0371 38.5158L81.8289 38.3076H84.9661C86.0581 38.3076 86.891 38.0623 87.4647 37.5719C88.0477 37.0814 88.3392 36.3919 88.3392 35.5035C88.3392 34.6151 88.0477 33.9303 87.4647 33.4491C86.891 32.9586 86.0581 32.7134 84.9661 32.7134H81.8289L82.0371 32.4913V38.5158Z" fill="black"/>
<path d="M154.554 25V11.457H159.255C160.377 11.457 161.338 11.6376 162.138 11.9987C162.95 12.3599 163.57 12.8758 163.995 13.5465C164.421 14.2043 164.634 15.004 164.634 15.9455C164.634 16.8871 164.421 17.6932 163.995 18.3639C163.57 19.0346 162.95 19.5506 162.138 19.9117C161.338 20.2728 160.377 20.4534 159.255 20.4534H154.921L155.212 20.1439V25H154.554ZM155.212 20.1439L154.921 19.8537H159.294C160.816 19.8537 161.977 19.5119 162.776 18.8283C163.589 18.1447 163.995 17.1838 163.995 15.9455C163.995 14.7073 163.589 13.7529 162.776 13.0822C161.977 12.3986 160.816 12.0568 159.294 12.0568H154.921L155.212 11.7472V20.1439ZM172.362 25.058C171.369 25.058 170.492 24.8452 169.731 24.4196C168.97 23.9811 168.37 23.3748 167.931 22.601C167.493 21.8271 167.274 20.95 167.274 19.9697C167.274 18.9766 167.474 18.0995 167.873 17.3385C168.286 16.5775 168.847 15.9778 169.557 15.5392C170.279 15.1007 171.091 14.8814 171.994 14.8814C172.884 14.8814 173.684 15.0943 174.393 15.5199C175.116 15.9455 175.677 16.5388 176.077 17.2998C176.489 18.0479 176.696 18.9121 176.696 19.8924C176.696 19.9182 176.696 19.9504 176.696 19.9891C176.696 20.0149 176.696 20.0407 176.696 20.0665H167.699V19.5441H176.347L176.096 19.8537C176.096 19.0153 175.915 18.2672 175.554 17.6094C175.206 16.9387 174.722 16.4163 174.103 16.0423C173.484 15.6553 172.781 15.4619 171.994 15.4619C171.208 15.4619 170.505 15.6553 169.886 16.0423C169.266 16.4163 168.776 16.9387 168.415 17.6094C168.067 18.2672 167.893 19.0217 167.893 19.873V19.9891C167.893 20.8662 168.086 21.6465 168.473 22.3301C168.86 23.0008 169.389 23.5296 170.06 23.9166C170.73 24.2906 171.498 24.4776 172.362 24.4776C173.02 24.4776 173.639 24.3551 174.219 24.11C174.813 23.865 175.303 23.4909 175.69 22.9879L176.096 23.4135C175.645 23.9553 175.09 24.368 174.432 24.6518C173.787 24.9226 173.097 25.058 172.362 25.058ZM180.711 25V14.9588H189.302V25H188.663V15.3264L188.857 15.5392H181.137L181.35 15.3264V25H180.711ZM198.509 25.058C197.516 25.058 196.639 24.8452 195.878 24.4196C195.117 23.9811 194.517 23.3748 194.079 22.601C193.64 21.8271 193.421 20.95 193.421 19.9697C193.421 18.9766 193.621 18.0995 194.021 17.3385C194.434 16.5775 194.995 15.9778 195.704 15.5392C196.426 15.1007 197.239 14.8814 198.142 14.8814C199.032 14.8814 199.831 15.0943 200.541 15.5199C201.263 15.9455 201.824 16.5388 202.224 17.2998C202.637 18.0479 202.843 18.9121 202.843 19.8924C202.843 19.9182 202.843 19.9504 202.843 19.9891C202.843 20.0149 202.843 20.0407 202.843 20.0665H193.847V19.5441H202.495L202.243 19.8537C202.243 19.0153 202.063 18.2672 201.702 17.6094C201.353 16.9387 200.87 16.4163 200.251 16.0423C199.631 15.6553 198.929 15.4619 198.142 15.4619C197.355 15.4619 196.652 15.6553 196.033 16.0423C195.414 16.4163 194.924 16.9387 194.563 17.6094C194.214 18.2672 194.04 19.0217 194.04 19.873V19.9891C194.04 20.8662 194.234 21.6465 194.621 22.3301C195.007 23.0008 195.536 23.5296 196.207 23.9166C196.878 24.2906 197.645 24.4776 198.509 24.4776C199.167 24.4776 199.786 24.3551 200.367 24.11C200.96 23.865 201.45 23.4909 201.837 22.9879L202.243 23.4135C201.792 23.9553 201.237 24.368 200.579 24.6518C199.935 24.9226 199.245 25.058 198.509 25.058ZM208.166 25V15.3264L208.36 15.5392H204.142V14.9588H212.81V15.5392H208.592L208.805 15.3264V25H208.166ZM215.719 25V14.9588H216.358V23.9746L223.903 14.9588H224.464V25H223.826V15.9842L216.261 25H215.719ZM231.366 25V15.3264L231.56 15.5392H227.342V14.9588H236.01V15.5392H231.792L232.005 15.3264V25H231.366ZM242.317 25.058C241.375 25.058 240.53 24.8452 239.782 24.4196C239.047 23.9811 238.46 23.3748 238.022 22.601C237.596 21.8271 237.383 20.95 237.383 19.9697C237.383 18.9766 237.596 18.0995 238.022 17.3385C238.46 16.5775 239.047 15.9778 239.782 15.5392C240.53 15.1007 241.375 14.8814 242.317 14.8814C243.258 14.8814 244.103 15.1007 244.851 15.5392C245.599 15.9778 246.186 16.5775 246.612 17.3385C247.037 18.0995 247.25 18.9766 247.25 19.9697C247.25 20.95 247.037 21.8271 246.612 22.601C246.186 23.3748 245.599 23.9811 244.851 24.4196C244.103 24.8452 243.258 25.058 242.317 25.058ZM242.317 24.4776C243.142 24.4776 243.877 24.2906 244.522 23.9166C245.18 23.5296 245.69 22.9943 246.051 22.3107C246.425 21.6271 246.612 20.8468 246.612 19.9697C246.612 19.0798 246.425 18.2994 246.051 17.6287C245.69 16.9451 245.18 16.4163 244.522 16.0423C243.877 15.6682 243.142 15.4812 242.317 15.4812C241.504 15.4812 240.775 15.6682 240.13 16.0423C239.486 16.4163 238.97 16.9451 238.583 17.6287C238.209 18.2994 238.022 19.0798 238.022 19.9697C238.022 20.8468 238.209 21.6271 238.583 22.3107C238.97 22.9943 239.486 23.5296 240.13 23.9166C240.775 24.2906 241.504 24.4776 242.317 24.4776ZM256.342 25.058C255.439 25.058 254.626 24.8517 253.904 24.4389C253.182 24.0133 252.608 23.42 252.182 22.659C251.769 21.8851 251.563 20.9951 251.563 19.9891C251.563 18.9701 251.769 18.0802 252.182 17.3192C252.608 16.5453 253.182 15.9455 253.904 15.5199C254.626 15.0943 255.439 14.8814 256.342 14.8814C257.27 14.8814 258.102 15.1007 258.837 15.5392C259.585 15.9778 260.172 16.5775 260.598 17.3385C261.036 18.0995 261.256 18.983 261.256 19.9891C261.256 20.9822 261.036 21.8593 260.598 22.6203C260.172 23.3813 259.585 23.9811 258.837 24.4196C258.102 24.8452 257.27 25.058 256.342 25.058ZM251.389 28.7533V14.9588H252.008V18.48L251.834 20.0084L252.027 21.5369V28.7533H251.389ZM256.322 24.4776C257.135 24.4776 257.864 24.2906 258.508 23.9166C259.166 23.5425 259.682 23.0137 260.056 22.3301C260.43 21.6465 260.617 20.8662 260.617 19.9891C260.617 19.0862 260.43 18.2994 260.056 17.6287C259.682 16.958 259.166 16.4357 258.508 16.0616C257.864 15.6747 257.135 15.4812 256.322 15.4812C255.497 15.4812 254.762 15.6747 254.117 16.0616C253.472 16.4357 252.962 16.958 252.588 17.6287C252.214 18.2994 252.027 19.0862 252.027 19.9891C252.027 20.8662 252.214 21.6465 252.588 22.3301C252.962 23.0137 253.472 23.5425 254.117 23.9166C254.762 24.2906 255.497 24.4776 256.322 24.4776ZM269.297 25.058C268.342 25.058 267.485 24.8452 266.724 24.4196C265.975 23.9811 265.382 23.3813 264.944 22.6203C264.518 21.8464 264.305 20.9629 264.305 19.9697C264.305 18.9766 264.518 18.0995 264.944 17.3385C265.382 16.5646 265.975 15.9649 266.724 15.5392C267.485 15.1007 268.342 14.8814 269.297 14.8814C270.058 14.8814 270.761 15.0298 271.406 15.3264C272.05 15.6102 272.586 16.0358 273.011 16.6033L272.528 17.0096C272.154 16.4808 271.683 16.0939 271.115 15.8488C270.561 15.6037 269.955 15.4812 269.297 15.4812C268.471 15.4812 267.73 15.6682 267.072 16.0423C266.414 16.4163 265.892 16.9451 265.505 17.6287C265.131 18.2994 264.944 19.0798 264.944 19.9697C264.944 20.8597 265.131 21.6465 265.505 22.3301C265.892 23.0008 266.414 23.5296 267.072 23.9166C267.73 24.2906 268.471 24.4776 269.297 24.4776C269.955 24.4776 270.561 24.3551 271.115 24.11C271.683 23.8521 272.154 23.4651 272.528 22.9492L273.011 23.3361C272.586 23.9166 272.05 24.3486 271.406 24.6324C270.761 24.9162 270.058 25.058 269.297 25.058ZM284.267 25L279.798 19.931L280.339 19.6408L285.041 25H284.267ZM276.799 25V14.9588H277.437V25H276.799ZM277.224 20.1826V19.6215H280.32V20.1826H277.224ZM280.378 20.0471L279.778 19.9117L283.996 14.9588H284.731L280.378 20.0471ZM288.342 25V14.9588H288.98V23.9746L296.526 14.9588H297.087V25H296.448V15.9842L288.884 25H288.342ZM302.209 25V14.9588H302.848V23.9746L310.393 14.9588H310.954V25H310.316V15.9842L302.751 25H302.209ZM306.562 13.3337C305.827 13.3337 305.208 13.1338 304.705 12.7339C304.202 12.3212 303.944 11.7666 303.931 11.0701H304.434C304.46 11.6118 304.673 12.0439 305.073 12.3663C305.485 12.6888 305.982 12.85 306.562 12.85C307.156 12.85 307.652 12.6888 308.052 12.3663C308.452 12.0439 308.658 11.6118 308.671 11.0701H309.194C309.181 11.7666 308.923 12.3212 308.42 12.7339C307.917 13.1338 307.298 13.3337 306.562 13.3337ZM154.186 42V31.9588H154.825V41.4389H161.925V31.9588H162.564V42H154.186ZM163.647 44.5538V41.8646L163.86 42H161.925V41.4389H164.266V44.5538H163.647ZM172.079 42.058C171.085 42.058 170.208 41.8452 169.447 41.4196C168.686 40.9811 168.087 40.3748 167.648 39.601C167.21 38.8271 166.99 37.95 166.99 36.9697C166.99 35.9766 167.19 35.0995 167.59 34.3385C168.003 33.5775 168.564 32.9778 169.273 32.5392C169.996 32.1007 170.808 31.8814 171.711 31.8814C172.601 31.8814 173.401 32.0943 174.11 32.5199C174.832 32.9455 175.393 33.5388 175.793 34.2998C176.206 35.0479 176.412 35.9121 176.412 36.8924C176.412 36.9182 176.412 36.9504 176.412 36.9891C176.412 37.0149 176.412 37.0407 176.412 37.0665H167.416V36.5441H176.064L175.813 36.8537C175.813 36.0153 175.632 35.2672 175.271 34.6094C174.923 33.9387 174.439 33.4163 173.82 33.0423C173.201 32.6553 172.498 32.4619 171.711 32.4619C170.924 32.4619 170.221 32.6553 169.602 33.0423C168.983 33.4163 168.493 33.9387 168.132 34.6094C167.783 35.2672 167.609 36.0217 167.609 36.873V36.9891C167.609 37.8662 167.803 38.6465 168.19 39.3301C168.577 40.0008 169.106 40.5296 169.776 40.9166C170.447 41.2906 171.214 41.4776 172.079 41.4776C172.736 41.4776 173.355 41.3551 173.936 41.11C174.529 40.865 175.019 40.4909 175.406 39.9879L175.813 40.4135C175.361 40.9553 174.807 41.368 174.149 41.6518C173.504 41.9226 172.814 42.058 172.079 42.058ZM180.428 42V31.9588H181.067V36.6602H188.302V31.9588H188.941V42H188.302V37.2213H181.067V42H180.428ZM195.867 42V32.3264L196.061 32.5392H191.843V31.9588H200.511V32.5392H196.293L196.506 32.3264V42H195.867ZM208.392 42.058C207.49 42.058 206.677 41.8517 205.955 41.4389C205.232 41.0133 204.658 40.42 204.233 39.659C203.82 38.8851 203.614 37.9951 203.614 36.9891C203.614 35.9701 203.82 35.0802 204.233 34.3192C204.658 33.5453 205.232 32.9455 205.955 32.5199C206.677 32.0943 207.49 31.8814 208.392 31.8814C209.321 31.8814 210.153 32.1007 210.888 32.5392C211.636 32.9778 212.223 33.5775 212.649 34.3385C213.087 35.0995 213.307 35.983 213.307 36.9891C213.307 37.9822 213.087 38.8593 212.649 39.6203C212.223 40.3813 211.636 40.9811 210.888 41.4196C210.153 41.8452 209.321 42.058 208.392 42.058ZM203.44 45.7533V31.9588H204.059V35.48L203.885 37.0084L204.078 38.5369V45.7533H203.44ZM208.373 41.4776C209.186 41.4776 209.914 41.2906 210.559 40.9166C211.217 40.5425 211.733 40.0137 212.107 39.3301C212.481 38.6465 212.668 37.8662 212.668 36.9891C212.668 36.0862 212.481 35.2994 212.107 34.6287C211.733 33.958 211.217 33.4357 210.559 33.0616C209.914 32.6747 209.186 32.4812 208.373 32.4812C207.548 32.4812 206.812 32.6747 206.167 33.0616C205.523 33.4357 205.013 33.958 204.639 34.6287C204.265 35.2994 204.078 36.0862 204.078 36.9891C204.078 37.8662 204.265 38.6465 204.639 39.3301C205.013 40.0137 205.523 40.5425 206.167 40.9166C206.812 41.2906 207.548 41.4776 208.373 41.4776Z" fill="black"/>
<path d="M132.5 0.5V49.5" stroke="black"/>
</svg>
