<svg width="318" height="50" viewBox="0 0 318 50" fill="none" xmlns="http://www.w3.org/2000/svg">
<path d="M2.22918 27V12.1388H3.97006L10.6364 23.3696H9.70224L16.2836 12.1388H18.0245L18.0457 27H16.0076L15.9864 15.3446H16.4747L10.6151 25.1954H9.63855L3.73653 15.3446H4.26729V27H2.22918ZM22.803 27L29.533 12.1388H31.6348L38.386 27H36.1568L30.1487 13.3277H30.9979L24.9897 27H22.803ZM25.6691 23.2847L26.2423 21.5863H34.607L35.2227 23.2847H25.6691ZM49.652 27.1698C48.5056 27.1698 47.4511 26.9858 46.4887 26.6179C45.5262 26.2357 44.6912 25.705 43.9835 25.0256C43.2758 24.3321 42.7238 23.5253 42.3275 22.6053C41.9312 21.6854 41.7331 20.6734 41.7331 19.5694C41.7331 18.4654 41.9312 17.4534 42.3275 16.5335C42.7238 15.6135 43.2758 14.8138 43.9835 14.1344C44.7053 13.4409 45.5475 12.9102 46.5099 12.5422C47.4723 12.16 48.5339 11.969 49.6944 11.969C50.8692 11.969 51.9449 12.16 52.9215 12.5422C53.898 12.9243 54.726 13.4975 55.4054 14.2618L54.0891 15.5781C53.4805 14.9837 52.8153 14.552 52.0935 14.2831C51.3858 14 50.6144 13.8585 49.7794 13.8585C48.9302 13.8585 48.1376 14 47.4016 14.2831C46.6797 14.5661 46.0499 14.9624 45.5121 15.472C44.9884 15.9815 44.578 16.5901 44.2807 17.2978C43.9977 17.9913 43.8561 18.7485 43.8561 19.5694C43.8561 20.3762 43.9977 21.1334 44.2807 21.841C44.578 22.5346 44.9884 23.1432 45.5121 23.6668C46.0499 24.1764 46.6797 24.5727 47.4016 24.8557C48.1234 25.1388 48.9089 25.2803 49.7581 25.2803C50.5507 25.2803 51.308 25.16 52.0298 24.9194C52.7658 24.6647 53.4451 24.2471 54.0679 23.6668L55.278 25.2803C54.542 25.9031 53.6787 26.3772 52.6879 26.7028C51.7113 27.0142 50.6993 27.1698 49.652 27.1698ZM53.2399 25.0044V19.4845H55.278V25.2803L53.2399 25.0044ZM61.8904 27V12.1388H64.0134V27H61.8904ZM75.3413 27.1698C74.209 27.1698 73.1263 27 72.0931 26.6603C71.0599 26.3065 70.246 25.8536 69.6516 25.3016L70.4371 23.6456C71.0032 24.141 71.7251 24.5514 72.6026 24.877C73.4801 25.2025 74.393 25.3653 75.3413 25.3653C76.2047 25.3653 76.9053 25.2662 77.4431 25.068C77.9809 24.8699 78.3772 24.601 78.632 24.2613C78.8868 23.9075 79.0141 23.5112 79.0141 23.0724C79.0141 22.5629 78.8443 22.1524 78.5046 21.841C78.1791 21.5297 77.7474 21.282 77.2096 21.098C76.6859 20.8998 76.1056 20.73 75.4687 20.5885C74.8318 20.4469 74.1878 20.2842 73.5367 20.1002C72.8998 19.902 72.3124 19.6543 71.7746 19.3571C71.2509 19.0599 70.8263 18.6636 70.5008 18.1682C70.1753 17.6587 70.0125 17.0076 70.0125 16.215C70.0125 15.4507 70.2106 14.7501 70.6069 14.1132C71.0174 13.4622 71.6401 12.9456 72.4752 12.5634C73.3244 12.1671 74.4001 11.969 75.7022 11.969C76.5656 11.969 77.4219 12.0822 78.2711 12.3086C79.1203 12.5351 79.8563 12.8606 80.479 13.2852L79.7784 14.9837C79.1415 14.5591 78.4692 14.2548 77.7615 14.0708C77.0539 13.8726 76.3674 13.7735 75.7022 13.7735C74.8671 13.7735 74.1807 13.8797 73.6429 14.092C73.105 14.3043 72.7087 14.5874 72.454 14.9412C72.2134 15.295 72.0931 15.6913 72.0931 16.1301C72.0931 16.6538 72.2558 17.0713 72.5814 17.3827C72.921 17.6941 73.3527 17.9417 73.8764 18.1257C74.4142 18.3097 75.0016 18.4796 75.6385 18.6353C76.2754 18.7768 76.9123 18.9396 77.5492 19.1236C78.2003 19.3076 78.7877 19.5482 79.3114 19.8454C79.8492 20.1426 80.2809 20.5389 80.6064 21.0343C80.9319 21.5297 81.0947 22.1666 81.0947 22.945C81.0947 23.6952 80.8895 24.3958 80.479 25.0468C80.0686 25.6837 79.4317 26.2003 78.5683 26.5966C77.7191 26.9788 76.6434 27.1698 75.3413 27.1698ZM89.4876 27V13.9858H84.3924V12.1388H96.6847V13.9858H91.5894V27H89.4876ZM101.545 27V12.1388H107.34C108.643 12.1388 109.754 12.344 110.674 12.7545C111.594 13.1649 112.301 13.7594 112.797 14.5378C113.292 15.3163 113.54 16.2433 113.54 17.319C113.54 18.3947 113.292 19.3217 112.797 20.1002C112.301 20.8644 111.594 21.4518 110.674 21.8623C109.754 22.2727 108.643 22.4779 107.34 22.4779H102.712L103.668 21.5014V27H101.545ZM111.48 27L107.701 21.6075H109.973L113.794 27H111.48ZM103.668 21.7137L102.712 20.6734H107.277C108.636 20.6734 109.662 20.3832 110.355 19.8029C111.063 19.2085 111.417 18.3805 111.417 17.319C111.417 16.2575 111.063 15.4366 110.355 14.8563C109.662 14.276 108.636 13.9858 107.277 13.9858H102.712L103.668 12.9243V21.7137Z" fill="black"/>
<path d="M29.8024 42.0555C29.0898 42.0555 28.4281 41.9352 27.8174 41.6946C27.2066 41.4447 26.6745 41.0977 26.221 40.6535C25.7676 40.2093 25.4159 39.6911 25.166 39.0988C24.9162 38.4973 24.7912 37.8449 24.7912 37.1415C24.7912 36.4382 24.9162 35.7904 25.166 35.1981C25.4159 34.5966 25.7676 34.0738 26.221 33.6296C26.6745 33.1853 27.2066 32.8429 27.8174 32.6023C28.4281 32.3525 29.0898 32.2275 29.8024 32.2275C30.4594 32.2275 31.0795 32.334 31.6625 32.5468C32.2455 32.7597 32.7499 33.0836 33.1756 33.5185L32.8841 33.8239C32.4491 33.4075 31.9725 33.1113 31.4543 32.9355C30.9453 32.7504 30.3993 32.6579 29.8163 32.6579C29.1685 32.6579 28.567 32.7735 28.0117 33.0049C27.4565 33.227 26.9706 33.5416 26.5542 33.9488C26.147 34.356 25.8277 34.8326 25.5964 35.3786C25.3743 35.9153 25.2632 36.503 25.2632 37.1415C25.2632 37.7801 25.3743 38.3723 25.5964 38.9183C25.8277 39.4551 26.147 39.9271 26.5542 40.3342C26.9706 40.7414 27.4565 41.0607 28.0117 41.2921C28.567 41.5142 29.1685 41.6252 29.8163 41.6252C30.3993 41.6252 30.9453 41.5373 31.4543 41.3615C31.9725 41.1764 32.4491 40.871 32.8841 40.4453L33.1756 40.7507C32.7499 41.1856 32.2455 41.5142 31.6625 41.7363C31.0795 41.9491 30.4594 42.0555 29.8024 42.0555ZM37.7271 36.85H43.0853V37.2803H37.7271V36.85ZM37.8104 41.5697H43.9043V42H37.3384V32.2831H43.71V32.7134H37.8104V41.5697ZM48.2765 42V32.2831H48.6652L55.8002 41.4447H55.5642V32.2831H56.0362V42H55.6475L48.5125 32.8383H48.7485V42H48.2765ZM63.1077 42V32.7134H59.5402V32.2831H67.1333V32.7134H63.5658V42H63.1077ZM71.0158 36.85H76.374V37.2803H71.0158V36.85ZM71.0991 41.5697H77.193V42H70.6271V32.2831H76.9986V32.7134H71.0991V41.5697ZM81.5651 42V32.2831H84.9383C85.7434 32.2831 86.4329 32.4126 87.0066 32.6717C87.5896 32.9309 88.0339 33.301 88.3392 33.7822C88.6446 34.2542 88.7973 34.828 88.7973 35.5035C88.7973 36.1791 88.6446 36.7575 88.3392 37.2387C88.0339 37.7199 87.5896 38.0901 87.0066 38.3492C86.4329 38.6083 85.7434 38.7379 84.9383 38.7379H81.8289L82.0371 38.5158V42H81.5651ZM88.3948 42L85.8684 38.4741H86.4097L88.95 42H88.3948ZM82.0371 38.5158L81.8289 38.3076H84.9661C86.0581 38.3076 86.891 38.0623 87.4647 37.5719C88.0477 37.0814 88.3392 36.3919 88.3392 35.5035C88.3392 34.6151 88.0477 33.9303 87.4647 33.4491C86.891 32.9586 86.0581 32.7134 84.9661 32.7134H81.8289L82.0371 32.4913V38.5158Z" fill="black"/>
<path d="M154.283 25V11.457H159.352C160.5 11.457 161.487 11.644 162.312 12.0181C163.138 12.3792 163.77 12.908 164.208 13.6045C164.659 14.2881 164.885 15.1201 164.885 16.1003C164.885 17.0548 164.659 17.8803 164.208 18.5767C163.77 19.2603 163.138 19.7892 162.312 20.1632C161.487 20.5373 160.5 20.7243 159.352 20.7243H155.076L155.715 20.0471V25H154.283ZM155.715 20.1632L155.076 19.4667H159.313C160.668 19.4667 161.693 19.1765 162.389 18.5961C163.099 18.0028 163.454 17.1709 163.454 16.1003C163.454 15.0169 163.099 14.1785 162.389 13.5852C161.693 12.9919 160.668 12.6952 159.313 12.6952H155.076L155.715 12.0181V20.1632ZM172.552 25.0967C171.495 25.0967 170.566 24.8775 169.766 24.4389C168.967 23.9875 168.341 23.3748 167.89 22.601C167.438 21.8142 167.212 20.9178 167.212 19.9117C167.212 18.9056 167.425 18.0157 167.851 17.2418C168.289 16.4679 168.883 15.8617 169.631 15.4232C170.392 14.9717 171.243 14.746 172.185 14.746C173.139 14.746 173.984 14.9653 174.719 15.4038C175.467 15.8295 176.054 16.4357 176.48 17.2224C176.905 17.9963 177.118 18.8928 177.118 19.9117C177.118 19.9762 177.112 20.0471 177.099 20.1245C177.099 20.189 177.099 20.2599 177.099 20.3373H168.257V19.3119H176.364L175.822 19.7182C175.822 18.983 175.661 18.3317 175.338 17.7642C175.029 17.1838 174.603 16.7323 174.061 16.4099C173.52 16.0874 172.894 15.9262 172.185 15.9262C171.488 15.9262 170.863 16.0874 170.308 16.4099C169.753 16.7323 169.321 17.1838 169.012 17.7642C168.702 18.3446 168.547 19.0088 168.547 19.7569V19.9697C168.547 20.7436 168.715 21.4272 169.05 22.0205C169.399 22.601 169.876 23.0588 170.482 23.3942C171.101 23.7166 171.804 23.8779 172.591 23.8779C173.21 23.8779 173.784 23.7682 174.313 23.549C174.855 23.3297 175.319 22.9943 175.706 22.5429L176.48 23.4329C176.028 23.9746 175.461 24.3873 174.777 24.6711C174.106 24.9549 173.365 25.0967 172.552 25.0967ZM180.933 25V14.8427H190.065V25H188.691V15.6747L189.039 16.0423H181.958L182.306 15.6747V25H180.933ZM199.096 25.0967C198.039 25.0967 197.11 24.8775 196.31 24.4389C195.511 23.9875 194.885 23.3748 194.434 22.601C193.982 21.8142 193.757 20.9178 193.757 19.9117C193.757 18.9056 193.969 18.0157 194.395 17.2418C194.834 16.4679 195.427 15.8617 196.175 15.4232C196.936 14.9717 197.787 14.746 198.729 14.746C199.683 14.746 200.528 14.9653 201.263 15.4038C202.011 15.8295 202.598 16.4357 203.024 17.2224C203.449 17.9963 203.662 18.8928 203.662 19.9117C203.662 19.9762 203.656 20.0471 203.643 20.1245C203.643 20.189 203.643 20.2599 203.643 20.3373H194.801V19.3119H202.908L202.366 19.7182C202.366 18.983 202.205 18.3317 201.882 17.7642C201.573 17.1838 201.147 16.7323 200.605 16.4099C200.064 16.0874 199.438 15.9262 198.729 15.9262C198.032 15.9262 197.407 16.0874 196.852 16.4099C196.298 16.7323 195.865 17.1838 195.556 17.7642C195.246 18.3446 195.092 19.0088 195.092 19.7569V19.9697C195.092 20.7436 195.259 21.4272 195.595 22.0205C195.943 22.601 196.42 23.0588 197.026 23.3942C197.645 23.7166 198.348 23.8779 199.135 23.8779C199.754 23.8779 200.328 23.7682 200.857 23.549C201.399 23.3297 201.863 22.9943 202.25 22.5429L203.024 23.4329C202.572 23.9746 202.005 24.3873 201.321 24.6711C200.651 24.9549 199.909 25.0967 199.096 25.0967ZM208.958 25V15.6747L209.306 16.0423H205.108V14.8427H214.182V16.0423H209.984L210.332 15.6747V25H208.958ZM216.942 25V14.8427H218.316V22.9105L225.106 14.8427H226.325V25H224.952V16.9129L218.18 25H216.942ZM232.971 25V15.6747L233.319 16.0423H229.12V14.8427H238.194V16.0423H233.996L234.344 15.6747V25H232.971ZM244.661 25.0967C243.681 25.0967 242.797 24.8775 242.01 24.4389C241.236 23.9875 240.624 23.3748 240.172 22.601C239.721 21.8142 239.495 20.9178 239.495 19.9117C239.495 18.8928 239.721 17.9963 240.172 17.2224C240.624 16.4486 241.236 15.8424 242.01 15.4038C242.784 14.9653 243.668 14.746 244.661 14.746C245.667 14.746 246.557 14.9653 247.331 15.4038C248.118 15.8424 248.73 16.4486 249.169 17.2224C249.62 17.9963 249.846 18.8928 249.846 19.9117C249.846 20.9178 249.62 21.8142 249.169 22.601C248.73 23.3748 248.118 23.9875 247.331 24.4389C246.544 24.8775 245.654 25.0967 244.661 25.0967ZM244.661 23.8779C245.396 23.8779 246.047 23.7166 246.615 23.3942C247.182 23.0588 247.627 22.5945 247.95 22.0012C248.285 21.395 248.453 20.6985 248.453 19.9117C248.453 19.112 248.285 18.4155 247.95 17.8222C247.627 17.2289 247.182 16.771 246.615 16.4486C246.047 16.1132 245.403 15.9455 244.68 15.9455C243.958 15.9455 243.313 16.1132 242.746 16.4486C242.178 16.771 241.727 17.2289 241.391 17.8222C241.056 18.4155 240.888 19.112 240.888 19.9117C240.888 20.6985 241.056 21.395 241.391 22.0012C241.727 22.5945 242.178 23.0588 242.746 23.3942C243.313 23.7166 243.951 23.8779 244.661 23.8779ZM258.799 25.0967C257.922 25.0967 257.128 24.8968 256.419 24.497C255.71 24.0842 255.142 23.4974 254.716 22.7364C254.304 21.9625 254.097 21.0209 254.097 19.9117C254.097 18.8025 254.304 17.8674 254.716 17.1064C255.129 16.3325 255.69 15.7456 256.4 15.3458C257.109 14.9459 257.909 14.746 258.799 14.746C259.766 14.746 260.63 14.9653 261.391 15.4038C262.165 15.8295 262.771 16.4357 263.21 17.2224C263.648 17.9963 263.868 18.8928 263.868 19.9117C263.868 20.9435 263.648 21.8464 263.21 22.6203C262.771 23.3942 262.165 24.0004 261.391 24.4389C260.63 24.8775 259.766 25.0967 258.799 25.0967ZM253.556 28.7533V14.8427H254.871V17.8996L254.736 19.931L254.929 21.9818V28.7533H253.556ZM258.702 23.8779C259.424 23.8779 260.069 23.7166 260.637 23.3942C261.204 23.0588 261.656 22.5945 261.991 22.0012C262.326 21.395 262.494 20.6985 262.494 19.9117C262.494 19.1249 262.326 18.4349 261.991 17.8416C261.656 17.2482 261.204 16.7839 260.637 16.4486C260.069 16.1132 259.424 15.9455 258.702 15.9455C257.98 15.9455 257.328 16.1132 256.748 16.4486C256.18 16.7839 255.729 17.2482 255.394 17.8416C255.071 18.4349 254.91 19.1249 254.91 19.9117C254.91 20.6985 255.071 21.395 255.394 22.0012C255.729 22.5945 256.18 23.0588 256.748 23.3942C257.328 23.7166 257.98 23.8779 258.702 23.8779ZM271.849 25.0967C270.843 25.0967 269.94 24.8775 269.141 24.4389C268.354 23.9875 267.735 23.3748 267.283 22.601C266.832 21.8142 266.606 20.9178 266.606 19.9117C266.606 18.8928 266.832 17.9963 267.283 17.2224C267.735 16.4486 268.354 15.8424 269.141 15.4038C269.94 14.9653 270.843 14.746 271.849 14.746C272.713 14.746 273.494 14.9137 274.19 15.249C274.887 15.5844 275.435 16.0874 275.835 16.7581L274.809 17.4546C274.461 16.9387 274.029 16.5582 273.513 16.3131C272.997 16.0681 272.436 15.9455 271.83 15.9455C271.108 15.9455 270.456 16.1132 269.876 16.4486C269.295 16.771 268.837 17.2289 268.502 17.8222C268.167 18.4155 267.999 19.112 267.999 19.9117C267.999 20.7114 268.167 21.4079 268.502 22.0012C268.837 22.5945 269.295 23.0588 269.876 23.3942C270.456 23.7166 271.108 23.8779 271.83 23.8779C272.436 23.8779 272.997 23.7553 273.513 23.5103C274.029 23.2652 274.461 22.8912 274.809 22.3881L275.835 23.0846C275.435 23.7424 274.887 24.2455 274.19 24.5937C273.494 24.9291 272.713 25.0967 271.849 25.0967ZM286.717 25L282.538 19.9697L283.68 19.2926L288.342 25H286.717ZM279.268 25V14.8427H280.642V25H279.268ZM280.216 20.4728V19.2926H283.486V20.4728H280.216ZM283.796 20.0665L282.519 19.873L286.562 14.8427H288.052L283.796 20.0665ZM291.284 25V14.8427H292.658V22.9105L299.449 14.8427H300.667V25H299.294V16.9129L292.522 25H291.284ZM305.378 25V14.8427H306.752V22.9105L313.542 14.8427H314.761V25H313.388V16.9129L306.616 25H305.378ZM309.983 13.3724C309.131 13.3724 308.441 13.1595 307.912 12.7339C307.397 12.2954 307.126 11.6698 307.1 10.8572H308.087C308.099 11.3732 308.28 11.7795 308.628 12.0761C308.977 12.3728 309.428 12.5211 309.983 12.5211C310.537 12.5211 310.989 12.3728 311.337 12.0761C311.698 11.7795 311.885 11.3732 311.898 10.8572H312.885C312.872 11.6698 312.601 12.2954 312.072 12.7339C311.543 13.1595 310.847 13.3724 309.983 13.3724ZM153.954 42V31.8427H155.328V40.8005H161.538V31.8427H162.912V42H153.954ZM163.26 44.4571V41.8839L163.608 42H161.538V40.8005H164.556V44.4571H163.26ZM172.307 42.0967C171.249 42.0967 170.32 41.8775 169.521 41.4389C168.721 40.9875 168.095 40.3748 167.644 39.601C167.193 38.8142 166.967 37.9178 166.967 36.9117C166.967 35.9056 167.18 35.0157 167.605 34.2418C168.044 33.4679 168.637 32.8617 169.385 32.4232C170.146 31.9717 170.997 31.746 171.939 31.746C172.894 31.746 173.738 31.9653 174.474 32.4038C175.222 32.8295 175.808 33.4357 176.234 34.2224C176.66 34.9963 176.873 35.8928 176.873 36.9117C176.873 36.9762 176.866 37.0471 176.853 37.1245C176.853 37.189 176.853 37.2599 176.853 37.3373H168.012V36.3119H176.118L175.576 36.7182C175.576 35.983 175.415 35.3317 175.093 34.7642C174.783 34.1838 174.357 33.7323 173.816 33.4099C173.274 33.0874 172.648 32.9262 171.939 32.9262C171.243 32.9262 170.617 33.0874 170.062 33.4099C169.508 33.7323 169.076 34.1838 168.766 34.7642C168.457 35.3446 168.302 36.0088 168.302 36.7569V36.9697C168.302 37.7436 168.469 38.4272 168.805 39.0205C169.153 39.601 169.63 40.0588 170.236 40.3942C170.856 40.7166 171.559 40.8779 172.345 40.8779C172.964 40.8779 173.538 40.7682 174.067 40.549C174.609 40.3297 175.073 39.9943 175.46 39.5429L176.234 40.4329C175.783 40.9746 175.215 41.3873 174.532 41.6711C173.861 41.9549 173.119 42.0967 172.307 42.0967ZM180.687 42V31.8427H182.061V36.3313H188.465V31.8427H189.838V42H188.465V37.5115H182.061V42H180.687ZM196.451 42V32.6747L196.8 33.0423H192.601V31.8427H201.675V33.0423H197.477L197.825 32.6747V42H196.451ZM209.678 42.0967C208.801 42.0967 208.008 41.8968 207.298 41.497C206.589 41.0842 206.021 40.4974 205.596 39.7364C205.183 38.9625 204.977 38.0209 204.977 36.9117C204.977 35.8025 205.183 34.8674 205.596 34.1064C206.009 33.3325 206.57 32.7456 207.279 32.3458C207.988 31.9459 208.788 31.746 209.678 31.746C210.645 31.746 211.51 31.9653 212.271 32.4038C213.044 32.8295 213.651 33.4357 214.089 34.2224C214.528 34.9963 214.747 35.8928 214.747 36.9117C214.747 37.9435 214.528 38.8464 214.089 39.6203C213.651 40.3942 213.044 41.0004 212.271 41.4389C211.51 41.8775 210.645 42.0967 209.678 42.0967ZM204.435 45.7533V31.8427H205.751V34.8996L205.615 36.931L205.809 38.9818V45.7533H204.435ZM209.581 40.8779C210.304 40.8779 210.949 40.7166 211.516 40.3942C212.084 40.0588 212.535 39.5945 212.87 39.0012C213.206 38.395 213.373 37.6985 213.373 36.9117C213.373 36.1249 213.206 35.4349 212.87 34.8416C212.535 34.2482 212.084 33.7839 211.516 33.4486C210.949 33.1132 210.304 32.9455 209.581 32.9455C208.859 32.9455 208.208 33.1132 207.627 33.4486C207.06 33.7839 206.608 34.2482 206.273 34.8416C205.951 35.4349 205.789 36.1249 205.789 36.9117C205.789 37.6985 205.951 38.395 206.273 39.0012C206.608 39.5945 207.06 40.0588 207.627 40.3942C208.208 40.7166 208.859 40.8779 209.581 40.8779Z" fill="black"/>
<path d="M132.5 0.5V49.5" stroke="black"/>
<path d="M22.6744 16.5217L15.5516 18.6444C15.3764 18.6966 15.1866 18.6577 15.0461 18.5408L9.33224 13.7876C9.17738 13.6588 9.10596 13.4552 9.1464 13.2579L9.53797 11.3471L9.81203 10.0097C9.89492 9.60516 10.3793 9.43524 10.6967 9.69931L15.9606 14.0782C16.1011 14.1951 16.2909 14.234 16.4661 14.1817L23.028 12.2263C23.4237 12.1083 23.8022 12.4551 23.7193 12.8596L23.0537 16.1078C23.0132 16.3051 22.8675 16.4642 22.6744 16.5217Z" fill="#191919"/>
<path d="M10.1278 8.46894L16.0931 13.4314C16.2337 13.5483 16.4234 13.5872 16.5986 13.535L24.035 11.3189L29.9127 9.56728C30.3592 9.43422 30.4303 8.86542 30.0168 8.65063C28.2888 7.7529 24.369 5.99568 18.1417 4.71956C11.9144 3.44344 7.61949 3.51729 5.6776 3.66296C5.21299 3.69781 5.05459 4.24871 5.41277 4.54667L10.1278 8.46894Z" fill="#191919"/>
<path d="M22.6744 16.5217L15.5516 18.6444C15.3764 18.6966 15.1866 18.6577 15.0461 18.5408L9.33224 13.7876C9.17738 13.6588 9.10596 13.4552 9.1464 13.2579L9.53797 11.3471L9.81203 10.0097C9.89492 9.60516 10.3793 9.43524 10.6967 9.69931L15.9606 14.0782C16.1011 14.1951 16.2909 14.234 16.4661 14.1817L23.028 12.2263C23.4237 12.1083 23.8022 12.4551 23.7193 12.8596L23.0537 16.1078C23.0132 16.3051 22.8675 16.4642 22.6744 16.5217Z" stroke="black" stroke-width="0.0455333"/>
<path d="M10.1278 8.46894L16.0931 13.4314C16.2337 13.5483 16.4234 13.5872 16.5986 13.535L24.035 11.3189L29.9127 9.56728C30.3592 9.43422 30.4303 8.86542 30.0168 8.65063C28.2888 7.7529 24.369 5.99568 18.1417 4.71956C11.9144 3.44344 7.61949 3.51729 5.6776 3.66296C5.21299 3.69781 5.05459 4.24871 5.41277 4.54667L10.1278 8.46894Z" stroke="black" stroke-width="0.0455333"/>
<path d="M17.6289 7.33351C17.6289 7.33351 23.305 8.30467 25.0856 11.1036C25.2942 11.4316 24.8726 13.4369 24.8726 13.4369" stroke="#F1AD2D" stroke-width="0.242188"/>
<path d="M24.8872 13.3751C24.9868 13.3955 25.065 13.4829 25.109 13.611C25.1528 13.7387 25.1623 13.9051 25.1265 14.0801C25.0906 14.2553 25.0164 14.4052 24.9257 14.5055C24.8348 14.606 24.7287 14.6555 24.629 14.6351C24.5295 14.6145 24.4521 14.5273 24.4081 14.3994C24.3642 14.2715 24.3549 14.1045 24.3908 13.9293C24.4267 13.7544 24.5009 13.6051 24.5914 13.5049C24.6822 13.4046 24.7876 13.3549 24.8872 13.3751Z" fill="#F1AD2D" stroke="#F1AD2D" stroke-width="0.0186299"/>
<ellipse cx="17.6252" cy="7.30534" rx="0.393944" ry="0.223559" transform="rotate(11.5809 17.6252 7.30534)" fill="#7A7A7A"/>
<path d="M9.08062 13.5784L15.046 18.5408C15.1865 18.6577 15.3763 18.6966 15.5515 18.6444L22.6743 16.5217C22.8674 16.4642 23.0131 16.3051 23.0536 16.1078L23.7192 12.8596C23.8021 12.4551 23.4236 12.1083 23.0279 12.2263L16.466 14.1817C16.2908 14.234 16.101 14.1951 15.9605 14.0782L9.99512 9.11574" stroke="black" stroke-width="0.0455333"/>
</svg>
