<svg width="347" height="50" viewBox="0 0 347 50" fill="none" xmlns="http://www.w3.org/2000/svg">
<path d="M2.22918 27V12.1388H3.97006L10.6364 23.3696H9.70224L16.2836 12.1388H18.0245L18.0457 27H16.0076L15.9864 15.3446H16.4747L10.6151 25.1954H9.63855L3.73653 15.3446H4.26729V27H2.22918ZM22.803 27L29.533 12.1388H31.6348L38.386 27H36.1568L30.1487 13.3277H30.9979L24.9897 27H22.803ZM25.6691 23.2847L26.2423 21.5863H34.607L35.2227 23.2847H25.6691ZM49.652 27.1698C48.5056 27.1698 47.4511 26.9858 46.4887 26.6179C45.5262 26.2357 44.6912 25.705 43.9835 25.0256C43.2758 24.3321 42.7238 23.5253 42.3275 22.6053C41.9312 21.6854 41.7331 20.6734 41.7331 19.5694C41.7331 18.4654 41.9312 17.4534 42.3275 16.5335C42.7238 15.6135 43.2758 14.8138 43.9835 14.1344C44.7053 13.4409 45.5475 12.9102 46.5099 12.5422C47.4723 12.16 48.5339 11.969 49.6944 11.969C50.8692 11.969 51.9449 12.16 52.9215 12.5422C53.898 12.9243 54.726 13.4975 55.4054 14.2618L54.0891 15.5781C53.4805 14.9837 52.8153 14.552 52.0935 14.2831C51.3858 14 50.6144 13.8585 49.7794 13.8585C48.9302 13.8585 48.1376 14 47.4016 14.2831C46.6797 14.5661 46.0499 14.9624 45.5121 15.472C44.9884 15.9815 44.578 16.5901 44.2807 17.2978C43.9977 17.9913 43.8561 18.7485 43.8561 19.5694C43.8561 20.3762 43.9977 21.1334 44.2807 21.841C44.578 22.5346 44.9884 23.1432 45.5121 23.6668C46.0499 24.1764 46.6797 24.5727 47.4016 24.8557C48.1234 25.1388 48.9089 25.2803 49.7581 25.2803C50.5507 25.2803 51.308 25.16 52.0298 24.9194C52.7658 24.6647 53.4451 24.2471 54.0679 23.6668L55.278 25.2803C54.542 25.9031 53.6787 26.3772 52.6879 26.7028C51.7113 27.0142 50.6993 27.1698 49.652 27.1698ZM53.2399 25.0044V19.4845H55.278V25.2803L53.2399 25.0044ZM61.8904 27V12.1388H64.0134V27H61.8904ZM75.3413 27.1698C74.209 27.1698 73.1263 27 72.0931 26.6603C71.0599 26.3065 70.246 25.8536 69.6516 25.3016L70.4371 23.6456C71.0032 24.141 71.7251 24.5514 72.6026 24.877C73.4801 25.2025 74.393 25.3653 75.3413 25.3653C76.2047 25.3653 76.9053 25.2662 77.4431 25.068C77.9809 24.8699 78.3772 24.601 78.632 24.2613C78.8868 23.9075 79.0141 23.5112 79.0141 23.0724C79.0141 22.5629 78.8443 22.1524 78.5046 21.841C78.1791 21.5297 77.7474 21.282 77.2096 21.098C76.6859 20.8998 76.1056 20.73 75.4687 20.5885C74.8318 20.4469 74.1878 20.2842 73.5367 20.1002C72.8998 19.902 72.3124 19.6543 71.7746 19.3571C71.2509 19.0599 70.8263 18.6636 70.5008 18.1682C70.1753 17.6587 70.0125 17.0076 70.0125 16.215C70.0125 15.4507 70.2106 14.7501 70.6069 14.1132C71.0174 13.4622 71.6401 12.9456 72.4752 12.5634C73.3244 12.1671 74.4001 11.969 75.7022 11.969C76.5656 11.969 77.4219 12.0822 78.2711 12.3086C79.1203 12.5351 79.8563 12.8606 80.479 13.2852L79.7784 14.9837C79.1415 14.5591 78.4692 14.2548 77.7615 14.0708C77.0539 13.8726 76.3674 13.7735 75.7022 13.7735C74.8671 13.7735 74.1807 13.8797 73.6429 14.092C73.105 14.3043 72.7087 14.5874 72.454 14.9412C72.2134 15.295 72.0931 15.6913 72.0931 16.1301C72.0931 16.6538 72.2558 17.0713 72.5814 17.3827C72.921 17.6941 73.3527 17.9417 73.8764 18.1257C74.4142 18.3097 75.0016 18.4796 75.6385 18.6353C76.2754 18.7768 76.9123 18.9396 77.5492 19.1236C78.2003 19.3076 78.7877 19.5482 79.3114 19.8454C79.8492 20.1426 80.2809 20.5389 80.6064 21.0343C80.9319 21.5297 81.0947 22.1666 81.0947 22.945C81.0947 23.6952 80.8895 24.3958 80.479 25.0468C80.0686 25.6837 79.4317 26.2003 78.5683 26.5966C77.7191 26.9788 76.6434 27.1698 75.3413 27.1698ZM89.4876 27V13.9858H84.3924V12.1388H96.6847V13.9858H91.5894V27H89.4876ZM101.545 27V12.1388H107.34C108.643 12.1388 109.754 12.344 110.674 12.7545C111.594 13.1649 112.301 13.7594 112.797 14.5378C113.292 15.3163 113.54 16.2433 113.54 17.319C113.54 18.3947 113.292 19.3217 112.797 20.1002C112.301 20.8644 111.594 21.4518 110.674 21.8623C109.754 22.2727 108.643 22.4779 107.34 22.4779H102.712L103.668 21.5014V27H101.545ZM111.48 27L107.701 21.6075H109.973L113.794 27H111.48ZM103.668 21.7137L102.712 20.6734H107.277C108.636 20.6734 109.662 20.3832 110.355 19.8029C111.063 19.2085 111.417 18.3805 111.417 17.319C111.417 16.2575 111.063 15.4366 110.355 14.8563C109.662 14.276 108.636 13.9858 107.277 13.9858H102.712L103.668 12.9243V21.7137Z" fill="black"/>
<path d="M29.8024 42.0555C29.0898 42.0555 28.4281 41.9352 27.8174 41.6946C27.2066 41.4447 26.6745 41.0977 26.221 40.6535C25.7676 40.2093 25.4159 39.6911 25.166 39.0988C24.9162 38.4973 24.7912 37.8449 24.7912 37.1415C24.7912 36.4382 24.9162 35.7904 25.166 35.1981C25.4159 34.5966 25.7676 34.0738 26.221 33.6296C26.6745 33.1853 27.2066 32.8429 27.8174 32.6023C28.4281 32.3525 29.0898 32.2275 29.8024 32.2275C30.4594 32.2275 31.0795 32.334 31.6625 32.5468C32.2455 32.7597 32.7499 33.0836 33.1756 33.5185L32.8841 33.8239C32.4491 33.4075 31.9725 33.1113 31.4543 32.9355C30.9453 32.7504 30.3993 32.6579 29.8163 32.6579C29.1685 32.6579 28.567 32.7735 28.0117 33.0049C27.4565 33.227 26.9706 33.5416 26.5542 33.9488C26.147 34.356 25.8277 34.8326 25.5964 35.3786C25.3743 35.9153 25.2632 36.503 25.2632 37.1415C25.2632 37.7801 25.3743 38.3723 25.5964 38.9183C25.8277 39.4551 26.147 39.9271 26.5542 40.3342C26.9706 40.7414 27.4565 41.0607 28.0117 41.2921C28.567 41.5142 29.1685 41.6252 29.8163 41.6252C30.3993 41.6252 30.9453 41.5373 31.4543 41.3615C31.9725 41.1764 32.4491 40.871 32.8841 40.4453L33.1756 40.7507C32.7499 41.1856 32.2455 41.5142 31.6625 41.7363C31.0795 41.9491 30.4594 42.0555 29.8024 42.0555ZM37.7271 36.85H43.0853V37.2803H37.7271V36.85ZM37.8104 41.5697H43.9043V42H37.3384V32.2831H43.71V32.7134H37.8104V41.5697ZM48.2765 42V32.2831H48.6652L55.8002 41.4447H55.5642V32.2831H56.0362V42H55.6475L48.5125 32.8383H48.7485V42H48.2765ZM63.1077 42V32.7134H59.5402V32.2831H67.1333V32.7134H63.5658V42H63.1077ZM71.0158 36.85H76.374V37.2803H71.0158V36.85ZM71.0991 41.5697H77.193V42H70.6271V32.2831H76.9986V32.7134H71.0991V41.5697ZM81.5651 42V32.2831H84.9383C85.7434 32.2831 86.4329 32.4126 87.0066 32.6717C87.5896 32.9309 88.0339 33.301 88.3392 33.7822C88.6446 34.2542 88.7973 34.828 88.7973 35.5035C88.7973 36.1791 88.6446 36.7575 88.3392 37.2387C88.0339 37.7199 87.5896 38.0901 87.0066 38.3492C86.4329 38.6083 85.7434 38.7379 84.9383 38.7379H81.8289L82.0371 38.5158V42H81.5651ZM88.3948 42L85.8684 38.4741H86.4097L88.95 42H88.3948ZM82.0371 38.5158L81.8289 38.3076H84.9661C86.0581 38.3076 86.891 38.0623 87.4647 37.5719C88.0477 37.0814 88.3392 36.3919 88.3392 35.5035C88.3392 34.6151 88.0477 33.9303 87.4647 33.4491C86.891 32.9586 86.0581 32.7134 84.9661 32.7134H81.8289L82.0371 32.4913V38.5158Z" fill="black"/>
<path d="M160.223 25.1161C159.204 25.1161 158.256 24.9484 157.379 24.6131C156.514 24.2648 155.76 23.7811 155.115 23.162C154.483 22.53 153.986 21.8013 153.625 20.9758C153.277 20.1374 153.103 19.2217 153.103 18.2285C153.103 17.2353 153.277 16.326 153.625 15.5006C153.986 14.6622 154.483 13.9334 155.115 13.3143C155.76 12.6823 156.514 12.1986 157.379 11.8633C158.243 11.515 159.191 11.3409 160.223 11.3409C161.241 11.3409 162.183 11.515 163.047 11.8633C163.911 12.1986 164.659 12.6759 165.291 13.295C165.936 13.9141 166.433 14.6428 166.781 15.4812C167.142 16.3196 167.323 17.2353 167.323 18.2285C167.323 19.2217 167.142 20.1374 166.781 20.9758C166.433 21.8142 165.936 22.5429 165.291 23.162C164.659 23.7811 163.911 24.2648 163.047 24.6131C162.183 24.9484 161.241 25.1161 160.223 25.1161ZM160.223 23.8392C161.035 23.8392 161.783 23.7037 162.467 23.4329C163.163 23.1491 163.763 22.7557 164.266 22.2527C164.782 21.7368 165.182 21.1435 165.466 20.4728C165.749 19.7892 165.891 19.0411 165.891 18.2285C165.891 17.4159 165.749 16.6743 165.466 16.0036C165.182 15.32 164.782 14.7267 164.266 14.2236C163.763 13.7077 163.163 13.3143 162.467 13.0435C161.783 12.7597 161.035 12.6178 160.223 12.6178C159.41 12.6178 158.655 12.7597 157.959 13.0435C157.262 13.3143 156.656 13.7077 156.14 14.2236C155.637 14.7267 155.237 15.32 154.941 16.0036C154.657 16.6743 154.515 17.4159 154.515 18.2285C154.515 19.0282 154.657 19.7698 154.941 20.4534C155.237 21.137 155.637 21.7368 156.14 22.2527C156.656 22.7557 157.262 23.1491 157.959 23.4329C158.655 23.7037 159.41 23.8392 160.223 23.8392ZM175.75 25.1161C174.925 25.1161 174.19 24.9807 173.545 24.7098C172.913 24.4389 172.371 24.0262 171.92 23.4716C171.468 22.917 171.126 22.2334 170.894 21.4208C170.662 20.5953 170.546 19.6408 170.546 18.5574C170.546 17.59 170.636 16.7452 170.817 16.0229C170.997 15.2877 171.249 14.6557 171.571 14.1269C171.894 13.5981 172.268 13.1531 172.693 12.792C173.132 12.4179 173.603 12.1213 174.106 11.902C174.622 11.6698 175.151 11.4957 175.692 11.3796L180.258 10.3155L180.49 11.5924L176.195 12.5598C175.924 12.6243 175.596 12.7146 175.209 12.8306C174.835 12.9467 174.448 13.1209 174.048 13.353C173.661 13.5852 173.3 13.9076 172.964 14.3204C172.629 14.7331 172.358 15.2684 172.152 15.9262C171.958 16.5711 171.862 17.3772 171.862 18.3446C171.862 18.551 171.868 18.7186 171.881 18.8476C171.894 18.9637 171.907 19.0927 171.92 19.2346C171.945 19.3635 171.965 19.557 171.978 19.815L171.378 19.3119C171.52 18.5252 171.81 17.8416 172.248 17.2611C172.687 16.6678 173.235 16.2099 173.893 15.8875C174.564 15.5521 175.305 15.3845 176.118 15.3845C177.059 15.3845 177.898 15.5908 178.633 16.0036C179.368 16.4034 179.942 16.9645 180.355 17.6868C180.781 18.4091 180.993 19.2474 180.993 20.2019C180.993 21.1435 180.774 21.9883 180.336 22.7364C179.91 23.4845 179.304 24.0713 178.517 24.497C177.73 24.9097 176.808 25.1161 175.75 25.1161ZM175.905 23.9746C176.627 23.9746 177.266 23.8134 177.82 23.4909C178.375 23.1556 178.807 22.7041 179.117 22.1366C179.439 21.5691 179.6 20.9307 179.6 20.2213C179.6 19.5248 179.439 18.9056 179.117 18.3639C178.807 17.8222 178.375 17.3966 177.82 17.087C177.266 16.7646 176.621 16.6033 175.886 16.6033C175.163 16.6033 174.525 16.7581 173.97 17.0677C173.416 17.3643 172.977 17.7835 172.655 18.3252C172.345 18.867 172.19 19.4925 172.19 20.2019C172.19 20.9113 172.345 21.5498 172.655 22.1173C172.977 22.6848 173.416 23.1362 173.97 23.4716C174.538 23.8069 175.183 23.9746 175.905 23.9746ZM189.955 25.0967C189.077 25.0967 188.284 24.8968 187.575 24.497C186.865 24.0842 186.298 23.4974 185.872 22.7364C185.46 21.9625 185.253 21.0209 185.253 19.9117C185.253 18.8025 185.46 17.8674 185.872 17.1064C186.285 16.3325 186.846 15.7456 187.556 15.3458C188.265 14.9459 189.065 14.746 189.955 14.746C190.922 14.746 191.786 14.9653 192.547 15.4038C193.321 15.8295 193.927 16.4357 194.366 17.2224C194.804 17.9963 195.024 18.8928 195.024 19.9117C195.024 20.9435 194.804 21.8464 194.366 22.6203C193.927 23.3942 193.321 24.0004 192.547 24.4389C191.786 24.8775 190.922 25.0967 189.955 25.0967ZM184.711 28.7533V14.8427H186.027V17.8996L185.892 19.931L186.085 21.9818V28.7533H184.711ZM189.858 23.8779C190.58 23.8779 191.225 23.7166 191.793 23.3942C192.36 23.0588 192.811 22.5945 193.147 22.0012C193.482 21.395 193.65 20.6985 193.65 19.9117C193.65 19.1249 193.482 18.4349 193.147 17.8416C192.811 17.2482 192.36 16.7839 191.793 16.4486C191.225 16.1132 190.58 15.9455 189.858 15.9455C189.136 15.9455 188.484 16.1132 187.904 16.4486C187.336 16.7839 186.885 17.2482 186.549 17.8416C186.227 18.4349 186.066 19.1249 186.066 19.9117C186.066 20.6985 186.227 21.395 186.549 22.0012C186.885 22.5945 187.336 23.0588 187.904 23.3942C188.484 23.7166 189.136 23.8779 189.858 23.8779ZM204.999 25V22.7557L204.941 22.3881V18.6348C204.941 17.7706 204.696 17.1064 204.206 16.642C203.729 16.1777 203.013 15.9455 202.058 15.9455C201.401 15.9455 200.775 16.0552 200.182 16.2744C199.588 16.4937 199.085 16.7839 198.673 17.1451L198.054 16.1197C198.57 15.6811 199.189 15.3458 199.911 15.1136C200.633 14.8685 201.394 14.746 202.194 14.746C203.509 14.746 204.522 15.0749 205.231 15.7327C205.954 16.3776 206.315 17.3643 206.315 18.6928V25H204.999ZM201.497 25.0967C200.736 25.0967 200.072 24.9742 199.505 24.7291C198.95 24.4712 198.524 24.1229 198.228 23.6844C197.931 23.233 197.783 22.717 197.783 22.1366C197.783 21.6078 197.905 21.1306 198.15 20.7049C198.408 20.2664 198.821 19.9182 199.389 19.6602C199.969 19.3893 200.743 19.2539 201.71 19.2539H205.212V20.2793H201.749C200.769 20.2793 200.085 20.4534 199.698 20.8017C199.324 21.1499 199.137 21.582 199.137 22.0979C199.137 22.6783 199.363 23.1427 199.814 23.4909C200.266 23.8392 200.898 24.0133 201.71 24.0133C202.484 24.0133 203.148 23.8392 203.703 23.4909C204.27 23.1298 204.683 22.6139 204.941 21.9432L205.251 22.8912C204.993 23.5619 204.541 24.0971 203.896 24.497C203.264 24.8968 202.465 25.0967 201.497 25.0967ZM213.266 25.1161C212.53 25.1161 211.802 25.0129 211.079 24.8065C210.357 24.6002 209.719 24.2842 209.164 23.8585L209.609 22.8331C210.099 23.1943 210.667 23.4716 211.312 23.665C211.956 23.8456 212.595 23.9359 213.227 23.9359C213.859 23.923 214.407 23.8327 214.871 23.665C215.336 23.4974 215.697 23.2652 215.955 22.9685C216.213 22.6719 216.342 22.3365 216.342 21.9625C216.342 21.4208 216.097 21.0016 215.607 20.7049C215.116 20.3954 214.446 20.2406 213.595 20.2406H211.853V19.2346H213.498C214.001 19.2346 214.446 19.1701 214.833 19.0411C215.22 18.9121 215.516 18.7251 215.723 18.48C215.942 18.2349 216.052 17.9447 216.052 17.6094C216.052 17.2482 215.923 16.9387 215.665 16.6807C215.42 16.4228 215.078 16.2293 214.639 16.1003C214.201 15.9713 213.704 15.9068 213.15 15.9068C212.646 15.9197 212.124 15.9971 211.582 16.139C211.041 16.268 210.505 16.4679 209.977 16.7388L209.59 15.6747C210.183 15.3651 210.77 15.133 211.35 14.9782C211.944 14.8105 212.537 14.7267 213.13 14.7267C213.943 14.7009 214.671 14.7976 215.316 15.0169C215.974 15.2361 216.497 15.5521 216.884 15.9649C217.27 16.3647 217.464 16.8484 217.464 17.4159C217.464 17.9189 217.309 18.3575 217 18.7315C216.69 19.1056 216.277 19.3958 215.761 19.6021C215.245 19.8085 214.659 19.9117 214.001 19.9117L214.059 19.5441C215.22 19.5441 216.123 19.7698 216.767 20.2213C217.425 20.6727 217.754 21.2853 217.754 22.0592C217.754 22.6654 217.554 23.2007 217.154 23.665C216.755 24.1165 216.213 24.4712 215.529 24.7291C214.859 24.9871 214.104 25.1161 213.266 25.1161ZM225.825 25.0967C224.845 25.0967 223.962 24.8775 223.175 24.4389C222.401 23.9875 221.788 23.3748 221.337 22.601C220.885 21.8142 220.66 20.9178 220.66 19.9117C220.66 18.8928 220.885 17.9963 221.337 17.2224C221.788 16.4486 222.401 15.8424 223.175 15.4038C223.949 14.9653 224.832 14.746 225.825 14.746C226.831 14.746 227.721 14.9653 228.495 15.4038C229.282 15.8424 229.895 16.4486 230.333 17.2224C230.785 17.9963 231.01 18.8928 231.01 19.9117C231.01 20.9178 230.785 21.8142 230.333 22.601C229.895 23.3748 229.282 23.9875 228.495 24.4389C227.708 24.8775 226.819 25.0967 225.825 25.0967ZM225.825 23.8779C226.561 23.8779 227.212 23.7166 227.779 23.3942C228.347 23.0588 228.792 22.5945 229.114 22.0012C229.45 21.395 229.617 20.6985 229.617 19.9117C229.617 19.112 229.45 18.4155 229.114 17.8222C228.792 17.2289 228.347 16.771 227.779 16.4486C227.212 16.1132 226.567 15.9455 225.845 15.9455C225.122 15.9455 224.478 16.1132 223.91 16.4486C223.342 16.771 222.891 17.2289 222.556 17.8222C222.22 18.4155 222.053 19.112 222.053 19.9117C222.053 20.6985 222.22 21.395 222.556 22.0012C222.891 22.5945 223.342 23.0588 223.91 23.3942C224.478 23.7166 225.116 23.8779 225.825 23.8779ZM234.72 25V14.8427H239.209C240.357 14.8427 241.259 15.062 241.917 15.5006C242.588 15.9391 242.923 16.584 242.923 17.4353C242.923 18.2607 242.607 18.8992 241.975 19.3506C241.343 19.7892 240.511 20.0084 239.479 20.0084L239.75 19.6021C240.963 19.6021 241.853 19.8279 242.42 20.2793C242.988 20.7307 243.272 21.3821 243.272 22.2334C243.272 23.1104 242.949 23.794 242.304 24.2842C241.672 24.7614 240.685 25 239.344 25H234.72ZM236.055 23.9166H239.286C240.15 23.9166 240.802 23.7811 241.24 23.5103C241.691 23.2265 241.917 22.7751 241.917 22.156C241.917 21.5369 241.717 21.0854 241.317 20.8017C240.918 20.5179 240.286 20.376 239.421 20.376H236.055V23.9166ZM236.055 19.3506H239.112C239.899 19.3506 240.498 19.2023 240.911 18.9056C241.337 18.609 241.55 18.1769 241.55 17.6094C241.55 17.0419 241.337 16.6162 240.911 16.3325C240.498 16.0487 239.899 15.9068 239.112 15.9068H236.055V19.3506ZM253.572 25V22.7557L253.514 22.3881V18.6348C253.514 17.7706 253.269 17.1064 252.779 16.642C252.301 16.1777 251.586 15.9455 250.631 15.9455C249.973 15.9455 249.348 16.0552 248.754 16.2744C248.161 16.4937 247.658 16.7839 247.245 17.1451L246.626 16.1197C247.142 15.6811 247.761 15.3458 248.484 15.1136C249.206 14.8685 249.967 14.746 250.767 14.746C252.082 14.746 253.095 15.0749 253.804 15.7327C254.526 16.3776 254.888 17.3643 254.888 18.6928V25H253.572ZM250.07 25.0967C249.309 25.0967 248.645 24.9742 248.077 24.7291C247.523 24.4712 247.097 24.1229 246.8 23.6844C246.504 23.233 246.355 22.717 246.355 22.1366C246.355 21.6078 246.478 21.1306 246.723 20.7049C246.981 20.2664 247.394 19.9182 247.961 19.6602C248.542 19.3893 249.316 19.2539 250.283 19.2539H253.785V20.2793H250.322C249.341 20.2793 248.658 20.4534 248.271 20.8017C247.897 21.1499 247.71 21.582 247.71 22.0979C247.71 22.6783 247.935 23.1427 248.387 23.4909C248.838 23.8392 249.47 24.0133 250.283 24.0133C251.057 24.0133 251.721 23.8392 252.276 23.4909C252.843 23.1298 253.256 22.6139 253.514 21.9432L253.823 22.8912C253.565 23.5619 253.114 24.0971 252.469 24.497C251.837 24.8968 251.037 25.0967 250.07 25.0967ZM261.253 25V15.6747L261.601 16.0423H257.403V14.8427H266.477V16.0423H262.278L262.627 15.6747V25H261.253ZM273.117 25.0967C272.06 25.0967 271.131 24.8775 270.331 24.4389C269.532 23.9875 268.906 23.3748 268.455 22.601C268.003 21.8142 267.778 20.9178 267.778 19.9117C267.778 18.9056 267.99 18.0157 268.416 17.2418C268.855 16.4679 269.448 15.8617 270.196 15.4232C270.957 14.9717 271.808 14.746 272.75 14.746C273.704 14.746 274.549 14.9653 275.284 15.4038C276.032 15.8295 276.619 16.4357 277.045 17.2224C277.47 17.9963 277.683 18.8928 277.683 19.9117C277.683 19.9762 277.677 20.0471 277.664 20.1245C277.664 20.189 277.664 20.2599 277.664 20.3373H268.822V19.3119H276.929L276.387 19.7182C276.387 18.983 276.226 18.3317 275.903 17.7642C275.594 17.1838 275.168 16.7323 274.626 16.4099C274.085 16.0874 273.459 15.9262 272.75 15.9262C272.053 15.9262 271.428 16.0874 270.873 16.4099C270.318 16.7323 269.886 17.1838 269.577 17.7642C269.267 18.3446 269.112 19.0088 269.112 19.7569V19.9697C269.112 20.7436 269.28 21.4272 269.616 22.0205C269.964 22.601 270.441 23.0588 271.047 23.3942C271.666 23.7166 272.369 23.8779 273.156 23.8779C273.775 23.8779 274.349 23.7682 274.878 23.549C275.42 23.3297 275.884 22.9943 276.271 22.5429L277.045 23.4329C276.593 23.9746 276.026 24.3873 275.342 24.6711C274.672 24.9549 273.93 25.0967 273.117 25.0967ZM279.433 24.9807L279.529 23.8005C279.62 23.8134 279.704 23.8327 279.781 23.8585C279.871 23.8714 279.949 23.8779 280.013 23.8779C280.426 23.8779 280.755 23.7231 281 23.4135C281.258 23.104 281.451 22.6912 281.58 22.1753C281.709 21.6594 281.799 21.079 281.851 20.4341C281.903 19.7763 281.948 19.1185 281.987 18.4607L282.161 14.8427H289.609V25H288.236V15.636L288.584 16.0423H283.051L283.379 15.6166L283.225 18.5574C283.186 19.4345 283.115 20.2728 283.012 21.0725C282.922 21.8722 282.773 22.5752 282.567 23.1814C282.373 23.7876 282.103 24.2648 281.754 24.6131C281.406 24.9484 280.961 25.1161 280.419 25.1161C280.265 25.1161 280.103 25.1032 279.936 25.0774C279.781 25.0516 279.613 25.0193 279.433 24.9807ZM298.661 18.422C299.937 18.4349 300.905 18.7186 301.563 19.2732C302.233 19.8279 302.569 20.6275 302.569 21.6723C302.569 22.7557 302.208 23.5877 301.485 24.1681C300.776 24.7485 299.744 25.0322 298.39 25.0193L294.288 25V14.8427H295.662V18.3833L298.661 18.422ZM298.312 23.9746C299.254 23.9875 299.963 23.8005 300.44 23.4135C300.931 23.0137 301.176 22.4333 301.176 21.6723C301.176 20.9113 300.937 20.3567 300.46 20.0084C299.983 19.6473 299.267 19.4603 298.312 19.4474L295.662 19.4087V23.9359L298.312 23.9746ZM305.964 25V14.8427H307.337V19.3313H313.741V14.8427H315.115V25H313.741V20.5115H307.337V25H305.964ZM329.699 25V14.8427H331.072V25H329.699ZM324.069 18.422C325.346 18.4349 326.32 18.7186 326.99 19.2732C327.661 19.8279 327.996 20.6275 327.996 21.6723C327.996 22.7557 327.635 23.5877 326.913 24.1681C326.191 24.7485 325.159 25.0322 323.817 25.0193L319.793 25V14.8427H321.167V18.3833L324.069 18.422ZM323.721 23.9746C324.675 23.9875 325.391 23.8005 325.868 23.4135C326.358 23.0137 326.603 22.4333 326.603 21.6723C326.603 20.9113 326.365 20.3567 325.887 20.0084C325.41 19.6473 324.688 19.4603 323.721 19.4474L321.167 19.4087V23.9359L323.721 23.9746ZM335.757 25V14.8427H337.131V22.9105L343.922 14.8427H345.141V25H343.767V16.9129L336.996 25H335.757ZM340.362 13.3724C339.511 13.3724 338.821 13.1595 338.292 12.7339C337.776 12.2954 337.505 11.6698 337.479 10.8572H338.466C338.479 11.3732 338.66 11.7795 339.008 12.0761C339.356 12.3728 339.807 12.5211 340.362 12.5211C340.917 12.5211 341.368 12.3728 341.716 12.0761C342.078 11.7795 342.265 11.3732 342.277 10.8572H343.264C343.251 11.6698 342.98 12.2954 342.452 12.7339C341.923 13.1595 341.226 13.3724 340.362 13.3724ZM153.954 42V31.8427H155.328V40.8005H161.538V31.8427H162.912V42H153.954ZM163.26 44.4571V41.8839L163.608 42H161.538V40.8005H164.556V44.4571H163.26ZM172.307 42.0967C171.249 42.0967 170.32 41.8775 169.521 41.4389C168.721 40.9875 168.095 40.3748 167.644 39.601C167.193 38.8142 166.967 37.9178 166.967 36.9117C166.967 35.9056 167.18 35.0157 167.605 34.2418C168.044 33.4679 168.637 32.8617 169.385 32.4232C170.146 31.9717 170.997 31.746 171.939 31.746C172.894 31.746 173.738 31.9653 174.474 32.4038C175.222 32.8295 175.808 33.4357 176.234 34.2224C176.66 34.9963 176.873 35.8928 176.873 36.9117C176.873 36.9762 176.866 37.0471 176.853 37.1245C176.853 37.189 176.853 37.2599 176.853 37.3373H168.012V36.3119H176.118L175.576 36.7182C175.576 35.983 175.415 35.3317 175.093 34.7642C174.783 34.1838 174.357 33.7323 173.816 33.4099C173.274 33.0874 172.648 32.9262 171.939 32.9262C171.243 32.9262 170.617 33.0874 170.062 33.4099C169.508 33.7323 169.076 34.1838 168.766 34.7642C168.457 35.3446 168.302 36.0088 168.302 36.7569V36.9697C168.302 37.7436 168.469 38.4272 168.805 39.0205C169.153 39.601 169.63 40.0588 170.236 40.3942C170.856 40.7166 171.559 40.8779 172.345 40.8779C172.964 40.8779 173.538 40.7682 174.067 40.549C174.609 40.3297 175.073 39.9943 175.46 39.5429L176.234 40.4329C175.783 40.9746 175.215 41.3873 174.532 41.6711C173.861 41.9549 173.119 42.0967 172.307 42.0967ZM180.687 42V31.8427H182.061V36.3313H188.465V31.8427H189.838V42H188.465V37.5115H182.061V42H180.687ZM196.451 42V32.6747L196.8 33.0423H192.601V31.8427H201.675V33.0423H197.477L197.825 32.6747V42H196.451ZM209.678 42.0967C208.801 42.0967 208.008 41.8968 207.298 41.497C206.589 41.0842 206.021 40.4974 205.596 39.7364C205.183 38.9625 204.977 38.0209 204.977 36.9117C204.977 35.8025 205.183 34.8674 205.596 34.1064C206.009 33.3325 206.57 32.7456 207.279 32.3458C207.988 31.9459 208.788 31.746 209.678 31.746C210.645 31.746 211.51 31.9653 212.271 32.4038C213.044 32.8295 213.651 33.4357 214.089 34.2224C214.528 34.9963 214.747 35.8928 214.747 36.9117C214.747 37.9435 214.528 38.8464 214.089 39.6203C213.651 40.3942 213.044 41.0004 212.271 41.4389C211.51 41.8775 210.645 42.0967 209.678 42.0967ZM204.435 45.7533V31.8427H205.751V34.8996L205.615 36.931L205.809 38.9818V45.7533H204.435ZM209.581 40.8779C210.304 40.8779 210.949 40.7166 211.516 40.3942C212.084 40.0588 212.535 39.5945 212.87 39.0012C213.206 38.395 213.373 37.6985 213.373 36.9117C213.373 36.1249 213.206 35.4349 212.87 34.8416C212.535 34.2482 212.084 33.7839 211.516 33.4486C210.949 33.1132 210.304 32.9455 209.581 32.9455C208.859 32.9455 208.208 33.1132 207.627 33.4486C207.06 33.7839 206.608 34.2482 206.273 34.8416C205.951 35.4349 205.789 36.1249 205.789 36.9117C205.789 37.6985 205.951 38.395 206.273 39.0012C206.608 39.5945 207.06 40.0588 207.627 40.3942C208.208 40.7166 208.859 40.8779 209.581 40.8779Z" fill="black"/>
<path d="M132.5 0.5V49.5" stroke="black"/>
<path d="M22.6744 17.0217L15.5516 19.1444C15.3764 19.1966 15.1866 19.1577 15.0461 19.0408L9.33224 14.2876C9.17738 14.1588 9.10596 13.9552 9.1464 13.7579L9.53797 11.8471L9.81203 10.5097C9.89492 10.1052 10.3793 9.93524 10.6967 10.1993L15.9606 14.5782C16.1011 14.6951 16.2909 14.734 16.4661 14.6817L23.028 12.7263C23.4237 12.6083 23.8022 12.9551 23.7193 13.3596L23.0537 16.6078C23.0132 16.8051 22.8675 16.9642 22.6744 17.0217Z" fill="#191919"/>
<path d="M10.1278 8.96894L16.0931 13.9314C16.2337 14.0483 16.4234 14.0872 16.5986 14.035L24.035 11.8189L29.9127 10.0673C30.3592 9.93422 30.4303 9.36542 30.0168 9.15063C28.2888 8.2529 24.369 6.49568 18.1417 5.21956C11.9144 3.94344 7.61949 4.01729 5.6776 4.16296C5.21299 4.19781 5.05459 4.74871 5.41277 5.04667L10.1278 8.96894Z" fill="#191919"/>
<path d="M22.6744 17.0217L15.5516 19.1444C15.3764 19.1966 15.1866 19.1577 15.0461 19.0408L9.33224 14.2876C9.17738 14.1588 9.10596 13.9552 9.1464 13.7579L9.53797 11.8471L9.81203 10.5097C9.89492 10.1052 10.3793 9.93524 10.6967 10.1993L15.9606 14.5782C16.1011 14.6951 16.2909 14.734 16.4661 14.6817L23.028 12.7263C23.4237 12.6083 23.8022 12.9551 23.7193 13.3596L23.0537 16.6078C23.0132 16.8051 22.8675 16.9642 22.6744 17.0217Z" stroke="black" stroke-width="0.0455333"/>
<path d="M10.1278 8.96894L16.0931 13.9314C16.2337 14.0483 16.4234 14.0872 16.5986 14.035L24.035 11.8189L29.9127 10.0673C30.3592 9.93422 30.4303 9.36542 30.0168 9.15063C28.2888 8.2529 24.369 6.49568 18.1417 5.21956C11.9144 3.94344 7.61949 4.01729 5.6776 4.16296C5.21299 4.19781 5.05459 4.74871 5.41277 5.04667L10.1278 8.96894Z" stroke="black" stroke-width="0.0455333"/>
<path d="M17.6289 7.83351C17.6289 7.83351 23.305 8.80467 25.0856 11.6036C25.2942 11.9316 24.8726 13.9369 24.8726 13.9369" stroke="#F1AD2D" stroke-width="0.242188"/>
<path d="M24.8872 13.8751C24.9868 13.8955 25.065 13.9829 25.109 14.111C25.1528 14.2387 25.1623 14.4051 25.1265 14.5801C25.0906 14.7553 25.0164 14.9052 24.9257 15.0055C24.8348 15.106 24.7287 15.1555 24.629 15.1351C24.5295 15.1145 24.4521 15.0273 24.4081 14.8994C24.3642 14.7715 24.3549 14.6045 24.3908 14.4293C24.4267 14.2544 24.5009 14.1051 24.5914 14.0049C24.6822 13.9046 24.7876 13.8549 24.8872 13.8751Z" fill="#F1AD2D" stroke="#F1AD2D" stroke-width="0.0186299"/>
<ellipse cx="17.6252" cy="7.80534" rx="0.393944" ry="0.223559" transform="rotate(11.5809 17.6252 7.80534)" fill="#7A7A7A"/>
<path d="M9.08062 14.0784L15.046 19.0408C15.1865 19.1577 15.3763 19.1966 15.5515 19.1444L22.6743 17.0217C22.8674 16.9642 23.0131 16.8051 23.0536 16.6078L23.7192 13.3596C23.8021 12.9551 23.4236 12.6083 23.0279 12.7263L16.466 14.6817C16.2908 14.734 16.101 14.6951 15.9605 14.5782L9.99512 9.61574" stroke="black" stroke-width="0.0455333"/>
</svg>
