<svg width="49" height="49" viewBox="0 0 49 49" fill="none" xmlns="http://www.w3.org/2000/svg">
<g clip-path="url(#clip0_916_198)">
<circle cx="24.0653" cy="24.6808" r="21.6808" fill="#F6F6F6"/>
<path fill-rule="evenodd" clip-rule="evenodd" d="M32.7746 30.8474C32.3015 30.4746 29.9771 28.6694 29.532 28.3927C29.0865 28.1177 28.7538 27.9582 28.2918 28.4101C27.8319 28.8606 26.5781 29.83 26.1989 30.1152C25.8175 30.4018 25.5022 30.3803 25.0305 30.0097C24.5595 29.6356 22.9774 28.7301 21.3386 26.5269C20.0639 24.8116 19.3638 22.8758 19.1668 22.2865C18.9695 21.699 19.3014 21.4721 19.6198 21.2661C19.906 21.0811 20.2734 20.764 20.6009 20.514C20.9288 20.2623 21.0612 20.0618 21.3097 19.7475C21.5596 19.4353 21.5346 19.1119 21.4564 18.8215C21.3801 18.5315 20.8654 15.7329 20.6447 14.5923C20.4305 13.4826 19.9674 13.5314 19.6487 13.4466C19.3434 13.3682 18.9934 13.2916 18.6426 13.2185C18.2919 13.1454 17.6943 13.157 17.1029 13.5819C16.5102 14.0047 14.8873 14.9892 14.3497 17.5685C13.8125 20.146 15.1782 23.0299 15.369 23.4358C15.5602 23.8399 17.9045 29.8509 22.7125 33.2205C23.8578 34.0221 24.7702 34.5489 25.4838 34.9478C26.6617 35.6109 27.8214 35.7937 28.7567 35.847C29.7976 35.9076 32.1351 35.2284 32.8295 34.0965C33.522 32.9641 33.7406 31.9151 33.6551 31.6692C33.5696 31.4233 33.246 31.2197 32.7729 30.847" fill="#C06AEE"/>
</g>
<defs>
<filter id="filter0_d_916_198" x="0.0862997" y="0.701839" width="47.958" height="47.958" filterUnits="userSpaceOnUse" color-interpolation-filters="sRGB">
<feFlood flood-opacity="0" result="BackgroundImageFix"/>
<feColorMatrix in="SourceAlpha" type="matrix" values="0 0 0 0 0 0 0 0 0 0 0 0 0 0 0 0 0 0 127 0" result="hardAlpha"/>
<feOffset/>
<feGaussianBlur stdDeviation="1.14908"/>
<feComposite in2="hardAlpha" operator="out"/>
<feColorMatrix type="matrix" values="0 0 0 0 0 0 0 0 0 0 0 0 0 0 0 0 0 0 0.25 0"/>
<feBlend mode="normal" in2="BackgroundImageFix" result="effect1_dropShadow_916_198"/>
<feBlend mode="normal" in="SourceGraphic" in2="effect1_dropShadow_916_198" result="shape"/>
</filter>
<clipPath id="clip0_916_198">
<rect x="2.38446" y="3" width="43.3616" height="43.3616" rx="21.6808" fill="white"/>
</clipPath>
</defs>
</svg>
