<svg width="49" height="49" viewBox="0 0 49 49" fill="none" xmlns="http://www.w3.org/2000/svg">
<g clip-path="url(#clip0_916_195)">
<circle cx="24.9371" cy="24.6808" r="21.6808" fill="#F6F6F6"/>
<path fill-rule="evenodd" clip-rule="evenodd" d="M30.9932 27.2571C30.6652 27.0938 29.0571 26.3073 28.7577 26.1978C28.4583 26.0894 28.2404 26.0357 28.0214 26.3621C27.8034 26.6874 27.1772 27.4203 26.9867 27.6372C26.7952 27.8551 26.6048 27.8814 26.2779 27.7193C25.951 27.555 24.8966 27.2121 23.6473 26.1036C22.6754 25.2404 22.0183 24.1746 21.8279 23.8482C21.6375 23.5228 21.807 23.3465 21.971 23.1844C22.1185 23.0387 22.2979 22.8043 22.4619 22.6148C22.6259 22.4242 22.6798 22.2883 22.7888 22.0703C22.8989 21.8535 22.8438 21.6639 22.7613 21.5007C22.6798 21.3375 22.026 19.735 21.7531 19.0832C21.4878 18.449 21.2181 18.5355 21.0178 18.5245C20.8263 18.5158 20.6084 18.5136 20.3904 18.5136C20.1725 18.5136 19.8181 18.5946 19.5187 18.9211C19.2182 19.2464 18.374 20.034 18.374 21.6366C18.374 23.238 19.5451 24.7858 19.7091 25.0038C19.8731 25.2207 22.015 28.5091 25.2961 29.9189C26.0776 30.2541 26.6863 30.4545 27.1607 30.6035C27.9443 30.8522 28.6576 30.8171 29.2211 30.7328C29.8485 30.6396 31.1561 29.9452 31.4291 29.185C31.7009 28.4247 31.7009 27.773 31.6195 27.6372C31.538 27.5013 31.3201 27.4203 30.9921 27.2571M25.0243 35.3663H25.0198C23.071 35.3666 21.158 34.8453 19.4813 33.8568L19.085 33.6224L14.9663 34.6981L16.0659 30.7021L15.8072 30.2924C14.7177 28.5664 14.1411 26.5689 14.1441 24.5306C14.1463 18.5607 19.0267 13.7037 25.0287 13.7037C26.4581 13.7 27.874 13.9788 29.1944 14.5239C30.5147 15.069 31.7131 15.8696 32.7201 16.8792C33.733 17.8831 34.5359 19.0769 35.0823 20.3916C35.6287 21.7062 35.9077 23.1156 35.9033 24.5383C35.9011 30.5082 31.0207 35.3663 25.0243 35.3663ZM34.2831 15.3238C33.0705 14.109 31.6277 13.1458 30.0384 12.49C28.4491 11.8341 26.7448 11.4987 25.0243 11.503C17.8104 11.503 11.9373 17.347 11.9351 24.5295C11.9317 26.8153 12.5342 29.0616 13.6818 31.0417L11.825 37.7926L18.7636 35.9808C20.6831 37.0216 22.834 37.5669 25.0198 37.5669H25.0254C32.2392 37.5669 38.1123 31.723 38.1145 24.5394C38.1199 22.8276 37.7841 21.1317 37.1266 19.5499C36.4691 17.968 35.503 16.5316 34.2842 15.3238" fill="#C06AEE"/>
</g>
<defs>
<filter id="filter0_d_916_195" x="0.958156" y="0.701839" width="47.958" height="47.958" filterUnits="userSpaceOnUse" color-interpolation-filters="sRGB">
<feFlood flood-opacity="0" result="BackgroundImageFix"/>
<feColorMatrix in="SourceAlpha" type="matrix" values="0 0 0 0 0 0 0 0 0 0 0 0 0 0 0 0 0 0 127 0" result="hardAlpha"/>
<feOffset/>
<feGaussianBlur stdDeviation="1.14908"/>
<feComposite in2="hardAlpha" operator="out"/>
<feColorMatrix type="matrix" values="0 0 0 0 0 0 0 0 0 0 0 0 0 0 0 0 0 0 0.25 0"/>
<feBlend mode="normal" in2="BackgroundImageFix" result="effect1_dropShadow_916_195"/>
<feBlend mode="normal" in="SourceGraphic" in2="effect1_dropShadow_916_195" result="shape"/>
</filter>
<clipPath id="clip0_916_195">
<rect x="3.25632" y="3" width="43.3616" height="43.3616" rx="21.6808" fill="white"/>
</clipPath>
</defs>
</svg>
