<svg width="132" height="54" viewBox="0 0 132 54" fill="none" xmlns="http://www.w3.org/2000/svg">
<path d="M1.98235 17V0.281393H5.18277L12.3001 12.08H10.6044L17.6023 0.281393H20.7788L20.8266 17H17.1963L17.1724 5.8463H17.8411L12.2523 15.2326H10.5088L4.80063 5.8463H5.61268V17H1.98235ZM25.4619 17L32.9136 0.281393H36.735L44.2106 17H40.1504L34.0362 2.23986H35.5647L29.4266 17H25.4619ZM29.1878 13.4174L30.2148 10.4797H38.8129L39.8638 13.4174H29.1878ZM56.6507 17.2866C55.3291 17.2866 54.1111 17.0796 52.9965 16.6656C51.8978 16.2357 50.9345 15.6307 50.1066 14.8505C49.2945 14.0703 48.6576 13.1547 48.1959 12.1038C47.75 11.053 47.5271 9.89857 47.5271 8.6407C47.5271 7.38282 47.75 6.22844 48.1959 5.17756C48.6576 4.12667 49.3025 3.21113 50.1304 2.43093C50.9584 1.65073 51.9297 1.05363 53.0443 0.639649C54.1588 0.209743 55.3849 -0.00521058 56.7223 -0.00521058C58.2031 -0.00521058 59.5327 0.241588 60.7109 0.735184C61.9051 1.22878 62.9082 1.94529 63.7203 2.88472L61.2364 5.17756C60.6313 4.54066 59.9705 4.07094 59.254 3.76842C58.5375 3.44997 57.7573 3.29074 56.9134 3.29074C56.1014 3.29074 55.361 3.41812 54.6922 3.67288C54.0235 3.92764 53.4423 4.29386 52.9487 4.77153C52.471 5.24921 52.0969 5.81446 51.8262 6.46728C51.5714 7.1201 51.444 7.84457 51.444 8.6407C51.444 9.4209 51.5714 10.1374 51.8262 10.7902C52.0969 11.4431 52.471 12.0163 52.9487 12.5099C53.4423 12.9875 54.0155 13.3538 54.6683 13.6085C55.3371 13.8633 56.0695 13.9907 56.8657 13.9907C57.6299 13.9907 58.3703 13.8712 59.0868 13.6324C59.8193 13.3776 60.5278 12.9557 61.2125 12.3666L63.4098 15.161C62.5022 15.8456 61.4434 16.3711 60.2333 16.7373C59.0391 17.1035 57.8449 17.2866 56.6507 17.2866ZM59.875 14.6594V8.37798H63.4098V15.161L59.875 14.6594ZM69.87 17V0.281393H73.7391V17H69.87ZM86.0661 17.2866C84.7286 17.2866 83.4469 17.1115 82.2208 16.7612C80.9948 16.3949 80.0076 15.9252 79.2593 15.352L80.5729 12.4382C81.2894 12.9477 82.1333 13.3697 83.1045 13.704C84.0917 14.0225 85.0869 14.1817 86.09 14.1817C86.8543 14.1817 87.4673 14.1101 87.929 13.9668C88.4067 13.8075 88.757 13.5926 88.9799 13.3219C89.2028 13.0512 89.3143 12.7407 89.3143 12.3904C89.3143 11.9446 89.1392 11.5943 88.7889 11.3396C88.4386 11.0689 87.9768 10.8539 87.4036 10.6947C86.8304 10.5195 86.1935 10.3603 85.4929 10.217C84.8082 10.0578 84.1156 9.86673 83.415 9.64381C82.7304 9.4209 82.1014 9.13429 81.5282 8.784C80.955 8.4337 80.4853 7.97195 80.1191 7.39874C79.7688 6.82553 79.5936 6.0931 79.5936 5.20144C79.5936 4.24609 79.8484 3.37832 80.3579 2.59811C80.8833 1.80199 81.6635 1.17305 82.6985 0.7113C83.7494 0.233626 85.063 -0.00521058 86.6393 -0.00521058C87.6902 -0.00521058 88.7252 0.122169 89.7442 0.376928C90.7632 0.615765 91.6629 0.981982 92.4431 1.47558L91.2489 4.41328C90.4687 3.96745 89.6885 3.64104 88.9083 3.43405C88.1281 3.21113 87.3638 3.09967 86.6154 3.09967C85.8671 3.09967 85.2541 3.18725 84.7764 3.36239C84.2987 3.53754 83.9564 3.76842 83.7494 4.05502C83.5424 4.3257 83.4389 4.64415 83.4389 5.01037C83.4389 5.44028 83.6141 5.79057 83.9643 6.06125C84.3146 6.31601 84.7764 6.52301 85.3496 6.68223C85.9228 6.84146 86.5517 7.00068 87.2364 7.15991C87.937 7.31913 88.6296 7.50224 89.3143 7.70923C90.0149 7.91622 90.6518 8.19487 91.225 8.54516C91.7982 8.89546 92.26 9.35721 92.6103 9.93042C92.9765 10.5036 93.1596 11.2281 93.1596 12.1038C93.1596 13.0433 92.8969 13.9031 92.3714 14.6833C91.846 15.4635 91.0578 16.0924 90.0069 16.5701C88.972 17.0478 87.6584 17.2866 86.0661 17.2866ZM101.899 17V3.43405H96.5494V0.281393H111.118V3.43405H105.769V17H101.899ZM116.066 17V0.281393H123.303C124.8 0.281393 126.09 0.528192 127.172 1.02179C128.255 1.49946 129.091 2.19209 129.68 3.09967C130.269 4.00725 130.564 5.08998 130.564 6.34786C130.564 7.58981 130.269 8.66458 129.68 9.57216C129.091 10.4638 128.255 11.1485 127.172 11.6262C126.09 12.1038 124.8 12.3427 123.303 12.3427H118.216L119.935 10.6469V17H116.066ZM126.695 17L122.515 10.9335H126.647L130.874 17H126.695ZM119.935 11.0768L118.216 9.26167H123.088C124.282 9.26167 125.174 9.00691 125.763 8.49739C126.352 7.97195 126.647 7.25544 126.647 6.34786C126.647 5.42436 126.352 4.70784 125.763 4.19832C125.174 3.68881 124.282 3.43405 123.088 3.43405H118.216L119.935 1.595V11.0768Z" fill="black"/>
<path d="M34.1096 32.0788C33.2872 32.0788 32.5272 31.9435 31.8297 31.6728C31.1321 31.3917 30.5283 31.0013 30.0182 30.5016C29.508 30.0018 29.1072 29.4136 28.8157 28.7369C28.5346 28.0602 28.3941 27.321 28.3941 26.5194C28.3941 25.7178 28.5346 24.9786 28.8157 24.3019C29.1072 23.6252 29.508 23.037 30.0182 22.5373C30.5387 22.0375 31.1477 21.6523 31.8453 21.3817C32.5428 21.1006 33.3028 20.96 34.1253 20.96C34.9165 20.96 35.6609 21.0954 36.3584 21.366C37.0559 21.6263 37.6441 22.0219 38.123 22.5529L37.3891 23.2868C36.9414 22.8288 36.4469 22.5008 35.9055 22.303C35.3641 22.0948 34.7811 21.9907 34.1565 21.9907C33.5006 21.9907 32.8916 22.1052 32.3294 22.3342C31.7672 22.5529 31.2779 22.8704 30.8615 23.2868C30.445 23.6929 30.1171 24.1718 29.8776 24.7235C29.6486 25.2649 29.5341 25.8635 29.5341 26.5194C29.5341 27.1753 29.6486 27.7791 29.8776 28.3309C30.1171 28.8723 30.445 29.3512 30.8615 29.7676C31.2779 30.1736 31.7672 30.4911 32.3294 30.7202C32.8916 30.9388 33.5006 31.0481 34.1565 31.0481C34.7811 31.0481 35.3641 30.944 35.9055 30.7358C36.4469 30.5276 36.9414 30.1944 37.3891 29.7364L38.123 30.4703C37.6441 31.0013 37.0559 31.4021 36.3584 31.6728C35.6609 31.9435 34.9113 32.0788 34.1096 32.0788ZM43.4911 25.9416H49.2691V26.9254H43.4911V25.9416ZM43.616 30.9857H50.1905V31.9851H42.4604V21.0537H49.9563V22.0532H43.616V30.9857ZM54.7808 31.9851V21.0537H55.7334L63.2761 30.5484H62.7764V21.0537H63.9164V31.9851H62.9638L55.4367 22.4904H55.9364V31.9851H54.7808ZM71.4821 31.9851V22.0532H67.6405V21.0537H76.4793V22.0532H72.6377V31.9851H71.4821ZM81.2301 25.9416H87.0081V26.9254H81.2301V25.9416ZM81.355 30.9857H87.9294V31.9851H80.1994V21.0537H87.6952V22.0532H81.355V30.9857ZM92.5198 31.9851V21.0537H96.6112C97.5378 21.0537 98.3342 21.2047 99.0005 21.5066C99.6668 21.7981 100.177 22.2249 100.531 22.7871C100.895 23.3389 101.077 24.0104 101.077 24.8016C101.077 25.572 100.895 26.2383 100.531 26.8005C100.177 27.3523 99.6668 27.7791 99.0005 28.081C98.3342 28.3725 97.5378 28.5183 96.6112 28.5183H93.16L93.6754 27.9873V31.9851H92.5198ZM99.9844 31.9851L97.1734 28.0186H98.4227L101.249 31.9851H99.9844ZM93.6754 28.081L93.16 27.5345H96.58C97.6731 27.5345 98.5008 27.295 99.063 26.8161C99.6356 26.3372 99.9219 25.6657 99.9219 24.8016C99.9219 23.9271 99.6356 23.2504 99.063 22.7715C98.5008 22.2926 97.6731 22.0532 96.58 22.0532H93.16L93.6754 21.5066V28.081Z" fill="black"/>
<path d="M15.4593 50.0202V42.6407H11.2592L11.1888 44.8464C11.1653 45.4955 11.1262 46.1173 11.0715 46.7117C11.0167 47.3062 10.9346 47.8419 10.8251 48.319C10.7156 48.7883 10.5631 49.1676 10.3675 49.457C10.1798 49.7464 9.94129 49.9029 9.6519 49.9263L8.95971 49.7738C9.2882 49.7973 9.55413 49.6839 9.75748 49.4336C9.96866 49.1833 10.1329 48.8274 10.2502 48.366C10.3754 47.9045 10.4653 47.3687 10.5201 46.7587C10.5748 46.1486 10.6139 45.4955 10.6374 44.7994L10.7195 42.1011H16.0576V50.0202H15.4593ZM8.65467 52.1906L8.66641 49.7738H17.3246V52.1906H16.7498V50.3135H9.24128L9.22954 52.1906H8.65467ZM19.2268 50.29L19.2854 49.7855C19.3324 49.7934 19.3793 49.8051 19.4262 49.8207C19.481 49.8286 19.5279 49.8325 19.567 49.8325C19.8329 49.8325 20.0441 49.7347 20.2005 49.5392C20.357 49.3358 20.4743 49.066 20.5525 48.7297C20.6385 48.3933 20.6972 48.014 20.7285 47.5916C20.7676 47.1693 20.7989 46.7391 20.8223 46.3011L20.9279 44.1894H25.2219V50.3135H24.6353V44.5296L24.7995 44.7173H21.3034L21.4559 44.5179L21.362 46.3481C21.3307 46.8799 21.2877 47.3883 21.233 47.8732C21.1782 48.3581 21.0961 48.7883 20.9866 49.1637C20.8771 49.5392 20.7207 49.8364 20.5173 50.0554C20.314 50.2665 20.0519 50.3721 19.7313 50.3721C19.6531 50.3721 19.5709 50.3643 19.4849 50.3487C19.4067 50.333 19.3206 50.3135 19.2268 50.29ZM33.1413 50.3135V48.0609L33.2703 48.2017H31.0999C30.3334 48.2017 29.7351 48.0375 29.3049 47.709C28.8825 47.3726 28.6713 46.8799 28.6713 46.2307C28.6713 45.5425 28.9021 45.0302 29.3635 44.6938C29.825 44.3575 30.4351 44.1894 31.1937 44.1894H33.6809V50.3135H33.1413ZM28.6362 50.3135L30.3373 47.9553H30.9591L29.2814 50.3135H28.6362ZM33.1413 47.8967V44.5296L33.2703 44.7056H31.2289C30.6032 44.7056 30.1183 44.8268 29.7742 45.0693C29.43 45.3117 29.2579 45.7067 29.2579 46.2542C29.2579 47.2553 29.8915 47.7559 31.1585 47.7559H33.2703L33.1413 47.8967ZM42.8838 50.3135V42.3592L43.1536 42.6407H40.8776V42.1011H43.4821V50.3135H42.8838ZM47.0432 47.4274V46.8995H50.0584V47.4274H47.0432ZM54.1204 50.3135V42.3592L54.3902 42.6407H52.1142V42.1011H54.7187V50.3135H54.1204ZM59.6642 50.3135V42.3592L59.9341 42.6407H57.6581V42.1011H60.2626V50.3135H59.6642ZM73.3013 50.3135L70.6733 47.2514L71.166 46.9698L74.0052 50.3135H73.3013ZM68.7844 50.3135V44.1894H69.371V50.3135H68.7844ZM69.1833 47.4743V46.9698H71.1074V47.4743H69.1833ZM71.2012 47.3101L70.6616 47.2162L73.1722 44.1894H73.8175L71.2012 47.3101ZM75.6519 50.29L75.7105 49.7855C75.7575 49.7934 75.8044 49.8051 75.8513 49.8207C75.9061 49.8286 75.953 49.8325 75.9921 49.8325C76.258 49.8325 76.4692 49.7347 76.6256 49.5392C76.7821 49.3358 76.8994 49.066 76.9776 48.7297C77.0636 48.3933 77.1223 48.014 77.1536 47.5916C77.1927 47.1693 77.224 46.7391 77.2474 46.3011L77.353 44.1894H81.647V50.3135H81.0603V44.5296L81.2246 44.7173H77.7285L77.881 44.5179L77.7871 46.3481C77.7558 46.8799 77.7128 47.3883 77.6581 47.8732C77.6033 48.3581 77.5212 48.7883 77.4117 49.1637C77.3022 49.5392 77.1458 49.8364 76.9424 50.0554C76.7391 50.2665 76.477 50.3721 76.1564 50.3721C76.0781 50.3721 75.996 50.3643 75.91 50.3487C75.8318 50.333 75.7457 50.3135 75.6519 50.29ZM89.4138 50.3135V48.9174L89.3904 48.7062V46.4067C89.3904 45.8358 89.2339 45.4017 88.9211 45.1045C88.6161 44.8072 88.1663 44.6586 87.5719 44.6586C87.1495 44.6586 86.7546 44.7329 86.387 44.8815C86.0272 45.0223 85.7182 45.2061 85.4601 45.433L85.1668 45.0106C85.4719 44.7369 85.8395 44.5257 86.2696 44.3771C86.6998 44.2206 87.1495 44.1424 87.6188 44.1424C88.3775 44.1424 88.9602 44.3341 89.3669 44.7173C89.7736 45.1005 89.977 45.6715 89.977 46.4302V50.3135H89.4138ZM87.2082 50.3604C86.7546 50.3604 86.3596 50.29 86.0233 50.1492C85.6948 50.0006 85.4406 49.7934 85.2607 49.5274C85.0886 49.2615 85.0026 48.9565 85.0026 48.6123C85.0026 48.2995 85.073 48.0179 85.2138 47.7676C85.3624 47.5095 85.6048 47.3023 85.9411 47.1458C86.2775 46.9816 86.7272 46.8995 87.2903 46.8995H89.5429V47.357H87.3021C86.6685 47.357 86.2227 47.4743 85.9646 47.709C85.7143 47.9436 85.5892 48.2369 85.5892 48.5889C85.5892 48.9799 85.7378 49.2928 86.035 49.5274C86.3322 49.7621 86.7507 49.8794 87.2903 49.8794C87.8065 49.8794 88.2406 49.7621 88.5926 49.5274C88.9524 49.2928 89.2183 48.9526 89.3904 48.5067L89.5546 48.9056C89.3904 49.3515 89.1088 49.7073 88.7099 49.9732C88.3188 50.2314 87.8183 50.3604 87.2082 50.3604ZM96.2436 50.3604C95.6492 50.3604 95.1173 50.2274 94.6481 49.9615C94.1866 49.6956 93.819 49.328 93.5452 48.8587C93.2793 48.3894 93.1464 47.8537 93.1464 47.2514C93.1464 46.6414 93.2793 46.1017 93.5452 45.6324C93.819 45.1631 94.1866 44.7994 94.6481 44.5413C95.1173 44.2754 95.6492 44.1424 96.2436 44.1424C96.7364 44.1424 97.1822 44.2363 97.5811 44.424C97.9878 44.6117 98.3163 44.8933 98.5666 45.2687L98.1325 45.5855C97.9135 45.2726 97.6397 45.0419 97.3112 44.8933C96.9827 44.7447 96.6269 44.6704 96.2436 44.6704C95.7665 44.6704 95.3363 44.7799 94.9531 44.9989C94.5777 45.21 94.2805 45.5112 94.0615 45.9022C93.8503 46.2855 93.7447 46.7352 93.7447 47.2514C93.7447 47.7676 93.8503 48.2213 94.0615 48.6123C94.2805 48.9956 94.5777 49.2967 94.9531 49.5157C95.3363 49.7269 95.7665 49.8325 96.2436 49.8325C96.6269 49.8325 96.9827 49.7582 97.3112 49.6096C97.6397 49.4609 97.9135 49.2302 98.1325 48.9174L98.5666 49.2341C98.3163 49.6096 97.9878 49.8911 97.5811 50.0788C97.1822 50.2665 96.7364 50.3604 96.2436 50.3604ZM104.079 50.3604C103.484 50.3604 102.953 50.2274 102.483 49.9615C102.022 49.6956 101.654 49.328 101.38 48.8587C101.115 48.3894 100.982 47.8537 100.982 47.2514C100.982 46.6414 101.115 46.1017 101.38 45.6324C101.654 45.1631 102.022 44.7994 102.483 44.5413C102.953 44.2754 103.484 44.1424 104.079 44.1424C104.572 44.1424 105.017 44.2363 105.416 44.424C105.823 44.6117 106.152 44.8933 106.402 45.2687L105.968 45.5855C105.749 45.2726 105.475 45.0419 105.146 44.8933C104.818 44.7447 104.462 44.6704 104.079 44.6704C103.602 44.6704 103.172 44.7799 102.788 44.9989C102.413 45.21 102.116 45.5112 101.897 45.9022C101.686 46.2855 101.58 46.7352 101.58 47.2514C101.58 47.7676 101.686 48.2213 101.897 48.6123C102.116 48.9956 102.413 49.2967 102.788 49.5157C103.172 49.7269 103.602 49.8325 104.079 49.8325C104.462 49.8325 104.818 49.7582 105.146 49.6096C105.475 49.4609 105.749 49.2302 105.968 48.9174L106.402 49.2341C106.152 49.6096 105.823 49.8911 105.416 50.0788C105.017 50.2665 104.572 50.3604 104.079 50.3604ZM111.879 50.3604C111.292 50.3604 110.768 50.2274 110.307 49.9615C109.853 49.6956 109.489 49.328 109.216 48.8587C108.95 48.3894 108.817 47.8537 108.817 47.2514C108.817 46.6414 108.95 46.1056 109.216 45.6441C109.489 45.1748 109.853 44.8072 110.307 44.5413C110.768 44.2754 111.292 44.1424 111.879 44.1424C112.466 44.1424 112.99 44.2754 113.451 44.5413C113.912 44.8072 114.276 45.1748 114.542 45.6441C114.808 46.1056 114.941 46.6414 114.941 47.2514C114.941 47.8537 114.808 48.3894 114.542 48.8587C114.276 49.328 113.912 49.6956 113.451 49.9615C112.99 50.2274 112.466 50.3604 111.879 50.3604ZM111.879 49.8325C112.348 49.8325 112.771 49.7269 113.146 49.5157C113.521 49.2967 113.815 48.9917 114.026 48.6006C114.237 48.2095 114.343 47.7598 114.343 47.2514C114.343 46.7352 114.237 46.2855 114.026 45.9022C113.815 45.5112 113.521 45.21 113.146 44.9989C112.771 44.7799 112.348 44.6704 111.879 44.6704C111.41 44.6704 110.987 44.7799 110.612 44.9989C110.244 45.21 109.951 45.5112 109.732 45.9022C109.521 46.2855 109.415 46.7352 109.415 47.2514C109.415 47.7598 109.521 48.2095 109.732 48.6006C109.951 48.9917 110.244 49.2967 110.612 49.5157C110.987 49.7269 111.41 49.8325 111.879 49.8325ZM118.259 50.3135V44.1894H120.84C121.513 44.1894 122.045 44.3223 122.436 44.5882C122.827 44.8542 123.022 45.2413 123.022 45.7497C123.022 46.2503 122.831 46.6296 122.448 46.8877C122.072 47.1458 121.583 47.2749 120.981 47.2749L121.145 47.0989C121.865 47.0989 122.393 47.2319 122.729 47.4978C123.065 47.7637 123.234 48.1548 123.234 48.671C123.234 49.195 123.042 49.6017 122.659 49.8911C122.283 50.1727 121.701 50.3135 120.911 50.3135H118.259ZM118.834 49.8325H120.899C121.47 49.8325 121.904 49.7386 122.201 49.5509C122.498 49.3632 122.647 49.0621 122.647 48.6475C122.647 48.2252 122.514 47.9201 122.248 47.7324C121.99 47.5369 121.572 47.4391 120.993 47.4391H118.834V49.8325ZM118.834 46.9816H120.805C121.321 46.9816 121.72 46.8838 122.002 46.6883C122.291 46.4927 122.436 46.2034 122.436 45.8201C122.436 45.4369 122.291 45.1514 122.002 44.9637C121.72 44.7681 121.321 44.6704 120.805 44.6704H118.834V46.9816Z" fill="black"/>
</svg>
