<svg width="132" height="61" viewBox="0 0 132 61" fill="none" xmlns="http://www.w3.org/2000/svg">
<path d="M1.98235 17V0.281393H5.18277L12.3001 12.08H10.6044L17.6023 0.281393H20.7788L20.8266 17H17.1963L17.1724 5.8463H17.8411L12.2523 15.2326H10.5088L4.80063 5.8463H5.61268V17H1.98235ZM25.4619 17L32.9136 0.281393H36.735L44.2106 17H40.1504L34.0362 2.23986H35.5647L29.4266 17H25.4619ZM29.1878 13.4174L30.2148 10.4797H38.8129L39.8638 13.4174H29.1878ZM56.6507 17.2866C55.3291 17.2866 54.1111 17.0796 52.9965 16.6656C51.8978 16.2357 50.9345 15.6307 50.1066 14.8505C49.2945 14.0703 48.6576 13.1547 48.1959 12.1038C47.75 11.053 47.5271 9.89857 47.5271 8.6407C47.5271 7.38282 47.75 6.22844 48.1959 5.17756C48.6576 4.12667 49.3025 3.21113 50.1304 2.43093C50.9584 1.65073 51.9297 1.05363 53.0443 0.639649C54.1588 0.209743 55.3849 -0.00521058 56.7223 -0.00521058C58.2031 -0.00521058 59.5327 0.241588 60.7109 0.735184C61.9051 1.22878 62.9082 1.94529 63.7203 2.88472L61.2364 5.17756C60.6313 4.54066 59.9705 4.07094 59.254 3.76842C58.5375 3.44997 57.7573 3.29074 56.9134 3.29074C56.1014 3.29074 55.361 3.41812 54.6922 3.67288C54.0235 3.92764 53.4423 4.29386 52.9487 4.77153C52.471 5.24921 52.0969 5.81446 51.8262 6.46728C51.5714 7.1201 51.444 7.84457 51.444 8.6407C51.444 9.4209 51.5714 10.1374 51.8262 10.7902C52.0969 11.4431 52.471 12.0163 52.9487 12.5099C53.4423 12.9875 54.0155 13.3538 54.6683 13.6085C55.3371 13.8633 56.0695 13.9907 56.8657 13.9907C57.6299 13.9907 58.3703 13.8712 59.0868 13.6324C59.8193 13.3776 60.5278 12.9557 61.2125 12.3666L63.4098 15.161C62.5022 15.8456 61.4434 16.3711 60.2333 16.7373C59.0391 17.1035 57.8449 17.2866 56.6507 17.2866ZM59.875 14.6594V8.37798H63.4098V15.161L59.875 14.6594ZM69.87 17V0.281393H73.7391V17H69.87ZM86.0661 17.2866C84.7286 17.2866 83.4469 17.1115 82.2208 16.7612C80.9948 16.3949 80.0076 15.9252 79.2593 15.352L80.5729 12.4382C81.2894 12.9477 82.1333 13.3697 83.1045 13.704C84.0917 14.0225 85.0869 14.1817 86.09 14.1817C86.8543 14.1817 87.4673 14.1101 87.929 13.9668C88.4067 13.8075 88.757 13.5926 88.9799 13.3219C89.2028 13.0512 89.3143 12.7407 89.3143 12.3904C89.3143 11.9446 89.1392 11.5943 88.7889 11.3396C88.4386 11.0689 87.9768 10.8539 87.4036 10.6947C86.8304 10.5195 86.1935 10.3603 85.4929 10.217C84.8082 10.0578 84.1156 9.86673 83.415 9.64381C82.7304 9.4209 82.1014 9.13429 81.5282 8.784C80.955 8.4337 80.4853 7.97195 80.1191 7.39874C79.7688 6.82553 79.5936 6.0931 79.5936 5.20144C79.5936 4.24609 79.8484 3.37832 80.3579 2.59811C80.8833 1.80199 81.6635 1.17305 82.6985 0.7113C83.7494 0.233626 85.063 -0.00521058 86.6393 -0.00521058C87.6902 -0.00521058 88.7252 0.122169 89.7442 0.376928C90.7632 0.615765 91.6629 0.981982 92.4431 1.47558L91.2489 4.41328C90.4687 3.96745 89.6885 3.64104 88.9083 3.43405C88.1281 3.21113 87.3638 3.09967 86.6154 3.09967C85.8671 3.09967 85.2541 3.18725 84.7764 3.36239C84.2987 3.53754 83.9564 3.76842 83.7494 4.05502C83.5424 4.3257 83.4389 4.64415 83.4389 5.01037C83.4389 5.44028 83.6141 5.79057 83.9643 6.06125C84.3146 6.31601 84.7764 6.52301 85.3496 6.68223C85.9228 6.84146 86.5517 7.00068 87.2364 7.15991C87.937 7.31913 88.6296 7.50224 89.3143 7.70923C90.0149 7.91622 90.6518 8.19487 91.225 8.54516C91.7982 8.89546 92.26 9.35721 92.6103 9.93042C92.9765 10.5036 93.1596 11.2281 93.1596 12.1038C93.1596 13.0433 92.8969 13.9031 92.3714 14.6833C91.846 15.4635 91.0578 16.0924 90.0069 16.5701C88.972 17.0478 87.6584 17.2866 86.0661 17.2866ZM101.899 17V3.43405H96.5494V0.281393H111.118V3.43405H105.769V17H101.899ZM116.066 17V0.281393H123.303C124.8 0.281393 126.09 0.528192 127.172 1.02179C128.255 1.49946 129.091 2.19209 129.68 3.09967C130.269 4.00725 130.564 5.08998 130.564 6.34786C130.564 7.58981 130.269 8.66458 129.68 9.57216C129.091 10.4638 128.255 11.1485 127.172 11.6262C126.09 12.1038 124.8 12.3427 123.303 12.3427H118.216L119.935 10.6469V17H116.066ZM126.695 17L122.515 10.9335H126.647L130.874 17H126.695ZM119.935 11.0768L118.216 9.26167H123.088C124.282 9.26167 125.174 9.00691 125.763 8.49739C126.352 7.97195 126.647 7.25544 126.647 6.34786C126.647 5.42436 126.352 4.70784 125.763 4.19832C125.174 3.68881 124.282 3.43405 123.088 3.43405H118.216L119.935 1.595V11.0768Z" fill="black"/>
<path d="M34.1096 32.079C33.2872 32.079 32.5272 31.9437 31.8297 31.673C31.1321 31.3919 30.5283 31.0015 30.0182 30.5018C29.508 30.0021 29.1072 29.4139 28.8157 28.7372C28.5346 28.0605 28.3941 27.3213 28.3941 26.5197C28.3941 25.718 28.5346 24.9788 28.8157 24.3021C29.1072 23.6254 29.508 23.0372 30.0182 22.5375C30.5387 22.0378 31.1477 21.6526 31.8453 21.3819C32.5428 21.1008 33.3028 20.9603 34.1253 20.9603C34.9165 20.9603 35.6609 21.0956 36.3584 21.3663C37.0559 21.6266 37.6441 22.0222 38.123 22.5531L37.3891 23.2871C36.9414 22.829 36.4469 22.5011 35.9055 22.3033C35.3641 22.095 34.7811 21.9909 34.1565 21.9909C33.5006 21.9909 32.8916 22.1055 32.3294 22.3345C31.7672 22.5531 31.2779 22.8706 30.8615 23.2871C30.445 23.6931 30.1171 24.172 29.8776 24.7238C29.6486 25.2651 29.5341 25.8638 29.5341 26.5197C29.5341 27.1755 29.6486 27.7794 29.8776 28.3311C30.1171 28.8725 30.445 29.3514 30.8615 29.7678C31.2779 30.1739 31.7672 30.4914 32.3294 30.7204C32.8916 30.9391 33.5006 31.0484 34.1565 31.0484C34.7811 31.0484 35.3641 30.9443 35.9055 30.736C36.4469 30.5278 36.9414 30.1947 37.3891 29.7366L38.123 30.4706C37.6441 31.0015 37.0559 31.4023 36.3584 31.673C35.6609 31.9437 34.9113 32.079 34.1096 32.079ZM43.4911 25.9419H49.2691V26.9257H43.4911V25.9419ZM43.616 30.9859H50.1905V31.9854H42.4604V21.054H49.9563V22.0534H43.616V30.9859ZM54.7808 31.9854V21.054H55.7334L63.2761 30.5487H62.7764V21.054H63.9164V31.9854H62.9638L55.4367 22.4907H55.9364V31.9854H54.7808ZM71.4821 31.9854V22.0534H67.6405V21.054H76.4793V22.0534H72.6377V31.9854H71.4821ZM81.2301 25.9419H87.0081V26.9257H81.2301V25.9419ZM81.355 30.9859H87.9294V31.9854H80.1994V21.054H87.6952V22.0534H81.355V30.9859ZM92.5198 31.9854V21.054H96.6112C97.5378 21.054 98.3342 21.2049 99.0005 21.5068C99.6668 21.7983 100.177 22.2252 100.531 22.7874C100.895 23.3391 101.077 24.0106 101.077 24.8019C101.077 25.5723 100.895 26.2386 100.531 26.8007C100.177 27.3525 99.6668 27.7794 99.0005 28.0813C98.3342 28.3728 97.5378 28.5185 96.6112 28.5185H93.16L93.6754 27.9876V31.9854H92.5198ZM99.9844 31.9854L97.1734 28.0188H98.4227L101.249 31.9854H99.9844ZM93.6754 28.0813L93.16 27.5347H96.58C97.6731 27.5347 98.5008 27.2953 99.063 26.8164C99.6356 26.3375 99.9219 25.666 99.9219 24.8019C99.9219 23.9274 99.6356 23.2506 99.063 22.7717C98.5008 22.2928 97.6731 22.0534 96.58 22.0534H93.16L93.6754 21.5068V28.0813Z" fill="black"/>
<path d="M17.7817 48V39.7876H24.5393V48H23.941V40.1395L24.1169 40.3273H18.204L18.38 40.1395V48H17.7817ZM31.1342 48.0469C30.5476 48.0469 30.0235 47.914 29.5621 47.648C29.1084 47.3821 28.7447 47.0145 28.471 46.5452C28.2051 46.0759 28.0721 45.5402 28.0721 44.9379C28.0721 44.3279 28.2051 43.7921 28.471 43.3307C28.7447 42.8614 29.1084 42.4938 29.5621 42.2278C30.0235 41.9619 30.5476 41.829 31.1342 41.829C31.7208 41.829 32.2448 41.9619 32.7063 42.2278C33.1677 42.4938 33.5314 42.8614 33.7973 43.3307C34.0633 43.7921 34.1962 44.3279 34.1962 44.9379C34.1962 45.5402 34.0633 46.0759 33.7973 46.5452C33.5314 47.0145 33.1677 47.3821 32.7063 47.648C32.2448 47.914 31.7208 48.0469 31.1342 48.0469ZM31.1342 47.519C31.6034 47.519 32.0258 47.4134 32.4012 47.2022C32.7767 46.9832 33.07 46.6782 33.2811 46.2871C33.4923 45.8961 33.5979 45.4463 33.5979 44.9379C33.5979 44.4217 33.4923 43.972 33.2811 43.5888C33.07 43.1977 32.7767 42.8966 32.4012 42.6854C32.0258 42.4664 31.6034 42.3569 31.1342 42.3569C30.6649 42.3569 30.2425 42.4664 29.8671 42.6854C29.4995 42.8966 29.2062 43.1977 28.9872 43.5888C28.776 43.972 28.6704 44.4217 28.6704 44.9379C28.6704 45.4463 28.776 45.8961 28.9872 46.2871C29.2062 46.6782 29.4995 46.9832 29.8671 47.2022C30.2425 47.4134 30.6649 47.519 31.1342 47.519ZM41.6799 47.7184V42.4038H38.4888L38.4184 43.929C38.4027 44.3592 38.3754 44.7893 38.3363 45.2195C38.2972 45.6419 38.2346 46.0329 38.1485 46.3927C38.0625 46.7447 37.9413 47.0302 37.7849 47.2492C37.6362 47.4681 37.4407 47.5894 37.1983 47.6128L36.6116 47.4838C36.8619 47.4994 37.0653 47.4095 37.2217 47.214C37.3781 47.0106 37.4994 46.7369 37.5854 46.3927C37.6714 46.0486 37.734 45.6614 37.7731 45.2312C37.82 44.7932 37.8552 44.3474 37.8787 43.8938L37.9608 41.8759H42.2665V47.7184H41.6799ZM36.3418 49.5252V47.4838H43.252V49.5252H42.7006V48H36.905V49.5252H36.3418ZM45.3599 48L47.9057 44.6916L47.894 44.9731L45.4889 41.8759H46.1577L48.2577 44.586H48.0113L50.0996 41.8759H50.7566L48.3281 45.0083L48.3398 44.6916L50.9209 48H50.2287L48.0113 45.1139L48.2342 45.1374L46.0286 48H45.3599ZM56.0377 48.0469C55.4511 48.0469 54.9271 47.914 54.4656 47.648C54.012 47.3821 53.6483 47.0145 53.3745 46.5452C53.1086 46.0759 52.9756 45.5402 52.9756 44.9379C52.9756 44.3279 53.1086 43.7921 53.3745 43.3307C53.6483 42.8614 54.012 42.4938 54.4656 42.2278C54.9271 41.9619 55.4511 41.829 56.0377 41.829C56.6243 41.829 57.1483 41.9619 57.6098 42.2278C58.0712 42.4938 58.4349 42.8614 58.7009 43.3307C58.9668 43.7921 59.0997 44.3279 59.0997 44.9379C59.0997 45.5402 58.9668 46.0759 58.7009 46.5452C58.4349 47.0145 58.0712 47.3821 57.6098 47.648C57.1483 47.914 56.6243 48.0469 56.0377 48.0469ZM56.0377 47.519C56.507 47.519 56.9293 47.4134 57.3047 47.2022C57.6802 46.9832 57.9735 46.6782 58.1847 46.2871C58.3958 45.8961 58.5014 45.4463 58.5014 44.9379C58.5014 44.4217 58.3958 43.972 58.1847 43.5888C57.9735 43.1977 57.6802 42.8966 57.3047 42.6854C56.9293 42.4664 56.507 42.3569 56.0377 42.3569C55.5684 42.3569 55.1461 42.4664 54.7706 42.6854C54.403 42.8966 54.1097 43.1977 53.8907 43.5888C53.6796 43.972 53.574 44.4217 53.574 44.9379C53.574 45.4463 53.6796 45.8961 53.8907 46.2871C54.1097 46.6782 54.403 46.9832 54.7706 47.2022C55.1461 47.4134 55.5684 47.519 56.0377 47.519ZM66.5834 47.7184V42.4038H63.3923L63.3219 43.929C63.3063 44.3592 63.2789 44.7893 63.2398 45.2195C63.2007 45.6419 63.1381 46.0329 63.0521 46.3927C62.966 46.7447 62.8448 47.0302 62.6884 47.2492C62.5398 47.4681 62.3442 47.5894 62.1018 47.6128L61.5152 47.4838C61.7655 47.4994 61.9688 47.4095 62.1252 47.214C62.2817 47.0106 62.4029 46.7369 62.4889 46.3927C62.575 46.0486 62.6375 45.6614 62.6766 45.2312C62.7236 44.7932 62.7588 44.3474 62.7822 43.8938L62.8644 41.8759H67.17V47.7184H66.5834ZM61.2453 49.5252V47.4838H68.1555V49.5252H67.6041V48H61.8085V49.5252H61.2453ZM71.2958 48V41.8759H71.8824V47.0966L76.2468 41.8759H76.763V48H76.1764V42.7792L71.812 48H71.2958ZM81.8152 48V42.2278L81.9795 42.4038H79.4219V41.8759H84.7952V42.4038H82.2376L82.4018 42.2278V48H81.8152ZM96.0684 47.7184V42.4038H92.8773L92.8069 43.929C92.7912 44.3592 92.7638 44.7893 92.7247 45.2195C92.6856 45.6419 92.6231 46.0329 92.537 46.3927C92.451 46.7447 92.3298 47.0302 92.1733 47.2492C92.0247 47.4681 91.8292 47.5894 91.5867 47.6128L91.0001 47.4838C91.2504 47.4994 91.4538 47.4095 91.6102 47.214C91.7666 47.0106 91.8879 46.7369 91.9739 46.3927C92.0599 46.0486 92.1225 45.6614 92.1616 45.2312C92.2085 44.7932 92.2437 44.3474 92.2672 43.8938L92.3493 41.8759H96.655V47.7184H96.0684ZM90.7303 49.5252V47.4838H97.6405V49.5252H97.0891V48H91.2934V49.5252H90.7303ZM99.5724 47.9765L99.6311 47.4721C99.678 47.4799 99.7249 47.4916 99.7719 47.5073C99.8266 47.5151 99.8735 47.519 99.9126 47.519C100.179 47.519 100.39 47.4212 100.546 47.2257C100.703 47.0223 100.82 46.7525 100.898 46.4162C100.984 46.0799 101.043 45.7005 101.074 45.2782C101.113 44.8558 101.145 44.4256 101.168 43.9876L101.274 41.8759H105.567V48H104.981V42.2161L105.145 42.4038H101.649L101.801 42.2044L101.708 44.0346C101.676 44.5664 101.633 45.0748 101.579 45.5597C101.524 46.0447 101.442 46.4748 101.332 46.8503C101.223 47.2257 101.066 47.5229 100.863 47.7419C100.66 47.9531 100.398 48.0587 100.077 48.0587C99.9987 48.0587 99.9165 48.0508 99.8305 48.0352C99.7523 48.0196 99.6663 48 99.5724 47.9765ZM113.487 48V45.7475L113.616 45.8882H111.445C110.679 45.8882 110.081 45.724 109.65 45.3955C109.228 45.0592 109.017 44.5664 109.017 43.9173C109.017 43.229 109.248 42.7167 109.709 42.3804C110.171 42.044 110.781 41.8759 111.539 41.8759H114.027V48H113.487ZM108.982 48L110.683 45.6419H111.305L109.627 48H108.982ZM113.487 45.5832V42.2161L113.616 42.3921H111.575C110.949 42.3921 110.464 42.5133 110.12 42.7558C109.776 42.9982 109.604 43.3932 109.604 43.9407C109.604 44.9419 110.237 45.4424 111.504 45.4424H113.616L113.487 45.5832ZM11.0299 57V50.8759H13.6109C14.2836 50.8759 14.8154 51.0088 15.2065 51.2748C15.5975 51.5407 15.7931 51.9279 15.7931 52.4362C15.7931 52.9368 15.6015 53.3161 15.2182 53.5742C14.8428 53.8324 14.3539 53.9614 13.7517 53.9614L13.916 53.7854C14.6355 53.7854 15.1635 53.9184 15.4998 54.1843C15.8361 54.4502 16.0043 54.8413 16.0043 55.3575C16.0043 55.8815 15.8126 56.2883 15.4294 56.5776C15.054 56.8592 14.4713 57 13.6813 57H11.0299ZM11.6047 56.519H13.6696C14.2405 56.519 14.6746 56.4251 14.9718 56.2374C15.269 56.0497 15.4177 55.7486 15.4177 55.3341C15.4177 54.9117 15.2847 54.6067 15.0188 54.419C14.7607 54.2234 14.3422 54.1257 13.7634 54.1257H11.6047V56.519ZM11.6047 53.6681H13.5757C14.0919 53.6681 14.4908 53.5703 14.7724 53.3748C15.0618 53.1793 15.2065 52.8899 15.2065 52.5066C15.2065 52.1234 15.0618 51.8379 14.7724 51.6502C14.4908 51.4547 14.0919 51.3569 13.5757 51.3569H11.6047V53.6681ZM21.9707 57.0469C21.3763 57.0469 20.8444 56.914 20.3752 56.648C19.9137 56.3821 19.5461 56.0145 19.2724 55.5452C19.0064 55.0759 18.8735 54.5402 18.8735 53.9379C18.8735 53.3279 19.0064 52.7882 19.2724 52.3189C19.5461 51.8496 19.9137 51.4859 20.3752 51.2278C20.8444 50.9619 21.3763 50.829 21.9707 50.829C22.4635 50.829 22.9093 50.9228 23.3082 51.1105C23.7149 51.2982 24.0434 51.5798 24.2937 51.9552L23.8596 52.272C23.6406 51.9591 23.3668 51.7284 23.0383 51.5798C22.7098 51.4312 22.354 51.3569 21.9707 51.3569C21.4936 51.3569 21.0634 51.4664 20.6802 51.6854C20.3048 51.8966 20.0076 52.1977 19.7886 52.5888C19.5774 52.972 19.4718 53.4217 19.4718 53.9379C19.4718 54.4541 19.5774 54.9078 19.7886 55.2989C20.0076 55.6821 20.3048 55.9832 20.6802 56.2022C21.0634 56.4134 21.4936 56.519 21.9707 56.519C22.354 56.519 22.7098 56.4447 23.0383 56.2961C23.3668 56.1475 23.6406 55.9167 23.8596 55.6039L24.2937 55.9207C24.0434 56.2961 23.7149 56.5776 23.3082 56.7654C22.9093 56.9531 22.4635 57.0469 21.9707 57.0469ZM29.8646 57.0469C29.2467 57.0469 28.6993 56.914 28.2222 56.648C27.7529 56.3821 27.3814 56.0145 27.1076 55.5452C26.8417 55.0759 26.7087 54.5402 26.7087 53.9379C26.7087 53.3279 26.8339 52.7921 27.0841 52.3307C27.3422 51.8614 27.6942 51.4938 28.14 51.2278C28.5858 50.9619 29.0864 50.829 29.6417 50.829C30.197 50.829 30.6937 50.958 31.1317 51.2161C31.5775 51.4742 31.9256 51.8379 32.1758 52.3072C32.4339 52.7686 32.563 53.3044 32.563 53.9145C32.563 53.9379 32.5591 53.9653 32.5513 53.9966C32.5513 54.0201 32.5513 54.0474 32.5513 54.0787H27.1428V53.6212H32.2345L31.9999 53.8441C32.0077 53.367 31.906 52.9407 31.6948 52.5653C31.4915 52.182 31.2138 51.8848 30.8619 51.6737C30.5099 51.4547 30.1032 51.3452 29.6417 51.3452C29.1881 51.3452 28.7814 51.4547 28.4216 51.6737C28.0696 51.8848 27.792 52.182 27.5886 52.5653C27.3853 52.9407 27.2836 53.3709 27.2836 53.8558V53.9614C27.2836 54.462 27.3931 54.9078 27.6121 55.2989C27.8389 55.6821 28.1478 55.9832 28.5389 56.2022C28.93 56.4134 29.3758 56.519 29.8764 56.519C30.2674 56.519 30.6311 56.4486 30.9674 56.3078C31.3116 56.167 31.601 55.9519 31.8356 55.6625L32.1758 56.0497C31.9099 56.3782 31.5736 56.6285 31.1669 56.8006C30.768 56.9648 30.3339 57.0469 29.8646 57.0469ZM34.6833 57L37.2291 53.6916L37.2174 53.9731L34.8123 50.8759H35.4811L37.5811 53.586H37.3347L39.423 50.8759H40.08L37.6515 54.0083L37.6632 53.6916L40.2443 57H39.5521L37.3347 54.1139L37.5576 54.1374L35.352 57H34.6833ZM47.5596 57V50.8759H50.1406C50.8132 50.8759 51.3451 51.0088 51.7362 51.2748C52.1272 51.5407 52.3228 51.9279 52.3228 52.4362C52.3228 52.9368 52.1311 53.3161 51.7479 53.5742C51.3725 53.8324 50.8836 53.9614 50.2814 53.9614L50.4456 53.7854C51.1652 53.7854 51.6931 53.9184 52.0295 54.1843C52.3658 54.4502 52.5339 54.8413 52.5339 55.3575C52.5339 55.8815 52.3423 56.2883 51.9591 56.5776C51.5836 56.8592 51.001 57 50.211 57H47.5596ZM48.1344 56.519H50.1993C50.7702 56.519 51.2043 56.4251 51.5015 56.2374C51.7987 56.0497 51.9473 55.7486 51.9473 55.3341C51.9473 54.9117 51.8144 54.6067 51.5484 54.419C51.2903 54.2234 50.8719 54.1257 50.2931 54.1257H48.1344V56.519ZM48.1344 53.6681H50.1054C50.6216 53.6681 51.0205 53.5703 51.3021 53.3748C51.5915 53.1793 51.7362 52.8899 51.7362 52.5066C51.7362 52.1234 51.5915 51.8379 51.3021 51.6502C51.0205 51.4547 50.6216 51.3569 50.1054 51.3569H48.1344V53.6681ZM58.4652 57.0469C57.8786 57.0469 57.3546 56.914 56.8931 56.648C56.4395 56.3821 56.0758 56.0145 55.802 55.5452C55.5361 55.0759 55.4032 54.5402 55.4032 53.9379C55.4032 53.3279 55.5361 52.7921 55.802 52.3307C56.0758 51.8614 56.4395 51.4938 56.8931 51.2278C57.3546 50.9619 57.8786 50.829 58.4652 50.829C59.0518 50.829 59.5758 50.9619 60.0373 51.2278C60.4988 51.4938 60.8625 51.8614 61.1284 52.3307C61.3943 52.7921 61.5273 53.3279 61.5273 53.9379C61.5273 54.5402 61.3943 55.0759 61.1284 55.5452C60.8625 56.0145 60.4988 56.3821 60.0373 56.648C59.5758 56.914 59.0518 57.0469 58.4652 57.0469ZM58.4652 56.519C58.9345 56.519 59.3568 56.4134 59.7323 56.2022C60.1077 55.9832 60.401 55.6782 60.6122 55.2871C60.8234 54.8961 60.9289 54.4463 60.9289 53.9379C60.9289 53.4217 60.8234 52.972 60.6122 52.5888C60.401 52.1977 60.1077 51.8966 59.7323 51.6854C59.3568 51.4664 58.9345 51.3569 58.4652 51.3569C57.9959 51.3569 57.5736 51.4664 57.1982 51.6854C56.8306 51.8966 56.5373 52.1977 56.3183 52.5888C56.1071 52.972 56.0015 53.4217 56.0015 53.9379C56.0015 54.4463 56.1071 54.8961 56.3183 55.2871C56.5373 55.6782 56.8306 55.9832 57.1982 56.2022C57.5736 56.4134 57.9959 56.519 58.4652 56.519ZM66.336 57.0587C65.9137 57.0587 65.4874 56.9922 65.0572 56.8592C64.6271 56.7263 64.2477 56.5229 63.9192 56.2492L64.1421 55.8151C64.4394 56.0653 64.7835 56.2531 65.1746 56.3782C65.5656 56.4955 65.9567 56.5503 66.3478 56.5425C66.7466 56.5425 67.0947 56.4838 67.3919 56.3665C67.6969 56.2492 67.9316 56.0888 68.0958 55.8855C68.2601 55.6821 68.3422 55.4553 68.3422 55.205C68.3422 54.8374 68.178 54.5519 67.8495 54.3486C67.521 54.1452 67.0712 54.0435 66.5003 54.0435H65.5148V53.5977H66.4768C66.8053 53.5977 67.0947 53.5547 67.345 53.4687C67.6031 53.3826 67.8025 53.2575 67.9433 53.0932C68.0919 52.9212 68.1662 52.7217 68.1662 52.4949C68.1662 52.2446 68.0802 52.0334 67.9081 51.8614C67.7439 51.6815 67.5171 51.5485 67.2277 51.4625C66.9461 51.3764 66.6293 51.3334 66.2774 51.3334C65.9723 51.3413 65.6556 51.3882 65.3271 51.4742C65.0064 51.5602 64.6896 51.6893 64.3768 51.8614L64.1891 51.3921C64.5332 51.2044 64.8813 51.0636 65.2332 50.9697C65.5852 50.8759 65.9411 50.825 66.3008 50.8172C66.7545 50.8094 67.169 50.872 67.5444 51.0049C67.9199 51.1301 68.2171 51.3139 68.4361 51.5563C68.6551 51.791 68.7646 52.0765 68.7646 52.4128C68.7646 52.7178 68.6707 52.9837 68.483 53.2106C68.3031 53.4296 68.0528 53.6016 67.7321 53.7268C67.4193 53.8519 67.0673 53.9145 66.6763 53.9145L66.7232 53.7268C67.4271 53.7268 67.9707 53.8636 68.3539 54.1374C68.745 54.4111 68.9405 54.7787 68.9405 55.2402C68.9405 55.6078 68.8232 55.9285 68.5886 56.2022C68.3539 56.476 68.0372 56.6871 67.6383 56.8358C67.2472 56.9844 66.8131 57.0587 66.336 57.0587ZM75.4913 57.0469C74.9516 57.0469 74.4628 56.9218 74.0248 56.6715C73.5946 56.4212 73.2505 56.0653 72.9924 55.6039C72.7421 55.1346 72.617 54.5793 72.617 53.9379C72.617 53.2966 72.7421 52.7452 72.9924 52.2837C73.2505 51.8144 73.5946 51.4547 74.0248 51.2044C74.4628 50.9541 74.9516 50.829 75.4913 50.829C76.0701 50.829 76.5863 50.9619 77.0399 51.2278C77.5014 51.4859 77.8612 51.8496 78.1193 52.3189C78.3852 52.7882 78.5182 53.3279 78.5182 53.9379C78.5182 54.548 78.3852 55.0877 78.1193 55.557C77.8612 56.0262 77.5014 56.3938 77.0399 56.6598C76.5863 56.9179 76.0701 57.0469 75.4913 57.0469ZM72.4175 59.276V50.8759H72.9807V52.8821L72.8868 53.9497L73.0041 55.0173V59.276H72.4175ZM75.4561 56.519C75.9254 56.519 76.3478 56.4134 76.7232 56.2022C77.0986 55.9832 77.3919 55.6782 77.6031 55.2871C77.8221 54.8961 77.9316 54.4463 77.9316 53.9379C77.9316 53.4217 77.8221 52.972 77.6031 52.5888C77.3919 52.1977 77.0986 51.8966 76.7232 51.6854C76.3478 51.4664 75.9254 51.3569 75.4561 51.3569C74.9868 51.3569 74.5645 51.4664 74.1891 51.6854C73.8215 51.8966 73.5282 52.1977 73.3092 52.5888C73.098 52.972 72.9924 53.4217 72.9924 53.9379C72.9924 54.4463 73.098 54.8961 73.3092 55.2871C73.5282 55.6782 73.8215 55.9832 74.1891 56.2022C74.5645 56.4134 74.9868 56.519 75.4561 56.519ZM85.6353 57V55.6039L85.6118 55.3927V53.0932C85.6118 52.5223 85.4554 52.0882 85.1426 51.791C84.8375 51.4938 84.3878 51.3452 83.7934 51.3452C83.371 51.3452 82.9761 51.4195 82.6084 51.5681C82.2487 51.7089 81.9397 51.8927 81.6816 52.1195L81.3883 51.6971C81.6933 51.4234 82.061 51.2122 82.4911 51.0636C82.9213 50.9072 83.371 50.829 83.8403 50.829C84.599 50.829 85.1817 51.0206 85.5884 51.4038C85.9951 51.7871 86.1984 52.358 86.1984 53.1167V57H85.6353ZM83.4297 57.0469C82.9761 57.0469 82.5811 56.9765 82.2448 56.8358C81.9163 56.6871 81.6621 56.4799 81.4822 56.214C81.3101 55.948 81.2241 55.643 81.2241 55.2989C81.2241 54.986 81.2945 54.7044 81.4352 54.4541C81.5838 54.196 81.8263 53.9888 82.1626 53.8324C82.4989 53.6681 82.9487 53.586 83.5118 53.586H85.7644V54.0435H83.5235C82.89 54.0435 82.4442 54.1608 82.1861 54.3955C81.9358 54.6301 81.8107 54.9234 81.8107 55.2754C81.8107 55.6665 81.9593 55.9793 82.2565 56.214C82.5537 56.4486 82.9721 56.5659 83.5118 56.5659C84.028 56.5659 84.4621 56.4486 84.8141 56.214C85.1739 55.9793 85.4398 55.6391 85.6118 55.1933L85.7761 55.5922C85.6118 56.038 85.3303 56.3938 84.9314 56.6598C84.5403 56.9179 84.0398 57.0469 83.4297 57.0469ZM92.4651 57.0469C91.8707 57.0469 91.3388 56.914 90.8695 56.648C90.4081 56.3821 90.0405 56.0145 89.7667 55.5452C89.5008 55.0759 89.3678 54.5402 89.3678 53.9379C89.3678 53.3279 89.5008 52.7882 89.7667 52.3189C90.0405 51.8496 90.4081 51.4859 90.8695 51.2278C91.3388 50.9619 91.8707 50.829 92.4651 50.829C92.9578 50.829 93.4036 50.9228 93.8025 51.1105C94.2092 51.2982 94.5377 51.5798 94.788 51.9552L94.3539 52.272C94.1349 51.9591 93.8612 51.7284 93.5327 51.5798C93.2042 51.4312 92.8483 51.3569 92.4651 51.3569C91.988 51.3569 91.5578 51.4664 91.1746 51.6854C90.7991 51.8966 90.5019 52.1977 90.2829 52.5888C90.0717 52.972 89.9662 53.4217 89.9662 53.9379C89.9662 54.4541 90.0717 54.9078 90.2829 55.2989C90.5019 55.6821 90.7991 55.9832 91.1746 56.2022C91.5578 56.4134 91.988 56.519 92.4651 56.519C92.8483 56.519 93.2042 56.4447 93.5327 56.2961C93.8612 56.1475 94.1349 55.9167 94.3539 55.6039L94.788 55.9207C94.5377 56.2961 94.2092 56.5776 93.8025 56.7654C93.4036 56.9531 92.9578 57.0469 92.4651 57.0469ZM98.9051 57V51.2278L99.0693 51.4038H96.5117V50.8759H101.885V51.4038H99.3274L99.4917 51.2278V57H98.9051ZM106.703 57.0469C106.116 57.0469 105.592 56.914 105.131 56.648C104.677 56.3821 104.313 56.0145 104.039 55.5452C103.774 55.0759 103.641 54.5402 103.641 53.9379C103.641 53.3279 103.774 52.7921 104.039 52.3307C104.313 51.8614 104.677 51.4938 105.131 51.2278C105.592 50.9619 106.116 50.829 106.703 50.829C107.289 50.829 107.813 50.9619 108.275 51.2278C108.736 51.4938 109.1 51.8614 109.366 52.3307C109.632 52.7921 109.765 53.3279 109.765 53.9379C109.765 54.5402 109.632 55.0759 109.366 55.5452C109.1 56.0145 108.736 56.3821 108.275 56.648C107.813 56.914 107.289 57.0469 106.703 57.0469ZM106.703 56.519C107.172 56.519 107.594 56.4134 107.97 56.2022C108.345 55.9832 108.638 55.6782 108.85 55.2871C109.061 54.8961 109.166 54.4463 109.166 53.9379C109.166 53.4217 109.061 52.972 108.85 52.5888C108.638 52.1977 108.345 51.8966 107.97 51.6854C107.594 51.4664 107.172 51.3569 106.703 51.3569C106.233 51.3569 105.811 51.4664 105.436 51.6854C105.068 51.8966 104.775 52.1977 104.556 52.5888C104.344 52.972 104.239 53.4217 104.239 53.9379C104.239 54.4463 104.344 54.8961 104.556 55.2871C104.775 55.6782 105.068 55.9832 105.436 56.2022C105.811 56.4134 106.233 56.519 106.703 56.519ZM113.083 57V50.8759H115.664C116.337 50.8759 116.868 51.0088 117.26 51.2748C117.651 51.5407 117.846 51.9279 117.846 52.4362C117.846 52.9368 117.655 53.3161 117.271 53.5742C116.896 53.8324 116.407 53.9614 115.805 53.9614L115.969 53.7854C116.689 53.7854 117.217 53.9184 117.553 54.1843C117.889 54.4502 118.057 54.8413 118.057 55.3575C118.057 55.8815 117.866 56.2883 117.482 56.5776C117.107 56.8592 116.524 57 115.734 57H113.083ZM113.658 56.519H115.723C116.294 56.519 116.728 56.4251 117.025 56.2374C117.322 56.0497 117.471 55.7486 117.471 55.3341C117.471 54.9117 117.338 54.6067 117.072 54.419C116.814 54.2234 116.395 54.1257 115.816 54.1257H113.658V56.519ZM113.658 53.6681H115.629C116.145 53.6681 116.544 53.5703 116.825 53.3748C117.115 53.1793 117.26 52.8899 117.26 52.5066C117.26 52.1234 117.115 51.8379 116.825 51.6502C116.544 51.4547 116.145 51.3569 115.629 51.3569H113.658V53.6681ZM121.537 54.6419L121.419 48.7876H122.1L121.982 54.6419H121.537ZM121.76 57.0469C121.627 57.0469 121.513 57 121.419 56.9061C121.325 56.8045 121.278 56.6911 121.278 56.5659C121.278 56.433 121.325 56.3195 121.419 56.2257C121.513 56.1318 121.627 56.0849 121.76 56.0849C121.9 56.0849 122.018 56.1318 122.111 56.2257C122.205 56.3195 122.252 56.433 122.252 56.5659C122.252 56.6911 122.205 56.8045 122.111 56.9061C122.018 57 121.9 57.0469 121.76 57.0469Z" fill="black"/>
</svg>
