<svg width="49" height="49" viewBox="0 0 49 49" fill="none" xmlns="http://www.w3.org/2000/svg">
<g clip-path="url(#clip0_916_192)">
<circle cx="24.809" cy="24.6808" r="21.6808" fill="#F6F6F6"/>
<path fill-rule="evenodd" clip-rule="evenodd" d="M19.0476 10.6789C20.5462 10.6099 21.024 10.5946 24.8415 10.5946C28.6589 10.5946 29.1368 10.6112 30.6341 10.6789C32.1315 10.7466 33.1535 10.9855 34.0479 11.3318C34.9843 11.6857 35.8339 12.2389 36.5366 12.9543C37.2521 13.6557 37.804 14.5041 38.1566 15.4418C38.5041 16.3361 38.7418 17.3582 38.8107 18.853C38.8797 20.3542 38.8951 20.832 38.8951 24.6482C38.8951 28.4656 38.8785 28.9435 38.8107 30.4421C38.743 31.9369 38.5041 32.959 38.1566 33.8533C37.804 34.7912 37.2512 35.6409 36.5366 36.3433C35.8339 37.0588 34.9843 37.6107 34.0479 37.9633C33.1535 38.3108 32.1315 38.5485 30.6367 38.6174C29.1368 38.6864 28.6589 38.7018 24.8415 38.7018C21.024 38.7018 20.5462 38.6852 19.0476 38.6174C17.5528 38.5497 16.5307 38.3108 15.6364 37.9633C14.6985 37.6106 13.8488 37.0578 13.1463 36.3433C12.4314 35.6415 11.8781 34.7922 11.5251 33.8546C11.1788 32.9602 10.9412 31.9382 10.8722 30.4434C10.8032 28.9422 10.7879 28.4644 10.7879 24.6482C10.7879 20.8307 10.8045 20.3529 10.8722 18.8556C10.9399 17.3582 11.1788 16.3361 11.5251 15.4418C11.8786 14.5042 12.4323 13.6549 13.1476 12.9531C13.8491 12.2382 14.698 11.685 15.6351 11.3318C16.5294 10.9855 17.5528 10.7479 19.0476 10.6789ZM30.5191 13.2086C29.0371 13.1409 28.5925 13.1268 24.8402 13.1268C21.0879 13.1268 20.6433 13.1409 19.1613 13.2086C17.7904 13.2712 17.0469 13.4999 16.5511 13.6928C15.8957 13.9483 15.4269 14.2511 14.935 14.743C14.4687 15.1966 14.1099 15.7488 13.8848 16.3591C13.6919 16.8548 13.4632 17.5984 13.4006 18.9693C13.3329 20.4513 13.3188 20.8959 13.3188 24.6482C13.3188 28.4005 13.3329 28.8451 13.4006 30.3271C13.4632 31.698 13.6919 32.4415 13.8848 32.9372C14.1097 33.5467 14.4687 34.0999 14.935 34.5534C15.3885 35.0197 15.9417 35.3787 16.5511 35.6036C17.0469 35.7965 17.7904 36.0252 19.1613 36.0878C20.6433 36.1555 21.0866 36.1696 24.8402 36.1696C28.5938 36.1696 29.0371 36.1555 30.5191 36.0878C31.89 36.0252 32.6336 35.7965 33.1293 35.6036C33.7847 35.3481 34.2535 35.0453 34.7454 34.5534C35.2117 34.0999 35.5708 33.5467 35.7956 32.9372C35.9885 32.4415 36.2172 31.698 36.2798 30.3271C36.3475 28.8451 36.3616 28.4005 36.3616 24.6482C36.3616 20.8959 36.3475 20.4513 36.2798 18.9693C36.2172 17.5984 35.9885 16.8548 35.7956 16.3591C35.5401 15.7037 35.2373 15.2348 34.7454 14.743C34.2918 14.2767 33.7396 13.9179 33.1293 13.6928C32.6336 13.4999 31.89 13.2712 30.5191 13.2086ZM23.0452 28.9805C24.0477 29.3978 25.1639 29.4541 26.2033 29.1399C27.2427 28.8256 28.1407 28.1602 28.744 27.2573C29.3473 26.3545 29.6185 25.2702 29.5112 24.1897C29.4038 23.1091 28.9247 22.0993 28.1556 21.3328C27.6653 20.8428 27.0724 20.4676 26.4197 20.2343C25.767 20.0009 25.0707 19.9151 24.3809 19.9832C23.6911 20.0512 23.0249 20.2714 22.4304 20.6277C21.8359 20.9841 21.3278 21.4679 20.9426 22.0442C20.5575 22.6206 20.305 23.2751 20.2032 23.9608C20.1014 24.6464 20.1529 25.3461 20.354 26.0095C20.555 26.6728 20.9007 27.2834 21.3661 27.7971C21.8314 28.3108 22.4049 28.715 23.0452 28.9805ZM19.7336 19.5403C20.4044 18.8696 21.2007 18.3375 22.0771 17.9745C22.9535 17.6115 23.8929 17.4246 24.8415 17.4246C25.7901 17.4246 26.7294 17.6115 27.6058 17.9745C28.4822 18.3375 29.2785 18.8696 29.9493 19.5403C30.6201 20.2111 31.1522 21.0074 31.5152 21.8838C31.8782 22.7602 32.0651 23.6996 32.0651 24.6482C32.0651 25.5968 31.8782 26.5361 31.5152 27.4125C31.1522 28.2889 30.6201 29.0853 29.9493 29.756C28.5946 31.1107 26.7573 31.8718 24.8415 31.8718C22.9257 31.8718 21.0883 31.1107 19.7336 29.756C18.379 28.4013 17.6179 26.564 17.6179 24.6482C17.6179 22.7324 18.379 20.895 19.7336 19.5403ZM33.6671 18.5004C33.8334 18.3436 33.9664 18.155 34.0585 17.9459C34.1505 17.7367 34.1996 17.5112 34.203 17.2827C34.2063 17.0543 34.1638 16.8274 34.0779 16.6157C33.992 16.4039 33.8644 16.2116 33.7029 16.05C33.5413 15.8884 33.3489 15.7609 33.1372 15.675C32.9254 15.5891 32.6986 15.5465 32.4701 15.5499C32.2416 15.5532 32.0161 15.6023 31.807 15.6944C31.5978 15.7864 31.4093 15.9195 31.2525 16.0857C30.9475 16.409 30.7806 16.8384 30.787 17.2827C30.7935 17.7271 30.9729 18.1514 31.2872 18.4657C31.6014 18.7799 32.0257 18.9593 32.4701 18.9658C32.9145 18.9723 33.3439 18.8053 33.6671 18.5004Z" fill="#C06AEE"/>
</g>
<defs>
<filter id="filter0_d_916_192" x="0.829983" y="0.701839" width="47.958" height="47.958" filterUnits="userSpaceOnUse" color-interpolation-filters="sRGB">
<feFlood flood-opacity="0" result="BackgroundImageFix"/>
<feColorMatrix in="SourceAlpha" type="matrix" values="0 0 0 0 0 0 0 0 0 0 0 0 0 0 0 0 0 0 127 0" result="hardAlpha"/>
<feOffset/>
<feGaussianBlur stdDeviation="1.14908"/>
<feComposite in2="hardAlpha" operator="out"/>
<feColorMatrix type="matrix" values="0 0 0 0 0 0 0 0 0 0 0 0 0 0 0 0 0 0 0.25 0"/>
<feBlend mode="normal" in2="BackgroundImageFix" result="effect1_dropShadow_916_192"/>
<feBlend mode="normal" in="SourceGraphic" in2="effect1_dropShadow_916_192" result="shape"/>
</filter>
<clipPath id="clip0_916_192">
<rect x="3.12814" y="3" width="43.3616" height="43.3616" rx="21.6808" fill="white"/>
</clipPath>
</defs>
</svg>
