<svg width="314" height="38" viewBox="0 0 314 38" fill="none" xmlns="http://www.w3.org/2000/svg">
<path d="M1.74379 20V5.2933H4.55908L10.8199 15.672H9.32825L15.4841 5.2933H18.2783L18.3203 20H15.1269L15.1059 10.1885H15.6941L10.7779 18.4453H9.24421L4.22292 10.1885H4.93725V20H1.74379ZM22.3978 20L28.9528 5.2933H32.3144L38.8904 20H35.3187L29.9403 7.01609H31.2849L25.8854 20H22.3978ZM25.6753 16.8486L26.5787 14.2644H34.1422L35.0666 16.8486H25.6753ZM49.8334 20.2521C48.6709 20.2521 47.5994 20.07 46.6189 19.7059C45.6525 19.3277 44.8051 18.7955 44.0768 18.1091C43.3624 17.4228 42.8022 16.6175 42.396 15.693C42.0038 14.7686 41.8077 13.7532 41.8077 12.6467C41.8077 11.5401 42.0038 10.5247 42.396 9.60026C42.8022 8.67584 43.3694 7.87048 44.0978 7.18416C44.8261 6.49785 45.6805 5.97261 46.6609 5.60845C47.6414 5.23027 48.7199 5.04119 49.8964 5.04119C51.199 5.04119 52.3685 5.25829 53.405 5.69248C54.4555 6.12668 55.3379 6.75697 56.0522 7.58335L53.8672 9.60026C53.335 9.04001 52.7537 8.62682 52.1234 8.3607C51.4931 8.08057 50.8068 7.94051 50.0645 7.94051C49.3502 7.94051 48.6989 8.05256 48.1106 8.27666C47.5223 8.50076 47.0111 8.82291 46.5769 9.2431C46.1567 9.66329 45.8276 10.1605 45.5894 10.7348C45.3653 11.309 45.2533 11.9463 45.2533 12.6467C45.2533 13.333 45.3653 13.9633 45.5894 14.5375C45.8276 15.1118 46.1567 15.616 46.5769 16.0502C47.0111 16.4704 47.5153 16.7925 48.0896 17.0166C48.6779 17.2407 49.3221 17.3528 50.0225 17.3528C50.6948 17.3528 51.3461 17.2477 51.9764 17.0377C52.6207 16.8135 53.2439 16.4424 53.8462 15.9241L55.7791 18.3823C54.9807 18.9845 54.0493 19.4467 52.9848 19.7689C51.9343 20.091 50.8839 20.2521 49.8334 20.2521ZM52.6697 17.9411V12.4155H55.7791V18.3823L52.6697 17.9411ZM61.4618 20V5.2933H64.8654V20H61.4618ZM75.709 20.2521C74.5324 20.2521 73.4049 20.098 72.3264 19.7899C71.2479 19.4678 70.3795 19.0546 69.7212 18.5503L70.8768 15.9872C71.507 16.4354 72.2494 16.8065 73.1038 17.1007C73.9722 17.3808 74.8476 17.5209 75.73 17.5209C76.4023 17.5209 76.9415 17.4578 77.3477 17.3318C77.7679 17.1917 78.076 17.0026 78.2721 16.7645C78.4682 16.5264 78.5663 16.2533 78.5663 15.9452C78.5663 15.553 78.4122 15.2448 78.1041 15.0207C77.7959 14.7826 77.3897 14.5935 76.8855 14.4535C76.3813 14.2994 75.821 14.1593 75.2047 14.0333C74.6025 13.8932 73.9932 13.7251 73.3769 13.5291C72.7746 13.333 72.2214 13.0808 71.7171 12.7727C71.2129 12.4646 70.7997 12.0584 70.4776 11.5542C70.1694 11.0499 70.0154 10.4056 70.0154 9.62127C70.0154 8.78089 70.2395 8.01754 70.6877 7.33123C71.1499 6.63091 71.8362 6.07766 72.7466 5.67147C73.671 5.25128 74.8266 5.04119 76.2132 5.04119C77.1376 5.04119 78.048 5.15324 78.9444 5.37734C79.8408 5.58744 80.6322 5.90958 81.3185 6.34378L80.268 8.92796C79.5817 8.53578 78.8954 8.24865 78.2091 8.06657C77.5228 7.87048 76.8505 7.77243 76.1922 7.77243C75.5339 7.77243 74.9946 7.84947 74.5744 8.00354C74.1543 8.15761 73.8531 8.3607 73.671 8.61281C73.4889 8.85092 73.3979 9.13105 73.3979 9.4532C73.3979 9.83137 73.552 10.1395 73.8601 10.3776C74.1683 10.6017 74.5744 10.7838 75.0787 10.9239C75.5829 11.0639 76.1362 11.204 76.7384 11.3441C77.3547 11.4841 77.964 11.6452 78.5663 11.8273C79.1825 12.0094 79.7428 12.2545 80.247 12.5626C80.7513 12.8708 81.1574 13.2769 81.4656 13.7812C81.7877 14.2854 81.9488 14.9227 81.9488 15.693C81.9488 16.5194 81.7177 17.2758 81.2555 17.9621C80.7933 18.6484 80.1 19.2016 79.1755 19.6218C78.2651 20.042 77.1096 20.2521 75.709 20.2521ZM89.6368 20V8.06657H84.9307V5.2933H97.7465V8.06657H93.0404V20H89.6368ZM102.099 20V5.2933H108.465C109.781 5.2933 110.916 5.5104 111.868 5.9446C112.821 6.36479 113.556 6.97407 114.074 7.77243C114.593 8.57079 114.852 9.52323 114.852 10.6297C114.852 11.7222 114.593 12.6677 114.074 13.466C113.556 14.2504 112.821 14.8527 111.868 15.2728C110.916 15.693 109.781 15.9031 108.465 15.9031H103.99L105.503 14.4115V20H102.099ZM111.448 20L107.772 14.6636H111.406L115.125 20H111.448ZM105.503 14.7896L103.99 13.1929H108.276C109.326 13.1929 110.111 12.9688 110.629 12.5206C111.147 12.0584 111.406 11.4281 111.406 10.6297C111.406 9.81736 111.147 9.18708 110.629 8.73887C110.111 8.29067 109.326 8.06657 108.276 8.06657H103.99L105.503 6.44883V14.7896Z" fill="black"/>
<path d="M30.0049 33.0233C29.2814 33.0233 28.6129 32.9043 27.9993 32.6662C27.3857 32.4189 26.8545 32.0755 26.4058 31.6359C25.9571 31.1963 25.6045 30.6789 25.348 30.0836C25.1008 29.4883 24.9771 28.8381 24.9771 28.133C24.9771 27.4278 25.1008 26.7776 25.348 26.1823C25.6045 25.587 25.9571 25.0696 26.4058 24.63C26.8637 24.1904 27.3994 23.8516 28.013 23.6135C28.6266 23.3662 29.2951 23.2426 30.0186 23.2426C30.7146 23.2426 31.3694 23.3616 31.983 23.5997C32.5966 23.8287 33.114 24.1767 33.5353 24.6438L32.8897 25.2894C32.4959 24.8864 32.0609 24.598 31.5847 24.424C31.1084 24.2408 30.5956 24.1492 30.0461 24.1492C29.4692 24.1492 28.9334 24.25 28.4389 24.4514C27.9443 24.6438 27.5139 24.9231 27.1476 25.2894C26.7813 25.6466 26.4928 26.0678 26.2822 26.5532C26.0807 27.0294 25.9799 27.556 25.9799 28.133C25.9799 28.7099 26.0807 29.2411 26.2822 29.7265C26.4928 30.2027 26.7813 30.6239 27.1476 30.9903C27.5139 31.3474 27.9443 31.6267 28.4389 31.8282C28.9334 32.0205 29.4692 32.1167 30.0461 32.1167C30.5956 32.1167 31.1084 32.0251 31.5847 31.842C32.0609 31.6588 32.4959 31.3657 32.8897 30.9628L33.5353 31.6084C33.114 32.0755 32.5966 32.4281 31.983 32.6662C31.3694 32.9043 30.7101 33.0233 30.0049 33.0233ZM38.2574 27.6247H43.3401V28.4901H38.2574V27.6247ZM38.3673 32.0617H44.1506V32.9409H37.3508V23.325H43.9445V24.2042H38.3673V32.0617ZM48.1885 32.9409V23.325H49.0265L55.6615 31.6771H55.2219V23.325H56.2247V32.9409H55.3867L48.7655 24.5888H49.2051V32.9409H48.1885ZM62.88 32.9409V24.2042H59.5006V23.325H67.2758V24.2042H63.8965V32.9409H62.88ZM71.4549 27.6247H76.5376V28.4901H71.4549V27.6247ZM71.5648 32.0617H77.348V32.9409H70.5482V23.325H77.142V24.2042H71.5648V32.0617ZM81.386 32.9409V23.325H84.9851C85.8001 23.325 86.5007 23.4578 87.0868 23.7234C87.673 23.9798 88.1217 24.3553 88.4331 24.8498C88.7536 25.3352 88.9139 25.9259 88.9139 26.6219C88.9139 27.2996 88.7536 27.8857 88.4331 28.3802C88.1217 28.8656 87.673 29.2411 87.0868 29.5067C86.5007 29.7631 85.8001 29.8913 84.9851 29.8913H81.9492L82.4025 29.4242V32.9409H81.386ZM87.9523 32.9409L85.4796 29.4517H86.5786L89.065 32.9409H87.9523ZM82.4025 29.5067L81.9492 29.0259H84.9576C85.9192 29.0259 86.6473 28.8152 87.1418 28.394C87.6455 27.9727 87.8973 27.382 87.8973 26.6219C87.8973 25.8526 87.6455 25.2573 87.1418 24.8361C86.6473 24.4148 85.9192 24.2042 84.9576 24.2042H81.9492L82.4025 23.7234V29.5067Z" fill="black"/>
<path d="M190.82 22.6686V14.3316H186.075L185.995 16.8235C185.969 17.5569 185.925 18.2594 185.863 18.9309C185.801 19.6025 185.708 20.2077 185.585 20.7468C185.461 21.2769 185.289 21.7055 185.068 22.0324C184.856 22.3594 184.586 22.5361 184.259 22.5626L183.477 22.3903C183.848 22.4168 184.149 22.2887 184.378 22.0059C184.617 21.7232 184.803 21.3211 184.935 20.7998C185.077 20.2784 185.178 19.6732 185.24 18.9839C185.302 18.2947 185.346 17.5569 185.373 16.7704L185.465 13.7219H191.496V22.6686H190.82ZM183.133 25.1207L183.146 22.3903H192.928V25.1207H192.278V23H183.795L183.782 25.1207H183.133ZM195.076 22.9735L195.143 22.4036C195.196 22.4124 195.249 22.4256 195.302 22.4433C195.364 22.4522 195.417 22.4566 195.461 22.4566C195.761 22.4566 196 22.3461 196.177 22.1252C196.353 21.8955 196.486 21.5906 196.574 21.2107C196.671 20.8307 196.738 20.4021 196.773 19.925C196.817 19.4478 196.853 18.9618 196.879 18.467L196.998 16.0812H201.849V23H201.187V16.4656L201.372 16.6777H197.423L197.595 16.4523L197.489 18.52C197.453 19.1209 197.405 19.6952 197.343 20.2431C197.281 20.7909 197.188 21.2769 197.065 21.7011C196.941 22.1252 196.764 22.461 196.534 22.7084C196.305 22.947 196.009 23.0663 195.646 23.0663C195.558 23.0663 195.465 23.0574 195.368 23.0398C195.28 23.0221 195.183 23 195.076 22.9735ZM210.796 23V20.4552L210.942 20.6142H208.49C207.624 20.6142 206.948 20.4287 206.462 20.0575C205.985 19.6776 205.747 19.1209 205.747 18.3875C205.747 17.6099 206.007 17.0311 206.529 16.6512C207.05 16.2712 207.739 16.0812 208.596 16.0812H211.406V23H210.796ZM205.707 23L207.629 20.3359H208.331L206.436 23H205.707ZM210.796 20.2696V16.4656L210.942 16.6644H208.636C207.929 16.6644 207.381 16.8014 206.992 17.0753C206.604 17.3492 206.409 17.7954 206.409 18.414C206.409 19.545 207.125 20.1105 208.557 20.1105H210.942L210.796 20.2696ZM221.803 23V14.0135L222.108 14.3316H219.537V13.7219H222.479V23H221.803ZM226.502 19.7394V19.143H229.909V19.7394H226.502ZM234.498 23V14.0135L234.803 14.3316H232.231V13.7219H235.174V23H234.498ZM240.761 23V14.0135L241.066 14.3316H238.495V13.7219H241.437V23H240.761ZM256.168 23L253.199 19.5406L253.755 19.2225L256.963 23H256.168ZM251.065 23V16.0812H251.727V23H251.065ZM251.515 19.7924V19.2225H253.689V19.7924H251.515ZM253.795 19.6069L253.185 19.5008L256.022 16.0812H256.751L253.795 19.6069ZM258.823 22.9735L258.89 22.4036C258.943 22.4124 258.996 22.4256 259.049 22.4433C259.11 22.4522 259.164 22.4566 259.208 22.4566C259.508 22.4566 259.747 22.3461 259.923 22.1252C260.1 21.8955 260.233 21.5906 260.321 21.2107C260.418 20.8307 260.485 20.4021 260.52 19.925C260.564 19.4478 260.599 18.9618 260.626 18.467L260.745 16.0812H265.596V23H264.934V16.4656L265.119 16.6777H261.169L261.342 16.4523L261.236 18.52C261.2 19.1209 261.152 19.6952 261.09 20.2431C261.028 20.7909 260.935 21.2769 260.811 21.7011C260.688 22.1252 260.511 22.461 260.281 22.7084C260.052 22.947 259.756 23.0663 259.393 23.0663C259.305 23.0663 259.212 23.0574 259.115 23.0398C259.027 23.0221 258.929 23 258.823 22.9735ZM274.371 23V21.4227L274.345 21.1842V18.5863C274.345 17.9412 274.168 17.4508 273.814 17.1151C273.47 16.7793 272.962 16.6114 272.29 16.6114C271.813 16.6114 271.367 16.6953 270.951 16.8632C270.545 17.0223 270.196 17.2299 269.904 17.4862L269.573 17.009C269.918 16.6998 270.333 16.4612 270.819 16.2933C271.305 16.1166 271.813 16.0282 272.343 16.0282C273.2 16.0282 273.859 16.2447 274.318 16.6777C274.777 17.1106 275.007 17.7557 275.007 18.6128V23H274.371ZM271.879 23.053C271.367 23.053 270.92 22.9735 270.54 22.8144C270.169 22.6465 269.882 22.4124 269.679 22.112C269.485 21.8115 269.387 21.4669 269.387 21.0781C269.387 20.7247 269.467 20.4066 269.626 20.1238C269.794 19.8322 270.068 19.598 270.448 19.4213C270.828 19.2358 271.336 19.143 271.972 19.143H274.517V19.6599H271.985C271.269 19.6599 270.766 19.7924 270.474 20.0575C270.191 20.3226 270.05 20.654 270.05 21.0516C270.05 21.4934 270.218 21.8469 270.554 22.112C270.89 22.377 271.362 22.5096 271.972 22.5096C272.555 22.5096 273.046 22.377 273.443 22.112C273.85 21.8469 274.15 21.4625 274.345 20.9588L274.53 21.4095C274.345 21.9131 274.026 22.3152 273.576 22.6156C273.134 22.9072 272.568 23.053 271.879 23.053ZM282.087 23.053C281.415 23.053 280.815 22.9028 280.284 22.6024C279.763 22.3019 279.348 21.8866 279.039 21.3565C278.738 20.8263 278.588 20.221 278.588 19.5406C278.588 18.8514 278.738 18.2417 279.039 17.7115C279.348 17.1813 279.763 16.7704 280.284 16.4788C280.815 16.1784 281.415 16.0282 282.087 16.0282C282.644 16.0282 283.147 16.1342 283.598 16.3463C284.058 16.5584 284.429 16.8765 284.711 17.3006L284.221 17.6585C283.974 17.305 283.664 17.0444 283.293 16.8765C282.922 16.7086 282.52 16.6246 282.087 16.6246C281.548 16.6246 281.062 16.7484 280.629 16.9958C280.205 17.2343 279.869 17.5745 279.622 18.0164C279.383 18.4493 279.264 18.9574 279.264 19.5406C279.264 20.1238 279.383 20.6363 279.622 21.0781C279.869 21.5111 280.205 21.8513 280.629 22.0987C281.062 22.3373 281.548 22.4566 282.087 22.4566C282.52 22.4566 282.922 22.3726 283.293 22.2047C283.664 22.0368 283.974 21.7762 284.221 21.4227L284.711 21.7806C284.429 22.2047 284.058 22.5228 283.598 22.7349C283.147 22.947 282.644 23.053 282.087 23.053ZM290.939 23.053C290.267 23.053 289.667 22.9028 289.136 22.6024C288.615 22.3019 288.2 21.8866 287.89 21.3565C287.59 20.8263 287.44 20.221 287.44 19.5406C287.44 18.8514 287.59 18.2417 287.89 17.7115C288.2 17.1813 288.615 16.7704 289.136 16.4788C289.667 16.1784 290.267 16.0282 290.939 16.0282C291.496 16.0282 291.999 16.1342 292.45 16.3463C292.909 16.5584 293.281 16.8765 293.563 17.3006L293.073 17.6585C292.826 17.305 292.516 17.0444 292.145 16.8765C291.774 16.7086 291.372 16.6246 290.939 16.6246C290.4 16.6246 289.914 16.7484 289.481 16.9958C289.057 17.2343 288.721 17.5745 288.474 18.0164C288.235 18.4493 288.116 18.9574 288.116 19.5406C288.116 20.1238 288.235 20.6363 288.474 21.0781C288.721 21.5111 289.057 21.8513 289.481 22.0987C289.914 22.3373 290.4 22.4566 290.939 22.4566C291.372 22.4566 291.774 22.3726 292.145 22.2047C292.516 22.0368 292.826 21.7762 293.073 21.4227L293.563 21.7806C293.281 22.2047 292.909 22.5228 292.45 22.7349C291.999 22.947 291.496 23.053 290.939 23.053ZM299.751 23.053C299.088 23.053 298.496 22.9028 297.975 22.6024C297.463 22.3019 297.052 21.8866 296.742 21.3565C296.442 20.8263 296.292 20.221 296.292 19.5406C296.292 18.8514 296.442 18.2461 296.742 17.7248C297.052 17.1946 297.463 16.7793 297.975 16.4788C298.496 16.1784 299.088 16.0282 299.751 16.0282C300.414 16.0282 301.006 16.1784 301.527 16.4788C302.049 16.7793 302.459 17.1946 302.76 17.7248C303.06 18.2461 303.211 18.8514 303.211 19.5406C303.211 20.221 303.06 20.8263 302.76 21.3565C302.459 21.8866 302.049 22.3019 301.527 22.6024C301.006 22.9028 300.414 23.053 299.751 23.053ZM299.751 22.4566C300.281 22.4566 300.759 22.3373 301.183 22.0987C301.607 21.8513 301.938 21.5067 302.177 21.0649C302.415 20.623 302.535 20.115 302.535 19.5406C302.535 18.9574 302.415 18.4493 302.177 18.0164C301.938 17.5745 301.607 17.2343 301.183 16.9958C300.759 16.7484 300.281 16.6246 299.751 16.6246C299.221 16.6246 298.744 16.7484 298.32 16.9958C297.904 17.2343 297.573 17.5745 297.326 18.0164C297.087 18.4493 296.968 18.9574 296.968 19.5406C296.968 20.115 297.087 20.623 297.326 21.0649C297.573 21.5067 297.904 21.8513 298.32 22.0987C298.744 22.3373 299.221 22.4566 299.751 22.4566ZM306.959 23V16.0812H309.875C310.635 16.0812 311.236 16.2314 311.678 16.5319C312.12 16.8323 312.341 17.2697 312.341 17.844C312.341 18.4096 312.124 18.8381 311.691 19.1297C311.267 19.4213 310.715 19.5671 310.034 19.5671L310.22 19.3683C311.033 19.3683 311.629 19.5185 312.009 19.8189C312.389 20.1194 312.579 20.5612 312.579 21.1444C312.579 21.7364 312.363 22.1959 311.93 22.5228C311.506 22.8409 310.847 23 309.955 23H306.959ZM307.609 22.4566H309.942C310.587 22.4566 311.077 22.3505 311.413 22.1385C311.749 21.9264 311.917 21.5862 311.917 21.1179C311.917 20.6407 311.766 20.2961 311.466 20.084C311.174 19.8631 310.702 19.7527 310.048 19.7527H307.609V22.4566ZM307.609 19.2358H309.836C310.419 19.2358 310.869 19.1253 311.188 18.9044C311.514 18.6835 311.678 18.3565 311.678 17.9236C311.678 17.4906 311.514 17.1681 311.188 16.956C310.869 16.7351 310.419 16.6246 309.836 16.6246H307.609V19.2358Z" fill="black"/>
<path d="M157 38L157 0" stroke="black"/>
</svg>
