<svg width="314" height="38" viewBox="0 0 314 38" fill="none" xmlns="http://www.w3.org/2000/svg">
<path d="M1.74379 20V5.2933H4.55908L10.8199 15.672H9.32825L15.4841 5.2933H18.2783L18.3203 20H15.1269L15.1059 10.1885H15.6941L10.7779 18.4453H9.24421L4.22292 10.1885H4.93725V20H1.74379ZM22.3978 20L28.9528 5.2933H32.3144L38.8904 20H35.3187L29.9403 7.01609H31.2849L25.8854 20H22.3978ZM25.6753 16.8486L26.5787 14.2644H34.1422L35.0666 16.8486H25.6753ZM49.8334 20.2521C48.6709 20.2521 47.5994 20.07 46.6189 19.7059C45.6525 19.3277 44.8051 18.7955 44.0768 18.1091C43.3624 17.4228 42.8022 16.6175 42.396 15.693C42.0038 14.7686 41.8077 13.7532 41.8077 12.6467C41.8077 11.5401 42.0038 10.5247 42.396 9.60026C42.8022 8.67584 43.3694 7.87048 44.0978 7.18416C44.8261 6.49785 45.6805 5.97261 46.6609 5.60845C47.6414 5.23027 48.7199 5.04119 49.8964 5.04119C51.199 5.04119 52.3685 5.25829 53.405 5.69248C54.4555 6.12668 55.3379 6.75697 56.0522 7.58335L53.8672 9.60026C53.335 9.04001 52.7537 8.62682 52.1234 8.3607C51.4931 8.08057 50.8068 7.94051 50.0645 7.94051C49.3502 7.94051 48.6989 8.05256 48.1106 8.27666C47.5223 8.50076 47.0111 8.82291 46.5769 9.2431C46.1567 9.66329 45.8276 10.1605 45.5894 10.7348C45.3653 11.309 45.2533 11.9463 45.2533 12.6467C45.2533 13.333 45.3653 13.9633 45.5894 14.5375C45.8276 15.1118 46.1567 15.616 46.5769 16.0502C47.0111 16.4704 47.5153 16.7925 48.0896 17.0166C48.6779 17.2407 49.3221 17.3528 50.0225 17.3528C50.6948 17.3528 51.3461 17.2477 51.9764 17.0377C52.6207 16.8135 53.2439 16.4424 53.8462 15.9241L55.7791 18.3823C54.9807 18.9845 54.0493 19.4467 52.9848 19.7689C51.9343 20.091 50.8839 20.2521 49.8334 20.2521ZM52.6697 17.9411V12.4155H55.7791V18.3823L52.6697 17.9411ZM61.4618 20V5.2933H64.8654V20H61.4618ZM75.709 20.2521C74.5324 20.2521 73.4049 20.098 72.3264 19.7899C71.2479 19.4678 70.3795 19.0546 69.7212 18.5503L70.8768 15.9872C71.507 16.4354 72.2494 16.8065 73.1038 17.1007C73.9722 17.3808 74.8476 17.5209 75.73 17.5209C76.4023 17.5209 76.9415 17.4578 77.3477 17.3318C77.7679 17.1917 78.076 17.0026 78.2721 16.7645C78.4682 16.5264 78.5663 16.2533 78.5663 15.9452C78.5663 15.553 78.4122 15.2448 78.1041 15.0207C77.7959 14.7826 77.3897 14.5935 76.8855 14.4535C76.3813 14.2994 75.821 14.1593 75.2047 14.0333C74.6025 13.8932 73.9932 13.7251 73.3769 13.5291C72.7746 13.333 72.2214 13.0808 71.7171 12.7727C71.2129 12.4646 70.7997 12.0584 70.4776 11.5542C70.1694 11.0499 70.0154 10.4056 70.0154 9.62127C70.0154 8.78089 70.2395 8.01754 70.6877 7.33123C71.1499 6.63091 71.8362 6.07766 72.7466 5.67147C73.671 5.25128 74.8266 5.04119 76.2132 5.04119C77.1376 5.04119 78.048 5.15324 78.9444 5.37734C79.8408 5.58744 80.6322 5.90958 81.3185 6.34378L80.268 8.92796C79.5817 8.53578 78.8954 8.24865 78.2091 8.06657C77.5228 7.87048 76.8505 7.77243 76.1922 7.77243C75.5339 7.77243 74.9946 7.84947 74.5744 8.00354C74.1543 8.15761 73.8531 8.3607 73.671 8.61281C73.4889 8.85092 73.3979 9.13105 73.3979 9.4532C73.3979 9.83137 73.552 10.1395 73.8601 10.3776C74.1683 10.6017 74.5744 10.7838 75.0787 10.9239C75.5829 11.0639 76.1362 11.204 76.7384 11.3441C77.3547 11.4841 77.964 11.6452 78.5663 11.8273C79.1825 12.0094 79.7428 12.2545 80.247 12.5626C80.7513 12.8708 81.1574 13.2769 81.4656 13.7812C81.7877 14.2854 81.9488 14.9227 81.9488 15.693C81.9488 16.5194 81.7177 17.2758 81.2555 17.9621C80.7933 18.6484 80.1 19.2016 79.1755 19.6218C78.2651 20.042 77.1096 20.2521 75.709 20.2521ZM89.6368 20V8.06657H84.9307V5.2933H97.7465V8.06657H93.0404V20H89.6368ZM102.099 20V5.2933H108.465C109.781 5.2933 110.916 5.5104 111.868 5.9446C112.821 6.36479 113.556 6.97407 114.074 7.77243C114.593 8.57079 114.852 9.52323 114.852 10.6297C114.852 11.7222 114.593 12.6677 114.074 13.466C113.556 14.2504 112.821 14.8527 111.868 15.2728C110.916 15.693 109.781 15.9031 108.465 15.9031H103.99L105.503 14.4115V20H102.099ZM111.448 20L107.772 14.6636H111.406L115.125 20H111.448ZM105.503 14.7896L103.99 13.1929H108.276C109.326 13.1929 110.111 12.9688 110.629 12.5206C111.147 12.0584 111.406 11.4281 111.406 10.6297C111.406 9.81736 111.147 9.18708 110.629 8.73887C110.111 8.29067 109.326 8.06657 108.276 8.06657H103.99L105.503 6.44883V14.7896Z" fill="black"/>
<path d="M30.0049 33.0233C29.2814 33.0233 28.6129 32.9043 27.9993 32.6662C27.3857 32.4189 26.8545 32.0755 26.4058 31.6359C25.9571 31.1963 25.6045 30.6789 25.348 30.0836C25.1008 29.4883 24.9771 28.8381 24.9771 28.133C24.9771 27.4278 25.1008 26.7776 25.348 26.1823C25.6045 25.587 25.9571 25.0696 26.4058 24.63C26.8637 24.1904 27.3994 23.8516 28.013 23.6135C28.6266 23.3662 29.2951 23.2426 30.0186 23.2426C30.7146 23.2426 31.3694 23.3616 31.983 23.5997C32.5966 23.8287 33.114 24.1767 33.5353 24.6438L32.8897 25.2894C32.4959 24.8864 32.0609 24.598 31.5847 24.424C31.1084 24.2408 30.5956 24.1492 30.0461 24.1492C29.4692 24.1492 28.9334 24.25 28.4389 24.4514C27.9443 24.6438 27.5139 24.9231 27.1476 25.2894C26.7813 25.6466 26.4928 26.0678 26.2822 26.5532C26.0807 27.0294 25.9799 27.556 25.9799 28.133C25.9799 28.7099 26.0807 29.2411 26.2822 29.7265C26.4928 30.2027 26.7813 30.6239 27.1476 30.9903C27.5139 31.3474 27.9443 31.6267 28.4389 31.8282C28.9334 32.0205 29.4692 32.1167 30.0461 32.1167C30.5956 32.1167 31.1084 32.0251 31.5847 31.842C32.0609 31.6588 32.4959 31.3657 32.8897 30.9628L33.5353 31.6084C33.114 32.0755 32.5966 32.4281 31.983 32.6662C31.3694 32.9043 30.7101 33.0233 30.0049 33.0233ZM38.2574 27.6247H43.3401V28.4901H38.2574V27.6247ZM38.3673 32.0617H44.1506V32.9409H37.3508V23.325H43.9445V24.2042H38.3673V32.0617ZM48.1885 32.9409V23.325H49.0265L55.6615 31.6771H55.2219V23.325H56.2247V32.9409H55.3867L48.7655 24.5888H49.2051V32.9409H48.1885ZM62.88 32.9409V24.2042H59.5006V23.325H67.2758V24.2042H63.8965V32.9409H62.88ZM71.4549 27.6247H76.5376V28.4901H71.4549V27.6247ZM71.5648 32.0617H77.348V32.9409H70.5482V23.325H77.142V24.2042H71.5648V32.0617ZM81.386 32.9409V23.325H84.9851C85.8001 23.325 86.5007 23.4578 87.0868 23.7234C87.673 23.9798 88.1217 24.3553 88.4331 24.8498C88.7536 25.3352 88.9139 25.9259 88.9139 26.6219C88.9139 27.2996 88.7536 27.8857 88.4331 28.3802C88.1217 28.8656 87.673 29.2411 87.0868 29.5067C86.5007 29.7631 85.8001 29.8913 84.9851 29.8913H81.9492L82.4025 29.4242V32.9409H81.386ZM87.9523 32.9409L85.4796 29.4517H86.5786L89.065 32.9409H87.9523ZM82.4025 29.5067L81.9492 29.0259H84.9576C85.9192 29.0259 86.6473 28.8152 87.1418 28.394C87.6455 27.9727 87.8973 27.382 87.8973 26.6219C87.8973 25.8526 87.6455 25.2573 87.1418 24.8361C86.6473 24.4148 85.9192 24.2042 84.9576 24.2042H81.9492L82.4025 23.7234V29.5067Z" fill="black"/>
<path d="M157 38L157 0" stroke="black"/>
<path d="M192.478 17V8.78758H199.236V17H198.638V9.13954L198.814 9.32725H192.901L193.077 9.13954V17H192.478ZM205.831 17.0469C205.244 17.0469 204.72 16.914 204.259 16.648C203.805 16.3821 203.441 16.0145 203.168 15.5452C202.902 15.0759 202.769 14.5402 202.769 13.9379C202.769 13.3279 202.902 12.7921 203.168 12.3307C203.441 11.8614 203.805 11.4938 204.259 11.2278C204.72 10.9619 205.244 10.829 205.831 10.829C206.417 10.829 206.941 10.9619 207.403 11.2278C207.864 11.4938 208.228 11.8614 208.494 12.3307C208.76 12.7921 208.893 13.3279 208.893 13.9379C208.893 14.5402 208.76 15.0759 208.494 15.5452C208.228 16.0145 207.864 16.3821 207.403 16.648C206.941 16.914 206.417 17.0469 205.831 17.0469ZM205.831 16.519C206.3 16.519 206.722 16.4134 207.098 16.2022C207.473 15.9832 207.767 15.6782 207.978 15.2871C208.189 14.8961 208.294 14.4463 208.294 13.9379C208.294 13.4217 208.189 12.972 207.978 12.5888C207.767 12.1977 207.473 11.8966 207.098 11.6854C206.722 11.4664 206.3 11.3569 205.831 11.3569C205.361 11.3569 204.939 11.4664 204.564 11.6854C204.196 11.8966 203.903 12.1977 203.684 12.5888C203.473 12.972 203.367 13.4217 203.367 13.9379C203.367 14.4463 203.473 14.8961 203.684 15.2871C203.903 15.6782 204.196 15.9832 204.564 16.2022C204.939 16.4134 205.361 16.519 205.831 16.519ZM216.376 16.7184V11.4038H213.185L213.115 12.929C213.099 13.3592 213.072 13.7893 213.033 14.2195C212.994 14.6419 212.931 15.0329 212.845 15.3927C212.759 15.7447 212.638 16.0302 212.481 16.2492C212.333 16.4681 212.137 16.5894 211.895 16.6128L211.308 16.4838C211.559 16.4994 211.762 16.4095 211.918 16.214C212.075 16.0106 212.196 15.7369 212.282 15.3927C212.368 15.0486 212.431 14.6614 212.47 14.2312C212.517 13.7932 212.552 13.3474 212.575 12.8938L212.657 10.8759H216.963V16.7184H216.376ZM211.038 18.5252V16.4838H217.949V18.5252H217.397V17H211.602V18.5252H211.038ZM220.056 17L222.602 13.6916L222.591 13.9731L220.186 10.8759H220.854L222.954 13.586H222.708L224.796 10.8759H225.453L223.025 14.0083L223.036 13.6916L225.617 17H224.925L222.708 14.1139L222.931 14.1374L220.725 17H220.056ZM230.734 17.0469C230.148 17.0469 229.624 16.914 229.162 16.648C228.709 16.3821 228.345 16.0145 228.071 15.5452C227.805 15.0759 227.672 14.5402 227.672 13.9379C227.672 13.3279 227.805 12.7921 228.071 12.3307C228.345 11.8614 228.709 11.4938 229.162 11.2278C229.624 10.9619 230.148 10.829 230.734 10.829C231.321 10.829 231.845 10.9619 232.306 11.2278C232.768 11.4938 233.132 11.8614 233.397 12.3307C233.663 12.7921 233.796 13.3279 233.796 13.9379C233.796 14.5402 233.663 15.0759 233.397 15.5452C233.132 16.0145 232.768 16.3821 232.306 16.648C231.845 16.914 231.321 17.0469 230.734 17.0469ZM230.734 16.519C231.204 16.519 231.626 16.4134 232.001 16.2022C232.377 15.9832 232.67 15.6782 232.881 15.2871C233.092 14.8961 233.198 14.4463 233.198 13.9379C233.198 13.4217 233.092 12.972 232.881 12.5888C232.67 12.1977 232.377 11.8966 232.001 11.6854C231.626 11.4664 231.204 11.3569 230.734 11.3569C230.265 11.3569 229.843 11.4664 229.467 11.6854C229.1 11.8966 228.806 12.1977 228.587 12.5888C228.376 12.972 228.271 13.4217 228.271 13.9379C228.271 14.4463 228.376 14.8961 228.587 15.2871C228.806 15.6782 229.1 15.9832 229.467 16.2022C229.843 16.4134 230.265 16.519 230.734 16.519ZM241.28 16.7184V11.4038H238.089L238.018 12.929C238.003 13.3592 237.975 13.7893 237.936 14.2195C237.897 14.6419 237.835 15.0329 237.749 15.3927C237.663 15.7447 237.541 16.0302 237.385 16.2492C237.236 16.4681 237.041 16.5894 236.798 16.6128L236.212 16.4838C236.462 16.4994 236.665 16.4095 236.822 16.214C236.978 16.0106 237.099 15.7369 237.186 15.3927C237.272 15.0486 237.334 14.6614 237.373 14.2312C237.42 13.7932 237.455 13.3474 237.479 12.8938L237.561 10.8759H241.867V16.7184H241.28ZM235.942 18.5252V16.4838H242.852V18.5252H242.301V17H236.505V18.5252H235.942ZM245.992 17V10.8759H246.579V16.0966L250.943 10.8759H251.46V17H250.873V11.7792L246.509 17H245.992ZM256.512 17V11.2278L256.676 11.4038H254.118V10.8759H259.492V11.4038H256.934L257.098 11.2278V17H256.512ZM270.765 16.7184V11.4038H267.574L267.503 12.929C267.488 13.3592 267.46 13.7893 267.421 14.2195C267.382 14.6419 267.32 15.0329 267.234 15.3927C267.148 15.7447 267.026 16.0302 266.87 16.2492C266.721 16.4681 266.526 16.5894 266.283 16.6128L265.697 16.4838C265.947 16.4994 266.15 16.4095 266.307 16.214C266.463 16.0106 266.584 15.7369 266.67 15.3927C266.757 15.0486 266.819 14.6614 266.858 14.2312C266.905 13.7932 266.94 13.3474 266.964 12.8938L267.046 10.8759H271.352V16.7184H270.765ZM265.427 18.5252V16.4838H272.337V18.5252H271.786V17H265.99V18.5252H265.427ZM274.269 16.9765L274.328 16.4721C274.375 16.4799 274.422 16.4916 274.468 16.5073C274.523 16.5151 274.57 16.519 274.609 16.519C274.875 16.519 275.086 16.4212 275.243 16.2257C275.399 16.0223 275.516 15.7525 275.595 15.4162C275.681 15.0799 275.739 14.7005 275.771 14.2782C275.81 13.8558 275.841 13.4256 275.865 12.9876L275.97 10.8759H280.264V17H279.677V11.2161L279.842 11.4038H276.346L276.498 11.2044L276.404 13.0346C276.373 13.5664 276.33 14.0748 276.275 14.5597C276.22 15.0447 276.138 15.4748 276.029 15.8503C275.919 16.2257 275.763 16.5229 275.56 16.7419C275.356 16.9531 275.094 17.0587 274.773 17.0587C274.695 17.0587 274.613 17.0508 274.527 17.0352C274.449 17.0196 274.363 17 274.269 16.9765ZM288.183 17V14.7475L288.313 14.8882H286.142C285.376 14.8882 284.777 14.724 284.347 14.3955C283.925 14.0592 283.714 13.5664 283.714 12.9173C283.714 12.229 283.944 11.7167 284.406 11.3804C284.867 11.044 285.477 10.8759 286.236 10.8759H288.723V17H288.183ZM283.678 17L285.379 14.6419H286.001L284.324 17H283.678ZM288.183 14.5832V11.2161L288.313 11.3921H286.271C285.645 11.3921 285.16 11.5133 284.816 11.7558C284.472 11.9982 284.3 12.3932 284.3 12.9407C284.3 13.9419 284.934 14.4424 286.201 14.4424H288.313L288.183 14.5832ZM192.267 28V21.8759H194.848C195.521 21.8759 196.053 22.0088 196.444 22.2748C196.835 22.5407 197.03 22.9279 197.03 23.4362C197.03 23.9368 196.839 24.3161 196.455 24.5742C196.08 24.8324 195.591 24.9614 194.989 24.9614L195.153 24.7854C195.873 24.7854 196.401 24.9184 196.737 25.1843C197.073 25.4502 197.241 25.8413 197.241 26.3575C197.241 26.8815 197.05 27.2883 196.667 27.5776C196.291 27.8592 195.708 28 194.918 28H192.267ZM192.842 27.519H194.907C195.478 27.519 195.912 27.4251 196.209 27.2374C196.506 27.0497 196.655 26.7486 196.655 26.3341C196.655 25.9117 196.522 25.6067 196.256 25.419C195.998 25.2234 195.579 25.1257 195.001 25.1257H192.842V27.519ZM192.842 24.6681H194.813C195.329 24.6681 195.728 24.5703 196.01 24.3748C196.299 24.1793 196.444 23.8899 196.444 23.5066C196.444 23.1234 196.299 22.8379 196.01 22.6502C195.728 22.4547 195.329 22.3569 194.813 22.3569H192.842V24.6681ZM203.208 28.0469C202.613 28.0469 202.082 27.914 201.612 27.648C201.151 27.3821 200.783 27.0145 200.51 26.5452C200.244 26.0759 200.111 25.5402 200.111 24.9379C200.111 24.3279 200.244 23.7882 200.51 23.3189C200.783 22.8496 201.151 22.4859 201.612 22.2278C202.082 21.9619 202.613 21.829 203.208 21.829C203.701 21.829 204.146 21.9228 204.545 22.1105C204.952 22.2982 205.281 22.5798 205.531 22.9552L205.097 23.272C204.878 22.9591 204.604 22.7284 204.276 22.5798C203.947 22.4312 203.591 22.3569 203.208 22.3569C202.731 22.3569 202.301 22.4664 201.917 22.6854C201.542 22.8966 201.245 23.1977 201.026 23.5888C200.815 23.972 200.709 24.4217 200.709 24.9379C200.709 25.4541 200.815 25.9078 201.026 26.2989C201.245 26.6821 201.542 26.9832 201.917 27.2022C202.301 27.4134 202.731 27.519 203.208 27.519C203.591 27.519 203.947 27.4447 204.276 27.2961C204.604 27.1475 204.878 26.9167 205.097 26.6039L205.531 26.9207C205.281 27.2961 204.952 27.5776 204.545 27.7654C204.146 27.9531 203.701 28.0469 203.208 28.0469ZM211.102 28.0469C210.484 28.0469 209.936 27.914 209.459 27.648C208.99 27.3821 208.619 27.0145 208.345 26.5452C208.079 26.0759 207.946 25.5402 207.946 24.9379C207.946 24.3279 208.071 23.7921 208.321 23.3307C208.579 22.8614 208.931 22.4938 209.377 22.2278C209.823 21.9619 210.324 21.829 210.879 21.829C211.434 21.829 211.931 21.958 212.369 22.2161C212.815 22.4742 213.163 22.8379 213.413 23.3072C213.671 23.7686 213.8 24.3044 213.8 24.9145C213.8 24.9379 213.796 24.9653 213.788 24.9966C213.788 25.0201 213.788 25.0474 213.788 25.0787H208.38V24.6212H213.472L213.237 24.8441C213.245 24.367 213.143 23.9407 212.932 23.5653C212.729 23.182 212.451 22.8848 212.099 22.6737C211.747 22.4547 211.34 22.3452 210.879 22.3452C210.425 22.3452 210.019 22.4547 209.659 22.6737C209.307 22.8848 209.029 23.182 208.826 23.5653C208.622 23.9407 208.521 24.3709 208.521 24.8558V24.9614C208.521 25.462 208.63 25.9078 208.849 26.2989C209.076 26.6821 209.385 26.9832 209.776 27.2022C210.167 27.4134 210.613 27.519 211.114 27.519C211.505 27.519 211.868 27.4486 212.205 27.3078C212.549 27.167 212.838 26.9519 213.073 26.6625L213.413 27.0497C213.147 27.3782 212.811 27.6285 212.404 27.8006C212.005 27.9648 211.571 28.0469 211.102 28.0469ZM215.92 28L218.466 24.6916L218.455 24.9731L216.05 21.8759H216.718L218.818 24.586H218.572L220.66 21.8759H221.317L218.889 25.0083L218.9 24.6916L221.481 28H220.789L218.572 25.1139L218.795 25.1374L216.589 28H215.92ZM228.797 28V21.8759H231.378C232.05 21.8759 232.582 22.0088 232.973 22.2748C233.364 22.5407 233.56 22.9279 233.56 23.4362C233.56 23.9368 233.368 24.3161 232.985 24.5742C232.61 24.8324 232.121 24.9614 231.519 24.9614L231.683 24.7854C232.402 24.7854 232.93 24.9184 233.267 25.1843C233.603 25.4502 233.771 25.8413 233.771 26.3575C233.771 26.8815 233.58 27.2883 233.196 27.5776C232.821 27.8592 232.238 28 231.448 28H228.797ZM229.372 27.519H231.436C232.007 27.519 232.441 27.4251 232.739 27.2374C233.036 27.0497 233.185 26.7486 233.185 26.3341C233.185 25.9117 233.052 25.6067 232.786 25.419C232.528 25.2234 232.109 25.1257 231.53 25.1257H229.372V27.519ZM229.372 24.6681H231.343C231.859 24.6681 232.258 24.5703 232.539 24.3748C232.829 24.1793 232.973 23.8899 232.973 23.5066C232.973 23.1234 232.829 22.8379 232.539 22.6502C232.258 22.4547 231.859 22.3569 231.343 22.3569H229.372V24.6681ZM239.702 28.0469C239.116 28.0469 238.592 27.914 238.13 27.648C237.677 27.3821 237.313 27.0145 237.039 26.5452C236.773 26.0759 236.64 25.5402 236.64 24.9379C236.64 24.3279 236.773 23.7921 237.039 23.3307C237.313 22.8614 237.677 22.4938 238.13 22.2278C238.592 21.9619 239.116 21.829 239.702 21.829C240.289 21.829 240.813 21.9619 241.274 22.2278C241.736 22.4938 242.1 22.8614 242.366 23.3307C242.631 23.7921 242.764 24.3279 242.764 24.9379C242.764 25.5402 242.631 26.0759 242.366 26.5452C242.1 27.0145 241.736 27.3821 241.274 27.648C240.813 27.914 240.289 28.0469 239.702 28.0469ZM239.702 27.519C240.172 27.519 240.594 27.4134 240.969 27.2022C241.345 26.9832 241.638 26.6782 241.849 26.2871C242.061 25.8961 242.166 25.4463 242.166 24.9379C242.166 24.4217 242.061 23.972 241.849 23.5888C241.638 23.1977 241.345 22.8966 240.969 22.6854C240.594 22.4664 240.172 22.3569 239.702 22.3569C239.233 22.3569 238.811 22.4664 238.435 22.6854C238.068 22.8966 237.774 23.1977 237.555 23.5888C237.344 23.972 237.239 24.4217 237.239 24.9379C237.239 25.4463 237.344 25.8961 237.555 26.2871C237.774 26.6782 238.068 26.9832 238.435 27.2022C238.811 27.4134 239.233 27.519 239.702 27.519ZM247.573 28.0587C247.151 28.0587 246.725 27.9922 246.294 27.8592C245.864 27.7263 245.485 27.5229 245.156 27.2492L245.379 26.8151C245.677 27.0653 246.021 27.2531 246.412 27.3782C246.803 27.4955 247.194 27.5503 247.585 27.5425C247.984 27.5425 248.332 27.4838 248.629 27.3665C248.934 27.2492 249.169 27.0888 249.333 26.8855C249.497 26.6821 249.579 26.4553 249.579 26.205C249.579 25.8374 249.415 25.5519 249.087 25.3486C248.758 25.1452 248.308 25.0435 247.737 25.0435H246.752V24.5977H247.714C248.042 24.5977 248.332 24.5547 248.582 24.4687C248.84 24.3826 249.04 24.2575 249.181 24.0932C249.329 23.9212 249.403 23.7217 249.403 23.4949C249.403 23.2446 249.317 23.0334 249.145 22.8614C248.981 22.6815 248.754 22.5485 248.465 22.4625C248.183 22.3764 247.867 22.3334 247.515 22.3334C247.21 22.3413 246.893 22.3882 246.564 22.4742C246.244 22.5602 245.927 22.6893 245.614 22.8614L245.426 22.3921C245.77 22.2044 246.118 22.0636 246.47 21.9697C246.822 21.8759 247.178 21.825 247.538 21.8172C247.992 21.8094 248.406 21.872 248.782 22.0049C249.157 22.1301 249.454 22.3139 249.673 22.5563C249.892 22.791 250.002 23.0765 250.002 23.4128C250.002 23.7178 249.908 23.9837 249.72 24.2106C249.54 24.4296 249.29 24.6016 248.969 24.7268C248.656 24.8519 248.305 24.9145 247.913 24.9145L247.96 24.7268C248.664 24.7268 249.208 24.8636 249.591 25.1374C249.982 25.4111 250.178 25.7787 250.178 26.2402C250.178 26.6078 250.06 26.9285 249.826 27.2022C249.591 27.476 249.274 27.6871 248.875 27.8358C248.484 27.9844 248.05 28.0587 247.573 28.0587ZM256.729 28.0469C256.189 28.0469 255.7 27.9218 255.262 27.6715C254.832 27.4212 254.488 27.0653 254.23 26.6039C253.979 26.1346 253.854 25.5793 253.854 24.9379C253.854 24.2966 253.979 23.7452 254.23 23.2837C254.488 22.8144 254.832 22.4547 255.262 22.2044C255.7 21.9541 256.189 21.829 256.729 21.829C257.307 21.829 257.823 21.9619 258.277 22.2278C258.739 22.4859 259.098 22.8496 259.356 23.3189C259.622 23.7882 259.755 24.3279 259.755 24.9379C259.755 25.548 259.622 26.0877 259.356 26.557C259.098 27.0262 258.739 27.3938 258.277 27.6598C257.823 27.9179 257.307 28.0469 256.729 28.0469ZM253.655 30.276V21.8759H254.218V23.8821L254.124 24.9497L254.241 26.0173V30.276H253.655ZM256.693 27.519C257.163 27.519 257.585 27.4134 257.96 27.2022C258.336 26.9832 258.629 26.6782 258.84 26.2871C259.059 25.8961 259.169 25.4463 259.169 24.9379C259.169 24.4217 259.059 23.972 258.84 23.5888C258.629 23.1977 258.336 22.8966 257.96 22.6854C257.585 22.4664 257.163 22.3569 256.693 22.3569C256.224 22.3569 255.802 22.4664 255.426 22.6854C255.059 22.8966 254.765 23.1977 254.546 23.5888C254.335 23.972 254.23 24.4217 254.23 24.9379C254.23 25.4463 254.335 25.8961 254.546 26.2871C254.765 26.6782 255.059 26.9832 255.426 27.2022C255.802 27.4134 256.224 27.519 256.693 27.519ZM266.872 28V26.6039L266.849 26.3927V24.0932C266.849 23.5223 266.693 23.0882 266.38 22.791C266.075 22.4938 265.625 22.3452 265.031 22.3452C264.608 22.3452 264.213 22.4195 263.846 22.5681C263.486 22.7089 263.177 22.8927 262.919 23.1195L262.625 22.6971C262.931 22.4234 263.298 22.2122 263.728 22.0636C264.158 21.9072 264.608 21.829 265.077 21.829C265.836 21.829 266.419 22.0206 266.826 22.4038C267.232 22.7871 267.436 23.358 267.436 24.1167V28H266.872ZM264.667 28.0469C264.213 28.0469 263.818 27.9765 263.482 27.8358C263.153 27.6871 262.899 27.4799 262.719 27.214C262.547 26.948 262.461 26.643 262.461 26.2989C262.461 25.986 262.532 25.7044 262.672 25.4541C262.821 25.196 263.063 24.9888 263.4 24.8324C263.736 24.6681 264.186 24.586 264.749 24.586H267.002V25.0435H264.761C264.127 25.0435 263.681 25.1608 263.423 25.3955C263.173 25.6301 263.048 25.9234 263.048 26.2754C263.048 26.6665 263.196 26.9793 263.494 27.214C263.791 27.4486 264.209 27.5659 264.749 27.5659C265.265 27.5659 265.699 27.4486 266.051 27.214C266.411 26.9793 266.677 26.6391 266.849 26.1933L267.013 26.5922C266.849 27.038 266.567 27.3938 266.169 27.6598C265.778 27.9179 265.277 28.0469 264.667 28.0469ZM273.702 28.0469C273.108 28.0469 272.576 27.914 272.107 27.648C271.645 27.3821 271.278 27.0145 271.004 26.5452C270.738 26.0759 270.605 25.5402 270.605 24.9379C270.605 24.3279 270.738 23.7882 271.004 23.3189C271.278 22.8496 271.645 22.4859 272.107 22.2278C272.576 21.9619 273.108 21.829 273.702 21.829C274.195 21.829 274.641 21.9228 275.04 22.1105C275.446 22.2982 275.775 22.5798 276.025 22.9552L275.591 23.272C275.372 22.9591 275.098 22.7284 274.77 22.5798C274.441 22.4312 274.086 22.3569 273.702 22.3569C273.225 22.3569 272.795 22.4664 272.412 22.6854C272.036 22.8966 271.739 23.1977 271.52 23.5888C271.309 23.972 271.203 24.4217 271.203 24.9379C271.203 25.4541 271.309 25.9078 271.52 26.2989C271.739 26.6821 272.036 26.9832 272.412 27.2022C272.795 27.4134 273.225 27.519 273.702 27.519C274.086 27.519 274.441 27.4447 274.77 27.2961C275.098 27.1475 275.372 26.9167 275.591 26.6039L276.025 26.9207C275.775 27.2961 275.446 27.5776 275.04 27.7654C274.641 27.9531 274.195 28.0469 273.702 28.0469ZM280.142 28V22.2278L280.306 22.4038H277.749V21.8759H283.122V22.4038H280.565L280.729 22.2278V28H280.142ZM287.94 28.0469C287.353 28.0469 286.829 27.914 286.368 27.648C285.914 27.3821 285.55 27.0145 285.277 26.5452C285.011 26.0759 284.878 25.5402 284.878 24.9379C284.878 24.3279 285.011 23.7921 285.277 23.3307C285.55 22.8614 285.914 22.4938 286.368 22.2278C286.829 21.9619 287.353 21.829 287.94 21.829C288.526 21.829 289.05 21.9619 289.512 22.2278C289.973 22.4938 290.337 22.8614 290.603 23.3307C290.869 23.7921 291.002 24.3279 291.002 24.9379C291.002 25.5402 290.869 26.0759 290.603 26.5452C290.337 27.0145 289.973 27.3821 289.512 27.648C289.05 27.914 288.526 28.0469 287.94 28.0469ZM287.94 27.519C288.409 27.519 288.831 27.4134 289.207 27.2022C289.582 26.9832 289.876 26.6782 290.087 26.2871C290.298 25.8961 290.404 25.4463 290.404 24.9379C290.404 24.4217 290.298 23.972 290.087 23.5888C289.876 23.1977 289.582 22.8966 289.207 22.6854C288.831 22.4664 288.409 22.3569 287.94 22.3569C287.471 22.3569 287.048 22.4664 286.673 22.6854C286.305 22.8966 286.012 23.1977 285.793 23.5888C285.582 23.972 285.476 24.4217 285.476 24.9379C285.476 25.4463 285.582 25.8961 285.793 26.2871C286.012 26.6782 286.305 26.9832 286.673 27.2022C287.048 27.4134 287.471 27.519 287.94 27.519ZM294.32 28V21.8759H296.901C297.574 21.8759 298.106 22.0088 298.497 22.2748C298.888 22.5407 299.083 22.9279 299.083 23.4362C299.083 23.9368 298.892 24.3161 298.508 24.5742C298.133 24.8324 297.644 24.9614 297.042 24.9614L297.206 24.7854C297.926 24.7854 298.454 24.9184 298.79 25.1843C299.126 25.4502 299.295 25.8413 299.295 26.3575C299.295 26.8815 299.103 27.2883 298.72 27.5776C298.344 27.8592 297.762 28 296.972 28H294.32ZM294.895 27.519H296.96C297.531 27.519 297.965 27.4251 298.262 27.2374C298.559 27.0497 298.708 26.7486 298.708 26.3341C298.708 25.9117 298.575 25.6067 298.309 25.419C298.051 25.2234 297.632 25.1257 297.054 25.1257H294.895V27.519ZM294.895 24.6681H296.866C297.382 24.6681 297.781 24.5703 298.063 24.3748C298.352 24.1793 298.497 23.8899 298.497 23.5066C298.497 23.1234 298.352 22.8379 298.063 22.6502C297.781 22.4547 297.382 22.3569 296.866 22.3569H294.895V24.6681ZM302.774 25.6419L302.656 19.7876H303.337L303.22 25.6419H302.774ZM302.997 28.0469C302.864 28.0469 302.75 28 302.656 27.9061C302.563 27.8045 302.516 27.6911 302.516 27.5659C302.516 27.433 302.563 27.3195 302.656 27.2257C302.75 27.1318 302.864 27.0849 302.997 27.0849C303.137 27.0849 303.255 27.1318 303.349 27.2257C303.443 27.3195 303.489 27.433 303.489 27.5659C303.489 27.6911 303.443 27.8045 303.349 27.9061C303.255 28 303.137 28.0469 302.997 28.0469Z" fill="black"/>
</svg>
