<svg width="49" height="49" viewBox="0 0 49 49" fill="none" xmlns="http://www.w3.org/2000/svg">
<g clip-path="url(#clip0_916_189)">
<circle cx="24.7132" cy="24.6483" r="16.6501" fill="#C06AEE"/>
<path fill-rule="evenodd" clip-rule="evenodd" d="M46.3616 24.6808C46.3616 36.654 36.654 46.3616 24.6808 46.3616C12.7076 46.3616 3 36.654 3 24.6808C3 12.7076 12.7076 3 24.6808 3C36.654 3 46.3616 12.7076 46.3616 24.6808ZM25.4577 19.0059C23.3493 19.8821 19.1341 21.6979 12.8142 24.4514C11.788 24.8597 11.2495 25.259 11.2008 25.6492C11.1177 26.3105 11.9451 26.5707 13.0689 26.923C13.2225 26.9718 13.3815 27.0205 13.5441 27.0747C14.6516 27.4343 16.1404 27.8552 16.9137 27.8715C17.6165 27.886 18.4006 27.5969 19.266 27.0043C25.1704 23.0168 28.2184 21.0023 28.4099 20.9589C28.5454 20.9282 28.7333 20.8885 28.8598 21.0023C28.9863 21.1143 28.9736 21.3275 28.961 21.3853C28.8779 21.734 25.6366 24.7495 23.9563 26.3105C23.4324 26.7965 23.062 27.1416 22.9861 27.2211C22.8163 27.3963 22.6428 27.5644 22.4766 27.7252C21.4468 28.7153 20.6771 29.4596 22.52 30.6738C23.4053 31.2573 24.1135 31.7397 24.8199 32.2203C25.5914 32.7461 26.3611 33.27 27.3584 33.9241C27.6113 34.0903 27.8534 34.2619 28.0901 34.43C28.9881 35.0713 29.7957 35.6459 30.793 35.5555C31.3712 35.5013 31.971 34.9575 32.2745 33.3333C32.9918 29.4921 34.4047 21.1739 34.7317 17.7448C34.7516 17.46 34.7395 17.174 34.6955 16.892C34.6693 16.6642 34.5583 16.4546 34.3848 16.3048C34.1264 16.0934 33.7253 16.0482 33.5447 16.0518C32.7298 16.0663 31.4796 16.5017 25.4577 19.0059Z" fill="#F6F6F6"/>
</g>
<defs>
<filter id="filter0_d_916_189" x="0.701839" y="0.701839" width="47.958" height="47.958" filterUnits="userSpaceOnUse" color-interpolation-filters="sRGB">
<feFlood flood-opacity="0" result="BackgroundImageFix"/>
<feColorMatrix in="SourceAlpha" type="matrix" values="0 0 0 0 0 0 0 0 0 0 0 0 0 0 0 0 0 0 127 0" result="hardAlpha"/>
<feOffset/>
<feGaussianBlur stdDeviation="1.14908"/>
<feComposite in2="hardAlpha" operator="out"/>
<feColorMatrix type="matrix" values="0 0 0 0 0 0 0 0 0 0 0 0 0 0 0 0 0 0 0.25 0"/>
<feBlend mode="normal" in2="BackgroundImageFix" result="effect1_dropShadow_916_189"/>
<feBlend mode="normal" in="SourceGraphic" in2="effect1_dropShadow_916_189" result="shape"/>
</filter>
<clipPath id="clip0_916_189">
<rect x="3" y="3" width="43.3616" height="43.3616" rx="21.6808" fill="white"/>
</clipPath>
</defs>
</svg>
