<svg width="180" height="180" viewBox="0 0 180 180" fill="none" xmlns="http://www.w3.org/2000/svg">
<rect width="180" height="180" rx="40" fill="white"/>
<path d="M135.241 113.767L91.714 137.082C90.6433 137.655 89.3567 137.655 88.286 137.082L44.759 113.767C43.5793 113.135 42.843 111.906 42.843 110.567V97.6088V88.5392C42.843 85.796 45.7688 84.044 48.187 85.3393L88.286 106.818C89.3567 107.391 90.6433 107.391 91.714 106.818L131.813 85.3393C134.231 84.044 137.157 85.796 137.157 88.5392V110.567C137.157 111.906 136.421 113.135 135.241 113.767Z" fill="#191919"/>
<path d="M42.843 78.0905L88.286 102.432C89.3567 103.005 90.6433 103.005 91.714 102.432L137.157 78.0905L173.075 58.8515C175.803 57.39 175.507 53.5933 172.53 52.7468C160.086 49.2088 132.231 43 90 43C47.7687 43 19.9143 49.2088 7.47006 52.7468C4.49273 53.5933 4.19655 57.39 6.92511 58.8515L42.843 78.0905Z" fill="#191919"/>
<path d="M135.241 113.767L91.714 137.082C90.6433 137.655 89.3567 137.655 88.286 137.082L44.759 113.767C43.5793 113.135 42.843 111.906 42.843 110.567V97.6088V88.5392C42.843 85.796 45.7688 84.044 48.187 85.3393L88.286 106.818C89.3567 107.391 90.6433 107.391 91.714 106.818L131.813 85.3393C134.231 84.044 137.157 85.796 137.157 88.5392V110.567C137.157 111.906 136.421 113.135 135.241 113.767Z" stroke="black" stroke-width="0.302504"/>
<path d="M42.843 78.0905L88.286 102.432C89.3567 103.005 90.6433 103.005 91.714 102.432L137.157 78.0905L173.075 58.8515C175.803 57.39 175.507 53.5933 172.53 52.7468C160.086 49.2088 132.231 43 90 43C47.7687 43 19.9143 49.2088 7.47006 52.7468C4.49273 53.5933 4.19655 57.39 6.92511 58.8515L42.843 78.0905Z" stroke="black" stroke-width="0.302504"/>
<path d="M90.1489 60.6965C90.1489 60.6965 128.386 59.4469 143.707 75.2885C145.503 77.1449 145.433 90.7587 145.433 90.7587" stroke="#F1AD2D" stroke-width="1.609"/>
<path d="M145.45 90.3332C146.126 90.3333 146.749 90.7984 147.206 91.5734C147.663 92.3472 147.948 93.4201 147.948 94.6086C147.947 95.797 147.663 96.87 147.206 97.6437C146.749 98.4187 146.126 98.8838 145.45 98.884C144.775 98.884 144.151 98.4189 143.694 97.6437C143.237 96.87 142.952 95.797 142.952 94.6086C142.952 93.4202 143.237 92.3472 143.694 91.5734C144.151 90.7983 144.775 90.3332 145.45 90.3332Z" fill="#F1AD2D" stroke="#F1AD2D" stroke-width="0.123769"/>
<ellipse cx="90.0881" cy="60.5179" rx="2.61719" ry="1.48523" fill="#7A7A7A"/>
</svg>
