<svg width="79" height="79" viewBox="0 0 79 79" fill="none" xmlns="http://www.w3.org/2000/svg">
<circle cx="39.4907" cy="39.4907" r="39.4907" fill="#34C771"/>
<path fill-rule="evenodd" clip-rule="evenodd" d="M50.5212 44.184C49.9238 43.8868 46.9947 42.4542 46.4494 42.2547C45.9041 42.0571 45.5071 41.9594 45.1082 42.554C44.7112 43.1465 43.5705 44.4813 43.2236 44.8764C42.8748 45.2734 42.528 45.3213 41.9325 45.026C41.3371 44.7267 39.4165 44.1022 37.141 42.0831C35.3707 40.5108 34.1739 38.5695 33.827 37.9749C33.4802 37.3823 33.7889 37.0611 34.0877 36.7658C34.3563 36.5005 34.6831 36.0735 34.9818 35.7283C35.2805 35.3811 35.3788 35.1337 35.5772 34.7367C35.7777 34.3416 35.6775 33.9965 35.5271 33.6992C35.3788 33.4019 34.1879 30.4829 33.6907 29.2957C33.2075 28.1405 32.7164 28.2981 32.3515 28.2782C32.0026 28.2622 31.6057 28.2582 31.2087 28.2582C30.8118 28.2582 30.1662 28.4058 29.6209 29.0004C29.0736 29.593 27.5359 31.0276 27.5359 33.9466C27.5359 36.8636 29.669 39.6828 29.9677 40.0799C30.2665 40.4749 34.1679 46.4646 40.1442 49.0324C41.5677 49.643 42.6763 50.0081 43.5404 50.2794C44.9678 50.7324 46.267 50.6685 47.2934 50.5149C48.4362 50.3453 50.8179 49.0803 51.3151 47.6956C51.8103 46.311 51.8103 45.1238 51.662 44.8764C51.5136 44.629 51.1166 44.4813 50.5192 44.184M39.649 58.9547H39.641C36.0913 58.9553 32.6068 58.0057 29.5527 56.2053L28.831 55.7783L21.3289 57.7376L23.3318 50.459L22.8606 49.7128C20.8761 46.569 19.8259 42.9306 19.8313 39.2179C19.8354 28.344 28.7248 19.4972 39.6571 19.4972C42.2607 19.4904 44.8398 19.9982 47.2447 20.9911C49.6497 21.984 51.8326 23.4423 53.6668 25.2813C55.5117 27.1099 56.9741 29.2843 57.9693 31.6789C58.9645 34.0734 59.4728 36.6406 59.4647 39.2319C59.4607 50.1059 50.5713 58.9547 39.649 58.9547ZM56.5136 22.4481C54.3049 20.2355 51.677 18.4811 48.7821 17.2865C45.8872 16.0919 42.7829 15.4808 39.649 15.4888C26.5094 15.4888 15.8117 26.1333 15.8077 39.216C15.8016 43.3795 16.899 47.4709 18.9893 51.0775L15.6072 63.3741L28.2456 60.074C31.7418 61.9697 35.6596 62.963 39.641 62.9631H39.6511C52.7907 62.9631 63.4884 52.3186 63.4924 39.2339C63.5021 36.1159 62.8905 33.027 61.693 30.1457C60.4954 27.2645 58.7357 24.6482 56.5156 22.4481" fill="#F6F6F6"/>
</svg>
